Literata-M7Italic.ufo
<glyph name="numbersign" format="2">
	<unicode hex="0023"/>
	<advance width="703"/>
	<outline>
		<contour>
			<point x="122" y="-18" type="line"/>
			<point x="252" y="-18" type="line"/>
			<point x="276" y="120" type="line"/>
			<point x="406" y="120" type="line"/>
			<point x="381" y="-18" type="line"/>
			<point x="511" y="-18" type="line"/>
			<point x="536" y="120" type="line"/>
			<point x="631" y="120" type="line"/>
			<point x="650" y="216" type="line"/>
			<point x="554" y="216" type="line"/>
			<point x="580" y="347" type="line"/>
			<point x="669" y="347" type="line"/>
			<point x="688" y="444" type="line"/>
			<point x="597" y="444" type="line"/>
			<point x="620" y="567" type="line"/>
			<point x="489" y="567" type="line"/>
			<point x="467" y="444" type="line"/>
			<point x="339" y="444" type="line"/>
			<point x="362" y="567" type="line"/>
			<point x="232" y="567" type="line"/>
			<point x="209" y="444" type="line"/>
			<point x="105" y="444" type="line"/>
			<point x="85" y="347" type="line"/>
			<point x="191" y="347" type="line"/>
			<point x="165" y="216" type="line"/>
			<point x="63" y="216" type="line"/>
			<point x="42" y="120" type="line"/>
			<point x="146" y="120" type="line"/>
		</contour>
		<contour>
			<point x="320" y="347" type="line"/>
			<point x="450" y="347" type="line"/>
			<point x="424" y="216" type="line"/>
			<point x="295" y="216" type="line"/>
		</contour>
	</outline>
</glyph>
<glyph name="percent" format="2">
	<unicode hex="0025"/>
	<advance width="934"/>
	<outline>
		<contour>
			<point x="626" y="597" type="line"/>
			<point x="204" y="-11" type="line"/>
			<point x="337" y="-11" type="line"/>
			<point x="758" y="597" type="line"/>
		</contour>
		<contour>
			<point x="63" y="431" type="curve" smooth="yes"/>
			<point x="63" y="339"/>
			<point x="128" y="274"/>
			<point x="236" y="274" type="curve" smooth="yes"/>
			<point x="339" y="274"/>
			<point x="422" y="333"/>
			<point x="422" y="442" type="curve" smooth="yes"/>
			<point x="422" y="551"/>
			<point x="340" y="597"/>
			<point x="252" y="597" type="curve" smooth="yes"/>
			<point x="157" y="597"/>
			<point x="63" y="553"/>
		</contour>
		<contour>
			<point x="195" y="435" type="curve" smooth="yes"/>
			<point x="195" y="491"/>
			<point x="214" y="514"/>
			<point x="242" y="514" type="curve" smooth="yes"/>
			<point x="276" y="514"/>
			<point x="287" y="488"/>
			<point x="287" y="438" type="curve" smooth="yes"/>
			<point x="287" y="381"/>
			<point x="273" y="359"/>
			<point x="242" y="359" type="curve" smooth="yes"/>
			<point x="207" y="359"/>
			<point x="195" y="388"/>
		</contour>
		<contour>
			<point x="541" y="143" type="curve" smooth="yes"/>
			<point x="541" y="51"/>
			<point x="606" y="-14"/>
			<point x="714" y="-14" type="curve" smooth="yes"/>
			<point x="817" y="-14"/>
			<point x="900" y="45"/>
			<point x="900" y="154" type="curve" smooth="yes"/>
			<point x="900" y="263"/>
			<point x="819" y="309"/>
			<point x="730" y="309" type="curve" smooth="yes"/>
			<point x="635" y="309"/>
			<point x="541" y="265"/>
		</contour>
		<contour>
			<point x="673" y="147" type="curve" smooth="yes"/>
			<point x="673" y="203"/>
			<point x="692" y="226"/>
			<point x="721" y="226" type="curve" smooth="yes"/>
			<point x="754" y="226"/>
			<point x="765" y="200"/>
			<point x="765" y="150" type="curve" smooth="yes"/>
			<point x="765" y="92"/>
			<point x="751" y="71"/>
			<point x="720" y="71" type="curve" smooth="yes"/>
			<point x="685" y="71"/>
			<point x="673" y="100"/>
		</contour>
	</outline>
</glyph>
<glyph name="ampersand" format="2">
	<unicode hex="0026"/>
	<advance width="895"/>
	<outline>
		<contour>
			<point x="403" y="-14" type="curve" smooth="yes"/>
			<point x="600" y="-14"/>
			<point x="757" y="74"/>
			<point x="757" y="185" type="curve" smooth="yes"/>
			<point x="757" y="236"/>
			<point x="736" y="268"/>
			<point x="671" y="313" type="curve"/>
			<point x="673" y="320" type="line"/>
			<point x="696" y="312"/>
			<point x="742" y="306"/>
			<point x="774" y="306" type="curve" smooth="yes"/>
			<point x="845" y="306"/>
			<point x="875" y="336"/>
			<point x="875" y="404" type="curve" smooth="yes"/>
			<point x="875" y="462"/>
			<point x="834" y="500"/>
			<point x="771" y="500" type="curve" smooth="yes"/>
			<point x="740" y="500"/>
			<point x="716" y="492"/>
			<point x="692" y="474" type="curve"/>
			<point x="706" y="425" type="line" smooth="yes"/>
			<point x="718" y="383"/>
			<point x="712" y="371"/>
			<point x="682" y="372" type="curve" smooth="yes"/>
			<point x="604" y="374" type="line"/>
			<point x="555" y="315" type="line"/>
			<point x="579" y="275"/>
			<point x="593" y="237"/>
			<point x="593" y="207" type="curve" smooth="yes"/>
			<point x="593" y="135"/>
			<point x="537" y="88"/>
			<point x="450" y="88" type="curve" smooth="yes"/>
			<point x="369" y="88"/>
			<point x="321" y="123"/>
			<point x="321" y="184" type="curve" smooth="yes"/>
			<point x="321" y="270"/>
			<point x="385" y="325"/>
			<point x="488" y="327" type="curve"/>
			<point x="483" y="416" type="line"/>
			<point x="470" y="413"/>
			<point x="447" y="411"/>
			<point x="431" y="411" type="curve" smooth="yes"/>
			<point x="378" y="411"/>
			<point x="339" y="451"/>
			<point x="339" y="506" type="curve" smooth="yes"/>
			<point x="339" y="587"/>
			<point x="382" y="632"/>
			<point x="458" y="632" type="curve" smooth="yes"/>
			<point x="511" y="632"/>
			<point x="529" y="607"/>
			<point x="508" y="565" type="curve" smooth="yes"/>
			<point x="496" y="540" type="line"/>
			<point x="509" y="518"/>
			<point x="560" y="496"/>
			<point x="597" y="496" type="curve" smooth="yes"/>
			<point x="654" y="496"/>
			<point x="689" y="530"/>
			<point x="689" y="583" type="curve" smooth="yes"/>
			<point x="689" y="663"/>
			<point x="589" y="715"/>
			<point x="434" y="715" type="curve" smooth="yes"/>
			<point x="233" y="715"/>
			<point x="101" y="634"/>
			<point x="101" y="511" type="curve" smooth="yes"/>
			<point x="101" y="419"/>
			<point x="174" y="368"/>
			<point x="310" y="363" type="curve"/>
			<point x="310" y="355" type="line"/>
			<point x="154" y="324"/>
			<point x="82" y="266"/>
			<point x="82" y="171" type="curve" smooth="yes"/>
			<point x="82" y="51"/>
			<point x="195" y="-14"/>
		</contour>
	</outline>
</glyph>
<glyph name="one" format="2">
	<unicode hex="0031"/>
	<advance width="557"/>
	<outline>
		<contour>
			<point x="207" y="586" type="line"/>
			<point x="187" y="110" type="line"/>
			<point x="51" y="94" type="line"/>
			<point x="45" y="0" type="line"/>
			<point x="535" y="0" type="line"/>
			<point x="542" y="95" type="line"/>
			<point x="414" y="111" type="line"/>
			<point x="439" y="677" type="line"/>
			<point x="412" y="720" type="line"/>
			<point x="66" y="687" type="line"/>
			<point x="58" y="586" type="line"/>
		</contour>
	</outline>
</glyph>
<glyph name="two" format="2">
	<unicode hex="0032"/>
	<advance width="653"/>
	<outline>
		<contour>
			<point x="42" y="547" type="curve" smooth="yes"/>
			<point x="42" y="497"/>
			<point x="83" y="463"/>
			<point x="133" y="463" type="curve" smooth="yes"/>
			<point x="184" y="463"/>
			<point x="215" y="487"/>
			<point x="242" y="527" type="curve"/>
			<point x="218" y="551" type="line" smooth="yes"/>
			<point x="187" y="582"/>
			<point x="199" y="621"/>
			<point x="271" y="621" type="curve" smooth="yes"/>
			<point x="341" y="621"/>
			<point x="375" y="583"/>
			<point x="375" y="511" type="curve" smooth="yes"/>
			<point x="375" y="404"/>
			<point x="239" y="287"/>
			<point x="41" y="141" type="curve"/>
			<point x="58" y="0" type="line"/>
			<point x="567" y="0" type="line"/>
			<point x="599" y="237" type="line"/>
			<point x="489" y="237" type="line"/>
			<point x="456" y="143"/>
			<point x="416" y="143"/>
			<point x="341" y="143" type="curve" smooth="yes"/>
			<point x="198" y="143" type="line"/>
			<point x="198" y="148" type="line"/>
			<point x="489" y="318"/>
			<point x="606" y="378"/>
			<point x="606" y="516" type="curve" smooth="yes"/>
			<point x="606" y="646"/>
			<point x="498" y="715"/>
			<point x="320" y="715" type="curve" smooth="yes"/>
			<point x="146" y="715"/>
			<point x="42" y="644"/>
		</contour>
	</outline>
</glyph>
<glyph name="seven" format="2">
	<unicode hex="0037"/>
	<advance width="623"/>
	<outline>
		<contour>
			<point x="132" y="0" type="line"/>
			<point x="372" y="0" type="line"/>
			<point x="622" y="584" type="line"/>
			<point x="606" y="700" type="line"/>
			<point x="77" y="700" type="line"/>
			<point x="47" y="453" type="line"/>
			<point x="148" y="437" type="line"/>
			<point x="170" y="490" type="line" smooth="yes"/>
			<point x="189" y="536"/>
			<point x="208" y="548"/>
			<point x="264" y="548" type="curve" smooth="yes"/>
			<point x="497" y="548" type="line"/>
			<point x="126" y="10" type="line"/>
		</contour>
	</outline>
</glyph>
<glyph name="nine" format="2">
	<unicode hex="0039"/>
	<advance width="694"/>
	<outline>
		<contour>
			<point x="292" y="-14" type="curve" smooth="yes"/>
			<point x="514" y="-14"/>
			<point x="662" y="165"/>
			<point x="662" y="414" type="curve" smooth="yes"/>
			<point x="662" y="609"/>
			<point x="553" y="715"/>
			<point x="366" y="715" type="curve" smooth="yes"/>
			<point x="164" y="715"/>
			<point x="41" y="601"/>
			<point x="41" y="435" type="curve" smooth="yes"/>
			<point x="41" y="309"/>
			<point x="127" y="239"/>
			<point x="255" y="239" type="curve" smooth="yes"/>
			<point x="330" y="239"/>
			<point x="404" y="278"/>
			<point x="443" y="322" type="curve"/>
			<point x="448" y="319" type="line"/>
			<point x="424" y="175"/>
			<point x="369" y="109"/>
			<point x="273" y="109" type="curve" smooth="yes"/>
			<point x="205" y="109"/>
			<point x="146" y="148"/>
			<point x="106" y="180" type="curve"/>
			<point x="44" y="105" type="line"/>
			<point x="84" y="58"/>
			<point x="156" y="-14"/>
		</contour>
		<contour>
			<point x="334" y="372" type="curve" smooth="yes"/>
			<point x="276" y="372"/>
			<point x="252" y="405"/>
			<point x="252" y="463" type="curve" smooth="yes"/>
			<point x="252" y="550"/>
			<point x="288" y="599"/>
			<point x="353" y="599" type="curve" smooth="yes"/>
			<point x="433" y="599"/>
			<point x="447" y="525"/>
			<point x="447" y="419" type="curve"/>
			<point x="419" y="394"/>
			<point x="373" y="372"/>
		</contour>
	</outline>
</glyph>
<glyph name="at" format="2">
	<unicode hex="0040"/>
	<advance width="1110"/>
	<outline>
		<contour>
			<point x="430" y="-228" type="curve" smooth="yes"/>
			<point x="578" y="-228"/>
			<point x="679" y="-174"/>
			<point x="746" y="-117" type="curve"/>
			<point x="693" y="-48" type="line"/>
			<point x="641" y="-80"/>
			<point x="565" y="-106"/>
			<point x="483" y="-106" type="curve" smooth="yes"/>
			<point x="319" y="-106"/>
			<point x="220" y="-38"/>
			<point x="220" y="168" type="curve" smooth="yes"/>
			<point x="220" y="374"/>
			<point x="378" y="506"/>
			<point x="581" y="506" type="curve" smooth="yes"/>
			<point x="832" y="506"/>
			<point x="910" y="416"/>
			<point x="910" y="256" type="curve" smooth="yes"/>
			<point x="910" y="141"/>
			<point x="857" y="49"/>
			<point x="807" y="49" type="curve" smooth="yes"/>
			<point x="787" y="49"/>
			<point x="777" y="59"/>
			<point x="782" y="88" type="curve" smooth="yes"/>
			<point x="834" y="396" type="line"/>
			<point x="815" y="402" type="line"/>
			<point x="726" y="373" type="line"/>
			<point x="673" y="406"/>
			<point x="602" y="426"/>
			<point x="551" y="426" type="curve" smooth="yes"/>
			<point x="427" y="426"/>
			<point x="310" y="346"/>
			<point x="310" y="147" type="curve" smooth="yes"/>
			<point x="310" y="78"/>
			<point x="347" y="-27"/>
			<point x="474" y="-27" type="curve" smooth="yes"/>
			<point x="558" y="-27"/>
			<point x="617" y="8"/>
			<point x="655" y="134" type="curve" smooth="yes"/>
			<point x="686" y="239" type="line"/>
			<point x="697" y="238" type="line"/>
			<point x="664" y="76" type="line" smooth="yes"/>
			<point x="650" y="8"/>
			<point x="696" y="-27"/>
			<point x="779" y="-27" type="curve" smooth="yes"/>
			<point x="933" y="-27"/>
			<point x="1060" y="77"/>
			<point x="1060" y="257" type="curve" smooth="yes"/>
			<point x="1060" y="497"/>
			<point x="883" y="619"/>
			<point x="598" y="619" type="curve" smooth="yes"/>
			<point x="264" y="619"/>
			<point x="64" y="401"/>
			<point x="64" y="129" type="curve" smooth="yes"/>
			<point x="64" y="-114"/>
			<point x="232" y="-228"/>
		</contour>
		<contour>
			<point x="523" y="60" type="curve" smooth="yes"/>
			<point x="491" y="60"/>
			<point x="479" y="86"/>
			<point x="479" y="133" type="curve" smooth="yes"/>
			<point x="479" y="267"/>
			<point x="533" y="344"/>
			<point x="590" y="344" type="curve" smooth="yes"/>
			<point x="614" y="344"/>
			<point x="650" y="336"/>
			<point x="672" y="327" type="curve"/>
			<point x="611" y="166" type="line" smooth="yes"/>
			<point x="578" y="80"/>
			<point x="553" y="60"/>
		</contour>
	</outline>
</glyph>
<glyph name="B" format="2">
	<unicode hex="0042"/>
	<advance width="785"/>
	<outline>
		<contour>
			<point x="723" y="549" type="curve" smooth="yes"/>
			<point x="723" y="650"/>
			<point x="630" y="700"/>
			<point x="445" y="700" type="curve" smooth="yes"/>
			<point x="67" y="700" type="line"/>
			<point x="61" y="611" type="line"/>
			<point x="152" y="594" type="line"/>
			<point x="128" y="107" type="line"/>
			<point x="35" y="93" type="line"/>
			<point x="28" y="0" type="line"/>
			<point x="391" y="0" type="line" smooth="yes"/>
			<point x="620" y="0"/>
			<point x="756" y="73"/>
			<point x="756" y="203" type="curve" smooth="yes"/>
			<point x="756" y="301"/>
			<point x="680" y="356"/>
			<point x="548" y="369" type="curve"/>
			<point x="548" y="374" type="line"/>
			<point x="663" y="408"/>
			<point x="723" y="478"/>
		</contour>
		<contour>
			<point x="400" y="399" type="curve"/>
			<point x="398" y="308" type="line"/>
			<point x="407" y="309"/>
			<point x="415" y="309"/>
			<point x="434" y="309" type="curve" smooth="yes"/>
			<point x="492" y="309"/>
			<point x="534" y="276"/>
			<point x="534" y="215" type="curve" smooth="yes"/>
			<point x="534" y="124"/>
			<point x="456" y="106"/>
			<point x="374" y="106" type="curve" smooth="yes"/>
			<point x="357" y="106" type="line"/>
			<point x="381" y="599" type="line"/>
			<point x="394" y="599" type="line" smooth="yes"/>
			<point x="466" y="599"/>
			<point x="511" y="583"/>
			<point x="511" y="515" type="curve" smooth="yes"/>
			<point x="511" y="449"/>
			<point x="471" y="412"/>
		</contour>
	</outline>
</glyph>
<glyph name="C" format="2">
	<unicode hex="0043"/>
	<advance width="756"/>
	<outline>
		<contour>
			<point x="542" y="512" type="curve" smooth="yes"/>
			<point x="523" y="476" type="line"/>
			<point x="550" y="448"/>
			<point x="597" y="431"/>
			<point x="634" y="431" type="curve" smooth="yes"/>
			<point x="685" y="431"/>
			<point x="726" y="470"/>
			<point x="726" y="525" type="curve" smooth="yes"/>
			<point x="726" y="635"/>
			<point x="626" y="715"/>
			<point x="449" y="715" type="curve" smooth="yes"/>
			<point x="214" y="715"/>
			<point x="58" y="573"/>
			<point x="58" y="316" type="curve" smooth="yes"/>
			<point x="58" y="95"/>
			<point x="190" y="-14"/>
			<point x="404" y="-14" type="curve" smooth="yes"/>
			<point x="563" y="-14"/>
			<point x="660" y="78"/>
			<point x="719" y="162" type="curve"/>
			<point x="636" y="227" type="line"/>
			<point x="583" y="160"/>
			<point x="524" y="115"/>
			<point x="450" y="115" type="curve" smooth="yes"/>
			<point x="343" y="115"/>
			<point x="293" y="179"/>
			<point x="293" y="334" type="curve" smooth="yes"/>
			<point x="293" y="522"/>
			<point x="363" y="612"/>
			<point x="477" y="612" type="curve" smooth="yes"/>
			<point x="554" y="612"/>
			<point x="572" y="569"/>
		</contour>
	</outline>
	<anchor name="bottom" x="397" y="-30"/>
	<anchor name="top" x="444" y="730"/>
</glyph>
<glyph name="G" format="2">
	<unicode hex="0047"/>
	<advance width="819"/>
	<outline>
		<contour>
			<point x="768" y="340" type="line"/>
			<point x="475" y="340" type="line"/>
			<point x="463" y="248" type="line"/>
			<point x="557" y="232" type="line"/>
			<point x="553" y="131" type="line"/>
			<point x="524" y="114"/>
			<point x="486" y="105"/>
			<point x="447" y="105" type="curve" smooth="yes"/>
			<point x="344" y="105"/>
			<point x="293" y="163"/>
			<point x="293" y="327" type="curve" smooth="yes"/>
			<point x="293" y="514"/>
			<point x="359" y="613"/>
			<point x="492" y="613" type="curve" smooth="yes"/>
			<point x="583" y="613"/>
			<point x="609" y="577"/>
			<point x="586" y="526" type="curve" smooth="yes"/>
			<point x="564" y="478" type="line"/>
			<point x="588" y="451"/>
			<point x="636" y="430"/>
			<point x="672" y="430" type="curve" smooth="yes"/>
			<point x="721" y="430"/>
			<point x="766" y="471"/>
			<point x="766" y="533" type="curve" smooth="yes"/>
			<point x="766" y="640"/>
			<point x="656" y="715"/>
			<point x="480" y="715" type="curve" smooth="yes"/>
			<point x="218" y="715"/>
			<point x="58" y="572"/>
			<point x="58" y="315" type="curve" smooth="yes"/>
			<point x="58" y="98"/>
			<point x="196" y="-14"/>
			<point x="430" y="-14" type="curve" smooth="yes"/>
			<point x="555" y="-14"/>
			<point x="697" y="32"/>
			<point x="755" y="79" type="curve"/>
		</contour>
	</outline>
	<anchor name="bottom" x="439" y="-30"/>
	<anchor name="top" x="456" y="730"/>
</glyph>
<glyph name="H" format="2">
	<unicode hex="0048"/>
	<advance width="909"/>
	<outline>
		<contour>
			<point x="573" y="299" type="line"/>
			<point x="561" y="104" type="line"/>
			<point x="487" y="92" type="line"/>
			<point x="481" y="0" type="line"/>
			<point x="882" y="0" type="line"/>
			<point x="888" y="94" type="line"/>
			<point x="790" y="107" type="line"/>
			<point x="815" y="595" type="line"/>
			<point x="902" y="609" type="line"/>
			<point x="907" y="700" type="line"/>
			<point x="516" y="700" type="line"/>
			<point x="511" y="612" type="line"/>
			<point x="586" y="595" type="line"/>
			<point x="577" y="408" type="line"/>
			<point x="363" y="408" type="line"/>
			<point x="372" y="598" type="line"/>
			<point x="449" y="612" type="line"/>
			<point x="453" y="700" type="line"/>
			<point x="60" y="700" type="line"/>
			<point x="54" y="614" type="line"/>
			<point x="143" y="597" type="line"/>
			<point x="119" y="102" type="line"/>
			<point x="34" y="91" type="line"/>
			<point x="28" y="0" type="line"/>
			<point x="421" y="0" type="line"/>
			<point x="427" y="92" type="line"/>
			<point x="348" y="107" type="line"/>
			<point x="358" y="299" type="line"/>
		</contour>
	</outline>
	<anchor name="bottom" x="448" y="-30"/>
	<anchor name="top" x="485" y="730"/>
</glyph>
<glyph name="K" format="2">
	<unicode hex="004B"/>
	<advance width="883"/>
	<outline>
		<contour>
			<point x="698" y="-14" type="curve" smooth="yes"/>
			<point x="764" y="-14"/>
			<point x="827" y="13"/>
			<point x="870" y="40" type="curve"/>
			<point x="847" y="130" type="line"/>
			<point x="832" y="126"/>
			<point x="814" y="120"/>
			<point x="795" y="120" type="curve" smooth="yes"/>
			<point x="757" y="120"/>
			<point x="744" y="141"/>
			<point x="700" y="258" type="curve" smooth="yes"/>
			<point x="666" y="349"/>
			<point x="612" y="369"/>
			<point x="503" y="378" type="curve"/>
			<point x="503" y="384" type="line"/>
			<point x="779" y="597" type="line"/>
			<point x="856" y="612" type="line"/>
			<point x="863" y="700" type="line"/>
			<point x="560" y="700" type="line"/>
			<point x="544" y="612" type="line"/>
			<point x="632" y="598" type="line"/>
			<point x="387" y="400" type="line"/>
			<point x="384" y="320" type="line"/>
			<point x="441" y="311"/>
			<point x="458" y="297"/>
			<point x="490" y="191" type="curve" smooth="yes"/>
			<point x="538" y="35"/>
			<point x="575" y="-14"/>
		</contour>
		<contour>
			<point x="28" y="0" type="line"/>
			<point x="439" y="0" type="line"/>
			<point x="445" y="93" type="line"/>
			<point x="348" y="106" type="line"/>
			<point x="371" y="595" type="line"/>
			<point x="456" y="612" type="line"/>
			<point x="463" y="700" type="line"/>
			<point x="59" y="700" type="line"/>
			<point x="54" y="612" type="line"/>
			<point x="143" y="595" type="line"/>
			<point x="119" y="106" type="line"/>
			<point x="34" y="93" type="line"/>
		</contour>
	</outline>
	<anchor name="bottom" x="443" y="-30"/>
	<anchor name="top" x="475" y="730"/>
</glyph>
<glyph name="L" format="2">
	<unicode hex="004C"/>
	<advance width="720"/>
	<outline>
		<contour>
			<point x="34" y="92" type="line"/>
			<point x="28" y="0" type="line"/>
			<point x="662" y="0" type="line"/>
			<point x="690" y="238" type="line"/>
			<point x="580" y="238" type="line"/>
			<point x="560" y="177" type="line" smooth="yes"/>
			<point x="537" y="106"/>
			<point x="487" y="105"/>
			<point x="441" y="105" type="curve" smooth="yes"/>
			<point x="349" y="105" type="line"/>
			<point x="373" y="594" type="line"/>
			<point x="486" y="613" type="line"/>
			<point x="492" y="700" type="line"/>
			<point x="61" y="700" type="line"/>
			<point x="54" y="613" type="line"/>
			<point x="144" y="596" type="line"/>
			<point x="120" y="103" type="line"/>
		</contour>
	</outline>
	<anchor name="bottom" x="347" y="-33"/>
	<anchor name="top" x="263" y="730"/>
</glyph>
<glyph name="O" format="2">
	<unicode hex="004F"/>
	<advance width="870"/>
	<outline>
		<contour>
			<point x="58" y="328" type="curve" smooth="yes"/>
			<point x="54" y="120"/>
			<point x="172" y="-16"/>
			<point x="414" y="-16" type="curve" smooth="yes"/>
			<point x="679" y="-16"/>
			<point x="826" y="141"/>
			<point x="831" y="382" type="curve" smooth="yes"/>
			<point x="835" y="586"/>
			<point x="719" y="717"/>
			<point x="471" y="717" type="curve" smooth="yes"/>
			<point x="207" y="717"/>
			<point x="63" y="567"/>
		</contour>
		<contour>
			<point x="293" y="350" type="curve" smooth="yes"/>
			<point x="297" y="511"/>
			<point x="349" y="607"/>
			<point x="454" y="607" type="curve" smooth="yes"/>
			<point x="568" y="607"/>
			<point x="597" y="514"/>
			<point x="592" y="361" type="curve" smooth="yes"/>
			<point x="586" y="190"/>
			<point x="550" y="100"/>
			<point x="431" y="100" type="curve" smooth="yes"/>
			<point x="318" y="100"/>
			<point x="289" y="192"/>
		</contour>
	</outline>
	<anchor name="bottom" x="430" y="-30"/>
	<anchor name="top" x="460" y="730"/>
</glyph>
<glyph name="P" format="2">
	<unicode hex="0050"/>
	<advance width="793"/>
	<outline>
		<contour>
			<point x="401" y="354" type="curve"/>
			<point x="398" y="261" type="line"/>
			<point x="420" y="259"/>
			<point x="447" y="258"/>
			<point x="476" y="258" type="curve" smooth="yes"/>
			<point x="650" y="258"/>
			<point x="776" y="368"/>
			<point x="776" y="500" type="curve" smooth="yes"/>
			<point x="776" y="627"/>
			<point x="676" y="700"/>
			<point x="500" y="700" type="curve" smooth="yes"/>
			<point x="67" y="700" type="line"/>
			<point x="61" y="609" type="line"/>
			<point x="153" y="592" type="line"/>
			<point x="128" y="107" type="line"/>
			<point x="34" y="91" type="line"/>
			<point x="28" y="0" type="line"/>
			<point x="475" y="0" type="line"/>
			<point x="480" y="93" type="line"/>
			<point x="357" y="107" type="line"/>
			<point x="383" y="600" type="line"/>
			<point x="410" y="600" type="line" smooth="yes"/>
			<point x="486" y="600"/>
			<point x="539" y="577"/>
			<point x="539" y="487" type="curve" smooth="yes"/>
			<point x="539" y="399"/>
			<point x="497" y="353"/>
			<point x="432" y="353" type="curve" smooth="yes"/>
			<point x="416" y="353"/>
			<point x="412" y="353"/>
		</contour>
	</outline>
</glyph>
<glyph name="Q" format="2">
	<unicode hex="0051"/>
	<advance width="867"/>
	<outline>
		<contour>
			<point x="59" y="349" type="curve" smooth="yes"/>
			<point x="59" y="178"/>
			<point x="175" y="75"/>
			<point x="326" y="43" type="curve"/>
			<point x="326" y="32" type="line"/>
			<point x="291" y="25"/>
			<point x="248" y="8"/>
			<point x="212" y="-8" type="curve"/>
			<point x="251" y="-84" type="line"/>
			<point x="313" y="-57"/>
			<point x="345" y="-50"/>
			<point x="377" y="-50" type="curve" smooth="yes"/>
			<point x="420" y="-50"/>
			<point x="456" y="-75"/>
			<point x="528" y="-124" type="curve" smooth="yes"/>
			<point x="614" y="-183"/>
			<point x="677" y="-209"/>
			<point x="743" y="-209" type="curve" smooth="yes"/>
			<point x="831" y="-209"/>
			<point x="869" y="-156"/>
			<point x="869" y="-106" type="curve" smooth="yes"/>
			<point x="869" y="-44"/>
			<point x="828" y="0"/>
			<point x="730" y="-5" type="curve"/>
			<point x="719" y="-46" type="line" smooth="yes"/>
			<point x="712" y="-72"/>
			<point x="687" y="-72"/>
			<point x="603" y="-26" type="curve" smooth="yes"/>
			<point x="547" y="5"/>
			<point x="511" y="16"/>
			<point x="446" y="16" type="curve"/>
			<point x="446" y="28" type="line"/>
			<point x="675" y="34"/>
			<point x="825" y="187"/>
			<point x="825" y="401" type="curve" smooth="yes"/>
			<point x="825" y="607"/>
			<point x="702" y="715"/>
			<point x="467" y="715" type="curve" smooth="yes"/>
			<point x="211" y="715"/>
			<point x="59" y="582"/>
		</contour>
		<contour>
			<point x="292" y="355" type="curve" smooth="yes"/>
			<point x="292" y="512"/>
			<point x="345" y="610"/>
			<point x="451" y="610" type="curve" smooth="yes"/>
			<point x="557" y="610"/>
			<point x="590" y="526"/>
			<point x="590" y="391" type="curve" smooth="yes"/>
			<point x="590" y="200"/>
			<point x="530" y="135"/>
			<point x="434" y="135" type="curve" smooth="yes"/>
			<point x="324" y="135"/>
			<point x="292" y="214"/>
		</contour>
	</outline>
</glyph>
<glyph name="R" format="2">
	<unicode hex="0052"/>
	<advance width="865"/>
	<outline>
		<contour>
			<point x="393" y="390" type="curve"/>
			<point x="389" y="306" type="line"/>
			<point x="428" y="301"/>
			<point x="438" y="274"/>
			<point x="468" y="197" type="curve" smooth="yes"/>
			<point x="502" y="108" type="line" smooth="yes"/>
			<point x="540" y="8"/>
			<point x="598" y="-14"/>
			<point x="692" y="-14" type="curve" smooth="yes"/>
			<point x="747" y="-14"/>
			<point x="817" y="11"/>
			<point x="854" y="44" type="curve"/>
			<point x="831" y="131" type="line"/>
			<point x="815" y="125"/>
			<point x="800" y="120"/>
			<point x="782" y="120" type="curve" smooth="yes"/>
			<point x="751" y="120"/>
			<point x="733" y="132"/>
			<point x="717" y="161" type="curve" smooth="yes"/>
			<point x="670" y="248" type="line" smooth="yes"/>
			<point x="639" y="305"/>
			<point x="606" y="332"/>
			<point x="512" y="344" type="curve"/>
			<point x="512" y="349" type="line"/>
			<point x="671" y="358"/>
			<point x="766" y="428"/>
			<point x="766" y="527" type="curve" smooth="yes"/>
			<point x="766" y="640"/>
			<point x="665" y="700"/>
			<point x="470" y="700" type="curve" smooth="yes"/>
			<point x="67" y="700" type="line"/>
			<point x="61" y="612" type="line"/>
			<point x="151" y="595" type="line"/>
			<point x="127" y="109" type="line"/>
			<point x="34" y="95" type="line"/>
			<point x="28" y="0" type="line"/>
			<point x="437" y="0" type="line"/>
			<point x="443" y="93" type="line"/>
			<point x="356" y="107" type="line"/>
			<point x="376" y="605" type="line"/>
			<point x="401" y="605" type="line" smooth="yes"/>
			<point x="484" y="605"/>
			<point x="528" y="576"/>
			<point x="528" y="521" type="curve" smooth="yes"/>
			<point x="528" y="441"/>
			<point x="484" y="403"/>
		</contour>
	</outline>
	<anchor name="bottom" x="438" y="-29"/>
	<anchor name="top" x="417" y="730"/>
</glyph>
<glyph name="T" format="2">
	<unicode hex="0054"/>
	<advance width="788"/>
	<outline>
		<contour>
			<point x="169" y="94" type="line"/>
			<point x="162" y="0" type="line"/>
			<point x="618" y="0" type="line"/>
			<point x="624" y="94" type="line"/>
			<point x="508" y="106" type="line"/>
			<point x="534" y="606" type="line"/>
			<point x="563" y="606" type="line" smooth="yes"/>
			<point x="617" y="606"/>
			<point x="632" y="589"/>
			<point x="647" y="537" type="curve" smooth="yes"/>
			<point x="670" y="458" type="line"/>
			<point x="780" y="468" type="line"/>
			<point x="756" y="700" type="line"/>
			<point x="72" y="700" type="line"/>
			<point x="39" y="469" type="line"/>
			<point x="153" y="458" type="line"/>
			<point x="177" y="537" type="line" smooth="yes"/>
			<point x="193" y="590"/>
			<point x="210" y="606"/>
			<point x="265" y="606" type="curve" smooth="yes"/>
			<point x="306" y="606" type="line"/>
			<point x="280" y="107" type="line"/>
		</contour>
	</outline>
	<anchor name="bottom" x="383" y="-30"/>
	<anchor name="top" x="420" y="730"/>
</glyph>
<glyph name="U" format="2">
	<unicode hex="0055"/>
	<advance width="920"/>
	<outline>
		<contour>
			<point x="797" y="106" type="line"/>
			<point x="825" y="594" type="line"/>
			<point x="898" y="611" type="line"/>
			<point x="908" y="700" type="line"/>
			<point x="536" y="700" type="line"/>
			<point x="526" y="611" type="line"/>
			<point x="599" y="594" type="line"/>
			<point x="596" y="570" type="line" smooth="yes"/>
			<point x="572" y="380"/>
			<point x="484" y="131"/>
			<point x="383" y="131" type="curve" smooth="yes"/>
			<point x="332" y="131"/>
			<point x="328" y="153"/>
			<point x="332" y="230" type="curve" smooth="yes"/>
			<point x="352" y="594" type="line"/>
			<point x="438" y="611" type="line"/>
			<point x="448" y="700" type="line"/>
			<point x="59" y="700" type="line"/>
			<point x="49" y="611" type="line"/>
			<point x="127" y="596" type="line"/>
			<point x="106" y="244" type="line" smooth="yes"/>
			<point x="96" y="78"/>
			<point x="145" y="-14"/>
			<point x="311" y="-14" type="curve" smooth="yes"/>
			<point x="481" y="-14"/>
			<point x="558" y="99"/>
			<point x="636" y="391" type="curve"/>
			<point x="642" y="391" type="line"/>
			<point x="598" y="12" type="line"/>
			<point x="605" y="0" type="line"/>
			<point x="876" y="0" type="line"/>
			<point x="884" y="93" type="line"/>
		</contour>
	</outline>
	<anchor name="bottom" x="444" y="-30"/>
	<anchor name="top" x="487" y="730"/>
</glyph>
<glyph name="V" format="2">
	<unicode hex="0056"/>
	<advance width="834"/>
	<outline>
		<contour>
			<point x="471" y="161" type="line"/>
			<point x="336" y="597" type="line"/>
			<point x="431" y="610" type="line"/>
			<point x="437" y="700" type="line"/>
			<point x="29" y="700" type="line"/>
			<point x="22" y="610" type="line"/>
			<point x="95" y="595" type="line"/>
			<point x="310" y="-19" type="line"/>
			<point x="522" y="-4" type="line"/>
			<point x="771" y="592" type="line"/>
			<point x="855" y="609" type="line"/>
			<point x="863" y="700" type="line"/>
			<point x="572" y="700" type="line"/>
			<point x="566" y="613" type="line"/>
			<point x="656" y="595" type="line"/>
			<point x="475" y="161" type="line"/>
		</contour>
	</outline>
	<anchor name="top" x="493" y="730"/>
</glyph>
<glyph name="Y" format="2">
	<unicode hex="0059"/>
	<advance width="804"/>
	<outline>
		<contour>
			<point x="454" y="366" type="line"/>
			<point x="319" y="597" type="line"/>
			<point x="416" y="610" type="line"/>
			<point x="422" y="700" type="line"/>
			<point x="28" y="700" type="line"/>
			<point x="21" y="609" type="line"/>
			<point x="86" y="595" type="line"/>
			<point x="286" y="267" type="line"/>
			<point x="275" y="106" type="line"/>
			<point x="183" y="93" type="line"/>
			<point x="176" y="0" type="line"/>
			<point x="596" y="0" type="line"/>
			<point x="602" y="93" type="line"/>
			<point x="504" y="106" type="line"/>
			<point x="512" y="259" type="line"/>
			<point x="741" y="592" type="line"/>
			<point x="825" y="609" type="line"/>
			<point x="832" y="700" type="line"/>
			<point x="538" y="700" type="line"/>
			<point x="532" y="613" type="line"/>
			<point x="620" y="595" type="line"/>
			<point x="459" y="366" type="line"/>
		</contour>
	</outline>
	<anchor name="bottom" x="388" y="-30"/>
	<anchor name="top" x="458" y="730"/>
</glyph>
<glyph name="bracketleft" format="2">
	<unicode hex="005B"/>
	<advance width="462"/>
	<outline>
		<contour>
			<point x="292" y="-104" type="line"/>
			<point x="330" y="708" type="line"/>
			<point x="439" y="717" type="line"/>
			<point x="445" y="812" type="line"/>
			<point x="129" y="812" type="line"/>
			<point x="82" y="-212" type="line"/>
			<point x="395" y="-212" type="line"/>
			<point x="408" y="-118" type="line"/>
		</contour>
	</outline>
</glyph>
<glyph name="asciicircum" format="2">
	<unicode hex="005E"/>
	<advance width="701"/>
	<outline>
		<contour>
			<point x="657" y="369" type="line"/>
			<point x="433" y="712" type="line"/>
			<point x="326" y="712" type="line"/>
			<point x="61" y="369" type="line"/>
			<point x="182" y="294" type="line"/>
			<point x="368" y="535" type="line"/>
			<point x="529" y="294" type="line"/>
		</contour>
	</outline>
</glyph>
<glyph name="underscore" format="2">
	<unicode hex="005F"/>
	<advance width="532"/>
	<outline>
		<contour>
			<point x="1" y="-123" type="line"/>
			<point x="502" y="-123" type="line"/>
			<point x="506" y="-23" type="line"/>
			<point x="5" y="-23" type="line"/>
		</contour>
	</outline>
</glyph>
<glyph name="a" format="2">
	<unicode hex="0061"/>
	<advance width="751"/>
	<outline>
		<contour>
			<point x="651" y="147" type="curve" smooth="yes"/>
			<point x="664" y="519" type="line"/>
			<point x="616" y="539" type="line"/>
			<point x="502" y="511" type="line"/>
			<point x="461" y="530"/>
			<point x="403" y="541"/>
			<point x="348" y="541" type="curve" smooth="yes"/>
			<point x="160" y="541"/>
			<point x="43" y="408"/>
			<point x="43" y="196" type="curve" smooth="yes"/>
			<point x="43" y="63"/>
			<point x="114" y="-14"/>
			<point x="236" y="-14" type="curve" smooth="yes"/>
			<point x="346" y="-14"/>
			<point x="397" y="37"/>
			<point x="442" y="193" type="curve" smooth="yes"/>
			<point x="471" y="293" type="line"/>
			<point x="484" y="291" type="line"/>
			<point x="459" y="112" type="line" smooth="yes"/>
			<point x="448" y="33"/>
			<point x="493" y="-14"/>
			<point x="581" y="-14" type="curve" smooth="yes"/>
			<point x="635" y="-14"/>
			<point x="713" y="9"/>
			<point x="748" y="35" type="curve"/>
			<point x="727" y="113" type="line"/>
			<point x="713" y="108"/>
			<point x="691" y="103"/>
			<point x="680" y="103" type="curve" smooth="yes"/>
			<point x="657" y="103"/>
			<point x="650" y="114"/>
		</contour>
		<contour>
			<point x="299" y="90" type="curve" smooth="yes"/>
			<point x="270" y="90"/>
			<point x="258" y="114"/>
			<point x="258" y="172" type="curve" smooth="yes"/>
			<point x="258" y="354"/>
			<point x="303" y="454"/>
			<point x="384" y="454" type="curve" smooth="yes"/>
			<point x="400" y="454"/>
			<point x="423" y="450"/>
			<point x="436" y="445" type="curve"/>
			<point x="385" y="262" type="line" smooth="yes"/>
			<point x="347" y="126"/>
			<point x="329" y="90"/>
		</contour>
	</outline>
	<anchor name="bottom" x="356" y="-31"/>
	<anchor name="top" x="379" y="561"/>
</glyph>
<glyph name="h" format="2">
	<unicode hex="0068"/>
	<advance width="735"/>
	<outline>
		<contour>
			<point x="732" y="32" type="curve"/>
			<point x="707" y="110" type="line"/>
			<point x="693" y="105"/>
			<point x="682" y="100"/>
			<point x="663" y="100" type="curve" smooth="yes"/>
			<point x="635" y="100"/>
			<point x="637" y="121"/>
			<point x="639" y="144" type="curve" smooth="yes"/>
			<point x="659" y="378" type="line" smooth="yes"/>
			<point x="668" y="481"/>
			<point x="623" y="541"/>
			<point x="508" y="541" type="curve" smooth="yes"/>
			<point x="380" y="541"/>
			<point x="344" y="462"/>
			<point x="319" y="372" type="curve" smooth="yes"/>
			<point x="254" y="138" type="line"/>
			<point x="243" y="140" type="line"/>
			<point x="276" y="417" type="line"/>
			<point x="292" y="743" type="line"/>
			<point x="269" y="767" type="line"/>
			<point x="20" y="767" type="line"/>
			<point x="9" y="679" type="line"/>
			<point x="97" y="665" type="line"/>
			<point x="71" y="0" type="line"/>
			<point x="295" y="0" type="line"/>
			<point x="391" y="317" type="line" smooth="yes"/>
			<point x="413" y="390"/>
			<point x="422" y="395"/>
			<point x="438" y="395" type="curve" smooth="yes"/>
			<point x="453" y="395"/>
			<point x="456" y="385"/>
			<point x="454" y="363" type="curve" smooth="yes"/>
			<point x="431" y="126" type="line" smooth="yes"/>
			<point x="424" y="54"/>
			<point x="447" y="-14"/>
			<point x="561" y="-14" type="curve" smooth="yes"/>
			<point x="613" y="-14"/>
			<point x="687" y="4"/>
		</contour>
	</outline>
	<anchor name="bottom" x="362" y="-31"/>
	<anchor name="top" x="161" y="796"/>
</glyph>
<glyph name="k" format="2">
	<unicode hex="006B"/>
	<advance width="691"/>
	<outline>
		<contour>
			<point x="99" y="663" type="line"/>
			<point x="67" y="0" type="line"/>
			<point x="275" y="0" type="line"/>
			<point x="286" y="254" type="line"/>
			<point x="293" y="254"/>
			<point x="299" y="255"/>
			<point x="304" y="256" type="curve"/>
			<point x="383" y="80" type="line" smooth="yes"/>
			<point x="409" y="23"/>
			<point x="452" y="-14"/>
			<point x="527" y="-14" type="curve" smooth="yes"/>
			<point x="601" y="-14"/>
			<point x="672" y="22"/>
			<point x="693" y="40" type="curve"/>
			<point x="665" y="112" type="line"/>
			<point x="649" y="105"/>
			<point x="637" y="102"/>
			<point x="626" y="102" type="curve" smooth="yes"/>
			<point x="604" y="102"/>
			<point x="588" y="115"/>
			<point x="560" y="166" type="curve" smooth="yes"/>
			<point x="480" y="313" type="line"/>
			<point x="503" y="323"/>
			<point x="512" y="327"/>
			<point x="540" y="342" type="curve" smooth="yes"/>
			<point x="596" y="372"/>
			<point x="636" y="398"/>
			<point x="636" y="460" type="curve" smooth="yes"/>
			<point x="636" y="505"/>
			<point x="601" y="542"/>
			<point x="549" y="542" type="curve" smooth="yes"/>
			<point x="491" y="542"/>
			<point x="451" y="508"/>
			<point x="444" y="453" type="curve"/>
			<point x="476" y="433" type="line" smooth="yes"/>
			<point x="497" y="420"/>
			<point x="489" y="404"/>
			<point x="446" y="382" type="curve" smooth="yes"/>
			<point x="394" y="355"/>
			<point x="348" y="342"/>
			<point x="291" y="328" type="curve"/>
			<point x="310" y="756" type="line"/>
			<point x="292" y="767" type="line"/>
			<point x="20" y="767" type="line"/>
			<point x="9" y="679" type="line"/>
		</contour>
	</outline>
	<anchor name="bottom" x="347" y="-30"/>
	<anchor name="top" x="182" y="796"/>
</glyph>
<glyph name="l" format="2">
	<unicode hex="006C"/>
	<advance width="383"/>
	<outline>
		<contour>
			<point x="101" y="662" type="line"/>
			<point x="78" y="111" type="line" smooth="yes"/>
			<point x="74" y="18"/>
			<point x="132" y="-14"/>
			<point x="216" y="-14" type="curve" smooth="yes"/>
			<point x="284" y="-14"/>
			<point x="362" y="17"/>
			<point x="385" y="32" type="curve"/>
			<point x="364" y="111" type="line"/>
			<point x="356" y="109"/>
			<point x="333" y="103"/>
			<point x="315" y="103" type="curve" smooth="yes"/>
			<point x="284" y="103"/>
			<point x="275" y="125"/>
			<point x="276" y="147" type="curve" smooth="yes"/>
			<point x="297" y="755" type="line"/>
			<point x="278" y="766" type="line"/>
			<point x="20" y="766" type="line"/>
			<point x="9" y="677" type="line"/>
		</contour>
	</outline>
	<anchor name="bottom" x="218" y="-31"/>
	<anchor name="top" x="162" y="796"/>
</glyph>
<glyph name="n" format="2">
	<unicode hex="006E"/>
	<advance width="745"/>
	<outline>
		<contour>
			<point x="742" y="32" type="curve"/>
			<point x="719" y="109" type="line"/>
			<point x="709" y="105"/>
			<point x="690" y="100"/>
			<point x="677" y="100" type="curve" smooth="yes"/>
			<point x="656" y="100"/>
			<point x="648" y="110"/>
			<point x="651" y="144" type="curve" smooth="yes"/>
			<point x="671" y="398" type="line" smooth="yes"/>
			<point x="678" y="483"/>
			<point x="624" y="541"/>
			<point x="524" y="541" type="curve" smooth="yes"/>
			<point x="408" y="541"/>
			<point x="364" y="484"/>
			<point x="337" y="389" type="curve" smooth="yes"/>
			<point x="266" y="138" type="line"/>
			<point x="254" y="141" type="line"/>
			<point x="291" y="431" type="line" smooth="yes"/>
			<point x="300" y="502"/>
			<point x="260" y="541"/>
			<point x="181" y="541" type="curve" smooth="yes"/>
			<point x="111" y="541"/>
			<point x="27" y="514"/>
			<point x="3" y="502" type="curve"/>
			<point x="29" y="416" type="line"/>
			<point x="50" y="423"/>
			<point x="65" y="428"/>
			<point x="78" y="428" type="curve" smooth="yes"/>
			<point x="93" y="428"/>
			<point x="101" y="418"/>
			<point x="100" y="397" type="curve" smooth="yes"/>
			<point x="83" y="0" type="line"/>
			<point x="307" y="0" type="line"/>
			<point x="402" y="315" type="line" smooth="yes"/>
			<point x="421" y="379"/>
			<point x="427" y="395"/>
			<point x="449" y="395" type="curve" smooth="yes"/>
			<point x="462" y="395"/>
			<point x="468" y="388"/>
			<point x="466" y="367" type="curve" smooth="yes"/>
			<point x="440" y="103" type="line" smooth="yes"/>
			<point x="433" y="29"/>
			<point x="473" y="-14"/>
			<point x="560" y="-14" type="curve" smooth="yes"/>
			<point x="618" y="-14"/>
			<point x="711" y="10"/>
		</contour>
	</outline>
	<anchor name="bottom" x="363" y="-31"/>
	<anchor name="top" x="390" y="561"/>
</glyph>
<glyph name="q" format="2">
	<unicode hex="0071"/>
	<advance width="716"/>
	<outline>
		<contour>
			<point x="638" y="-82" type="curve" smooth="yes"/>
			<point x="663" y="519" type="line"/>
			<point x="613" y="539" type="line"/>
			<point x="503" y="511" type="line"/>
			<point x="455" y="536"/>
			<point x="384" y="541"/>
			<point x="345" y="541" type="curve" smooth="yes"/>
			<point x="171" y="541"/>
			<point x="43" y="417"/>
			<point x="43" y="212" type="curve" smooth="yes"/>
			<point x="43" y="82"/>
			<point x="109" y="-14"/>
			<point x="229" y="-14" type="curve" smooth="yes"/>
			<point x="361" y="-14"/>
			<point x="396" y="47"/>
			<point x="438" y="183" type="curve" smooth="yes"/>
			<point x="472" y="292" type="line"/>
			<point x="484" y="291" type="line"/>
			<point x="461" y="127" type="line"/>
			<point x="443" y="-118" type="line" smooth="yes"/>
			<point x="438" y="-189"/>
			<point x="471" y="-239"/>
			<point x="566" y="-239" type="curve" smooth="yes"/>
			<point x="636" y="-239"/>
			<point x="707" y="-213"/>
			<point x="735" y="-191" type="curve"/>
			<point x="713" y="-114" type="line"/>
			<point x="703" y="-117"/>
			<point x="682" y="-123"/>
			<point x="663" y="-123" type="curve" smooth="yes"/>
			<point x="641" y="-123"/>
			<point x="637" y="-107"/>
		</contour>
		<contour>
			<point x="298" y="90" type="curve" smooth="yes"/>
			<point x="267" y="90"/>
			<point x="257" y="106"/>
			<point x="257" y="190" type="curve" smooth="yes"/>
			<point x="257" y="331"/>
			<point x="288" y="455"/>
			<point x="380" y="455" type="curve" smooth="yes"/>
			<point x="410" y="455"/>
			<point x="421" y="450"/>
			<point x="437" y="445" type="curve"/>
			<point x="401" y="323" type="line" smooth="yes"/>
			<point x="353" y="160"/>
			<point x="337" y="90"/>
		</contour>
	</outline>
</glyph>
<glyph name="r" format="2">
	<unicode hex="0072"/>
	<advance width="629"/>
	<outline>
		<contour>
			<point x="98" y="389" type="curve" smooth="yes"/>
			<point x="84" y="0" type="line"/>
			<point x="283" y="0" type="line"/>
			<point x="291" y="63" type="line" smooth="yes"/>
			<point x="296" y="101"/>
			<point x="302" y="137"/>
			<point x="344" y="226" type="curve" smooth="yes"/>
			<point x="415" y="377"/>
			<point x="423" y="394"/>
			<point x="445" y="394" type="curve" smooth="yes"/>
			<point x="463" y="394"/>
			<point x="472" y="384"/>
			<point x="490" y="359" type="curve" smooth="yes"/>
			<point x="510" y="331" type="line"/>
			<point x="579" y="356"/>
			<point x="601" y="405"/>
			<point x="601" y="445" type="curve" smooth="yes"/>
			<point x="601" y="490"/>
			<point x="567" y="541"/>
			<point x="489" y="541" type="curve" smooth="yes"/>
			<point x="394" y="541"/>
			<point x="358" y="479"/>
			<point x="322" y="377" type="curve" smooth="yes"/>
			<point x="276" y="247" type="line"/>
			<point x="267" y="248" type="line"/>
			<point x="290" y="423" type="line" smooth="yes"/>
			<point x="299" y="493"/>
			<point x="259" y="541"/>
			<point x="189" y="541" type="curve" smooth="yes"/>
			<point x="134" y="541"/>
			<point x="61" y="524"/>
			<point x="3" y="497" type="curve"/>
			<point x="27" y="411" type="line"/>
			<point x="43" y="416"/>
			<point x="61" y="422"/>
			<point x="76" y="422" type="curve" smooth="yes"/>
			<point x="100" y="422"/>
			<point x="98" y="401"/>
		</contour>
	</outline>
	<anchor name="bottom" x="179" y="-31"/>
	<anchor name="top" x="313" y="561"/>
</glyph>
<glyph name="s" format="2">
	<unicode hex="0073"/>
	<advance width="594"/>
	<outline>
		<contour>
			<point x="291" y="62" type="curve" smooth="yes"/>
			<point x="219" y="62"/>
			<point x="207" y="81"/>
			<point x="206" y="117" type="curve" smooth="yes"/>
			<point x="205" y="151" type="line"/>
			<point x="193" y="158"/>
			<point x="163" y="166"/>
			<point x="129" y="166" type="curve" smooth="yes"/>
			<point x="83" y="166"/>
			<point x="42" y="141"/>
			<point x="42" y="89" type="curve" smooth="yes"/>
			<point x="42" y="12"/>
			<point x="152" y="-14"/>
			<point x="271" y="-14" type="curve" smooth="yes"/>
			<point x="440" y="-14"/>
			<point x="555" y="57"/>
			<point x="555" y="187" type="curve" smooth="yes"/>
			<point x="555" y="306"/>
			<point x="442" y="333"/>
			<point x="345" y="357" type="curve" smooth="yes"/>
			<point x="265" y="377"/>
			<point x="234" y="391"/>
			<point x="235" y="419" type="curve" smooth="yes"/>
			<point x="236" y="448"/>
			<point x="266" y="467"/>
			<point x="328" y="467" type="curve" smooth="yes"/>
			<point x="395" y="467"/>
			<point x="411" y="445"/>
			<point x="399" y="400" type="curve" smooth="yes"/>
			<point x="394" y="381" type="line"/>
			<point x="408" y="368"/>
			<point x="449" y="354"/>
			<point x="483" y="354" type="curve" smooth="yes"/>
			<point x="523" y="354"/>
			<point x="557" y="380"/>
			<point x="557" y="421" type="curve" smooth="yes"/>
			<point x="557" y="509"/>
			<point x="447" y="544"/>
			<point x="338" y="544" type="curve" smooth="yes"/>
			<point x="133" y="544"/>
			<point x="56" y="453"/>
			<point x="56" y="355" type="curve" smooth="yes"/>
			<point x="56" y="230"/>
			<point x="156" y="199"/>
			<point x="270" y="171" type="curve" smooth="yes"/>
			<point x="348" y="152"/>
			<point x="380" y="137"/>
			<point x="380" y="106" type="curve" smooth="yes"/>
			<point x="380" y="75"/>
			<point x="341" y="62"/>
		</contour>
	</outline>
	<anchor name="bottom" x="275" y="-31"/>
	<anchor name="top" x="306" y="561"/>
</glyph>
<glyph name="t" format="2">
	<unicode hex="0074"/>
	<advance width="493"/>
	<outline>
		<contour>
			<point x="24" y="521" type="line"/>
			<point x="16" y="435" type="line"/>
			<point x="103" y="435" type="line"/>
			<point x="87" y="143" type="line" smooth="yes"/>
			<point x="81" y="41"/>
			<point x="144" y="-14"/>
			<point x="260" y="-14" type="curve" smooth="yes"/>
			<point x="356" y="-14"/>
			<point x="444" y="26"/>
			<point x="490" y="75" type="curve"/>
			<point x="442" y="150" type="line"/>
			<point x="410" y="129"/>
			<point x="381" y="116"/>
			<point x="348" y="116" type="curve" smooth="yes"/>
			<point x="302" y="116"/>
			<point x="294" y="144"/>
			<point x="297" y="190" type="curve" smooth="yes"/>
			<point x="311" y="435" type="line"/>
			<point x="444" y="435" type="line"/>
			<point x="448" y="527" type="line"/>
			<point x="314" y="527" type="line"/>
			<point x="322" y="687" type="line"/>
			<point x="176" y="687" type="line"/>
			<point x="110" y="529" type="line"/>
		</contour>
	</outline>
	<anchor name="bottom" x="251" y="-31"/>
</glyph>
<glyph name="u" format="2">
	<unicode hex="0075"/>
	<advance width="735"/>
	<outline>
		<contour>
			<point x="8" y="495" type="curve"/>
			<point x="31" y="418" type="line"/>
			<point x="47" y="424"/>
			<point x="60" y="427"/>
			<point x="73" y="427" type="curve" smooth="yes"/>
			<point x="92" y="427"/>
			<point x="102" y="420"/>
			<point x="100" y="391" type="curve" smooth="yes"/>
			<point x="80" y="129" type="line" smooth="yes"/>
			<point x="73" y="44"/>
			<point x="130" y="-14"/>
			<point x="223" y="-14" type="curve" smooth="yes"/>
			<point x="313" y="-14"/>
			<point x="370" y="25"/>
			<point x="404" y="133" type="curve" smooth="yes"/>
			<point x="485" y="389" type="line"/>
			<point x="497" y="386" type="line"/>
			<point x="455" y="116" type="line" smooth="yes"/>
			<point x="442" y="29"/>
			<point x="490" y="-14"/>
			<point x="574" y="-14" type="curve" smooth="yes"/>
			<point x="627" y="-14"/>
			<point x="697" y="8"/>
			<point x="736" y="31" type="curve"/>
			<point x="713" y="110" type="line"/>
			<point x="699" y="104"/>
			<point x="680" y="99"/>
			<point x="664" y="99" type="curve" smooth="yes"/>
			<point x="648" y="99"/>
			<point x="642" y="113"/>
			<point x="643" y="130" type="curve" smooth="yes"/>
			<point x="667" y="527" type="line"/>
			<point x="444" y="527" type="line"/>
			<point x="339" y="204" type="line" smooth="yes"/>
			<point x="322" y="152"/>
			<point x="315" y="133"/>
			<point x="299" y="133" type="curve" smooth="yes"/>
			<point x="282" y="133"/>
			<point x="280" y="142"/>
			<point x="282" y="164" type="curve" smooth="yes"/>
			<point x="310" y="425" type="line" smooth="yes"/>
			<point x="318" y="501"/>
			<point x="276" y="541"/>
			<point x="195" y="541" type="curve" smooth="yes"/>
			<point x="140" y="541"/>
			<point x="48" y="515"/>
		</contour>
	</outline>
	<anchor name="bottom" x="371" y="-31"/>
	<anchor name="top" x="357" y="561"/>
</glyph>
<glyph name="y" format="2">
	<unicode hex="0079"/>
	<advance width="639"/>
	<outline>
		<contour>
			<point x="384" y="-58" type="curve" smooth="yes"/>
			<point x="528" y="230" type="line" smooth="yes"/>
			<point x="574" y="322"/>
			<point x="605" y="384"/>
			<point x="605" y="445" type="curve" smooth="yes"/>
			<point x="605" y="513"/>
			<point x="554" y="541"/>
			<point x="505" y="541" type="curve" smooth="yes"/>
			<point x="433" y="541"/>
			<point x="394" y="495"/>
			<point x="401" y="415" type="curve"/>
			<point x="435" y="407" type="line" smooth="yes"/>
			<point x="483" y="396"/>
			<point x="486" y="371"/>
			<point x="469" y="333" type="curve" smooth="yes"/>
			<point x="362" y="96" type="line"/>
			<point x="358" y="96" type="line" smooth="yes"/>
			<point x="347" y="96"/>
			<point x="339" y="98"/>
			<point x="331" y="117" type="curve" smooth="yes"/>
			<point x="299" y="195"/>
			<point x="294" y="262"/>
			<point x="294" y="343" type="curve" smooth="yes"/>
			<point x="294" y="394"/>
			<point x="297" y="422"/>
			<point x="297" y="448" type="curve" smooth="yes"/>
			<point x="297" y="499"/>
			<point x="258" y="541"/>
			<point x="177" y="541" type="curve" smooth="yes"/>
			<point x="112" y="541"/>
			<point x="34" y="518"/>
			<point x="-2" y="497" type="curve"/>
			<point x="23" y="412" type="line"/>
			<point x="39" y="417"/>
			<point x="53" y="422"/>
			<point x="68" y="422" type="curve" smooth="yes"/>
			<point x="84" y="422"/>
			<point x="91" y="413"/>
			<point x="91" y="390" type="curve" smooth="yes"/>
			<point x="91" y="370"/>
			<point x="90" y="351"/>
			<point x="90" y="331" type="curve" smooth="yes"/>
			<point x="90" y="206"/>
			<point x="109" y="120"/>
			<point x="149" y="61" type="curve" smooth="yes"/>
			<point x="187" y="5"/>
			<point x="227" y="0"/>
			<point x="284" y="0" type="curve" smooth="yes"/>
			<point x="314" y="0" type="line"/>
			<point x="263" y="-99" type="line" smooth="yes"/>
			<point x="250" y="-124"/>
			<point x="237" y="-138"/>
			<point x="213" y="-138" type="curve" smooth="yes"/>
			<point x="186" y="-138"/>
			<point x="177" y="-118"/>
			<point x="168" y="-88" type="curve" smooth="yes"/>
			<point x="156" y="-46" type="line"/>
			<point x="90" y="-50"/>
			<point x="36" y="-78"/>
			<point x="36" y="-141" type="curve" smooth="yes"/>
			<point x="36" y="-194"/>
			<point x="80" y="-237"/>
			<point x="166" y="-237" type="curve" smooth="yes"/>
			<point x="277" y="-237"/>
			<point x="331" y="-164"/>
		</contour>
	</outline>
	<anchor name="bottom" x="496" y="-31"/>
	<anchor name="top" x="339" y="561"/>
</glyph>
<glyph name="braceleft" format="2">
	<unicode hex="007B"/>
	<advance width="470"/>
	<outline>
		<contour>
			<point x="85" y="350" type="curve"/>
			<point x="85" y="256" type="line"/>
			<point x="130" y="256"/>
			<point x="174" y="252"/>
			<point x="174" y="188" type="curve" smooth="yes"/>
			<point x="174" y="94"/>
			<point x="141" y="-26"/>
			<point x="141" y="-110" type="curve" smooth="yes"/>
			<point x="141" y="-178"/>
			<point x="188" y="-230"/>
			<point x="290" y="-230" type="curve" smooth="yes"/>
			<point x="316" y="-230"/>
			<point x="378" y="-224"/>
			<point x="418" y="-211" type="curve"/>
			<point x="404" y="-119" type="line"/>
			<point x="395" y="-122"/>
			<point x="381" y="-124"/>
			<point x="368" y="-124" type="curve" smooth="yes"/>
			<point x="353" y="-124"/>
			<point x="337" y="-115"/>
			<point x="337" y="-89" type="curve" smooth="yes"/>
			<point x="337" y="-22"/>
			<point x="362" y="61"/>
			<point x="362" y="186" type="curve" smooth="yes"/>
			<point x="362" y="251"/>
			<point x="337" y="292"/>
			<point x="276" y="312" type="curve"/>
			<point x="323" y="325"/>
			<point x="370" y="357"/>
			<point x="370" y="434" type="curve" smooth="yes"/>
			<point x="370" y="469"/>
			<point x="361" y="539"/>
			<point x="358" y="658" type="curve" smooth="yes"/>
			<point x="357" y="702"/>
			<point x="365" y="716"/>
			<point x="397" y="716" type="curve" smooth="yes"/>
			<point x="409" y="716"/>
			<point x="423" y="714"/>
			<point x="435" y="709" type="curve"/>
			<point x="454" y="806" type="line"/>
			<point x="426" y="816"/>
			<point x="377" y="822"/>
			<point x="341" y="822" type="curve" smooth="yes"/>
			<point x="237" y="822"/>
			<point x="167" y="776"/>
			<point x="167" y="683" type="curve" smooth="yes"/>
			<point x="167" y="615"/>
			<point x="179" y="522"/>
			<point x="179" y="440" type="curve" smooth="yes"/>
			<point x="179" y="358"/>
			<point x="138" y="350"/>
		</contour>
	</outline>
</glyph>
<glyph name="braceright" format="2">
	<unicode hex="007D"/>
	<advance width="470"/>
	<outline>
		<contour>
			<point x="389" y="242" type="curve"/>
			<point x="389" y="336" type="line"/>
			<point x="339" y="336"/>
			<point x="301" y="340"/>
			<point x="301" y="404" type="curve" smooth="yes"/>
			<point x="301" y="498"/>
			<point x="334" y="618"/>
			<point x="334" y="702" type="curve" smooth="yes"/>
			<point x="334" y="770"/>
			<point x="287" y="822"/>
			<point x="185" y="822" type="curve" smooth="yes"/>
			<point x="154" y="822"/>
			<point x="99" y="816"/>
			<point x="59" y="803" type="curve"/>
			<point x="73" y="711" type="line"/>
			<point x="82" y="714"/>
			<point x="94" y="716"/>
			<point x="107" y="716" type="curve" smooth="yes"/>
			<point x="122" y="716"/>
			<point x="138" y="707"/>
			<point x="138" y="681" type="curve" smooth="yes"/>
			<point x="138" y="614"/>
			<point x="113" y="531"/>
			<point x="113" y="406" type="curve" smooth="yes"/>
			<point x="113" y="341"/>
			<point x="138" y="300"/>
			<point x="199" y="280" type="curve"/>
			<point x="152" y="267"/>
			<point x="105" y="235"/>
			<point x="105" y="158" type="curve" smooth="yes"/>
			<point x="105" y="123"/>
			<point x="114" y="53"/>
			<point x="117" y="-66" type="curve" smooth="yes"/>
			<point x="118" y="-110"/>
			<point x="105" y="-124"/>
			<point x="78" y="-124" type="curve" smooth="yes"/>
			<point x="66" y="-124"/>
			<point x="54" y="-122"/>
			<point x="42" y="-117" type="curve"/>
			<point x="23" y="-214" type="line"/>
			<point x="51" y="-224"/>
			<point x="94" y="-230"/>
			<point x="134" y="-230" type="curve" smooth="yes"/>
			<point x="238" y="-230"/>
			<point x="308" y="-184"/>
			<point x="308" y="-91" type="curve" smooth="yes"/>
			<point x="308" y="-23"/>
			<point x="296" y="70"/>
			<point x="296" y="152" type="curve" smooth="yes"/>
			<point x="296" y="234"/>
			<point x="331" y="242"/>
		</contour>
	</outline>
</glyph>
<glyph name="asciitilde" format="2">
	<unicode hex="007E"/>
	<advance width="644"/>
	<outline>
		<contour>
			<point x="445" y="244" type="curve" smooth="yes"/>
			<point x="514" y="244"/>
			<point x="577" y="297"/>
			<point x="591" y="423" type="curve"/>
			<point x="508" y="460" type="line"/>
			<point x="486" y="420"/>
			<point x="461" y="398"/>
			<point x="429" y="398" type="curve" smooth="yes"/>
			<point x="387" y="398"/>
			<point x="286" y="433"/>
			<point x="218" y="433" type="curve" smooth="yes"/>
			<point x="146" y="433"/>
			<point x="88" y="376"/>
			<point x="74" y="253" type="curve"/>
			<point x="157" y="217" type="line"/>
			<point x="182" y="253"/>
			<point x="206" y="276"/>
			<point x="235" y="276" type="curve" smooth="yes"/>
			<point x="280" y="276"/>
			<point x="374" y="244"/>
		</contour>
	</outline>
</glyph>
<glyph name="brokenbar" format="2">
	<unicode hex="00A6"/>
	<advance width="500"/>
	<outline>
		<contour>
			<point x="177" y="-110" type="line"/>
			<point x="318" y="-110" type="line"/>
			<point x="330" y="289" type="line"/>
			<point x="190" y="289" type="line"/>
		</contour>
		<contour>
			<point x="194" y="432" type="line"/>
			<point x="335" y="432" type="line"/>
			<point x="346" y="803" type="line"/>
			<point x="206" y="803" type="line"/>
		</contour>
	</outline>
</glyph>
<glyph name="dieresis" format="2">
	<unicode hex="00A8"/>
	<advance width="500"/>
	<outline>
		<contour>
			<point x="57" y="690" type="curve" smooth="yes"/>
			<point x="57" y="634"/>
			<point x="94" y="602"/>
			<point x="155" y="602" type="curve" smooth="yes"/>
			<point x="215" y="602"/>
			<point x="259" y="637"/>
			<point x="259" y="695" type="curve" smooth="yes"/>
			<point x="259" y="751"/>
			<point x="223" y="783"/>
			<point x="160" y="783" type="curve" smooth="yes"/>
			<point x="102" y="783"/>
			<point x="57" y="747"/>
		</contour>
		<contour>
			<point x="310" y="691" type="curve" smooth="yes"/>
			<point x="310" y="635"/>
			<point x="347" y="603"/>
			<point x="409" y="603" type="curve" smooth="yes"/>
			<point x="468" y="603"/>
			<point x="512" y="638"/>
			<point x="512" y="696" type="curve" smooth="yes"/>
			<point x="512" y="752"/>
			<point x="476" y="784"/>
			<point x="414" y="784" type="curve" smooth="yes"/>
			<point x="356" y="784"/>
			<point x="310" y="748"/>
		</contour>
	</outline>
	<anchor name="_top" x="268" y="550"/>
</glyph>
<glyph name="logicalnot" format="2">
	<unicode hex="00AC"/>
	<advance width="582"/>
	<outline>
		<contour>
			<point x="371" y="125" type="line"/>
			<point x="533" y="125" type="line"/>
			<point x="547" y="409" type="line"/>
			<point x="83" y="409" type="line"/>
			<point x="75" y="254" type="line"/>
			<point x="377" y="254" type="line"/>
		</contour>
	</outline>
</glyph>
<glyph name="twosuperior" format="2">
	<unicode hex="00B2"/>
	<advance width="502"/>
	<outline>
		<contour>
			<point x="242" y="767" type="curve" smooth="yes"/>
			<point x="292" y="767"/>
			<point x="317" y="746"/>
			<point x="317" y="719" type="curve" smooth="yes"/>
			<point x="317" y="680"/>
			<point x="283" y="642"/>
			<point x="53" y="482" type="curve"/>
			<point x="66" y="374" type="line"/>
			<point x="473" y="374" type="line"/>
			<point x="491" y="559" type="line"/>
			<point x="417" y="559" type="line"/>
			<point x="405" y="515"/>
			<point x="381" y="489"/>
			<point x="320" y="489" type="curve" smooth="yes"/>
			<point x="171" y="489" type="line"/>
			<point x="389" y="570"/>
			<point x="485" y="611"/>
			<point x="485" y="710" type="curve" smooth="yes"/>
			<point x="485" y="778"/>
			<point x="426" y="839"/>
			<point x="280" y="839" type="curve" smooth="yes"/>
			<point x="131" y="839"/>
			<point x="55" y="770"/>
			<point x="55" y="708" type="curve" smooth="yes"/>
			<point x="55" y="682"/>
			<point x="70" y="647"/>
			<point x="123" y="647" type="curve" smooth="yes"/>
			<point x="149" y="647"/>
			<point x="181" y="662"/>
			<point x="204" y="690" type="curve"/>
			<point x="187" y="710" type="line" smooth="yes"/>
			<point x="156" y="747"/>
			<point x="192" y="767"/>
		</contour>
	</outline>
</glyph>
<glyph name="threesuperior" format="2">
	<unicode hex="00B3"/>
	<advance width="507"/>
	<outline>
		<contour>
			<point x="473" y="742" type="curve" smooth="yes"/>
			<point x="473" y="819"/>
			<point x="375" y="839"/>
			<point x="285" y="839" type="curve" smooth="yes"/>
			<point x="167" y="839"/>
			<point x="63" y="802"/>
			<point x="63" y="730" type="curve" smooth="yes"/>
			<point x="63" y="708"/>
			<point x="84" y="674"/>
			<point x="133" y="674" type="curve" smooth="yes"/>
			<point x="162" y="674"/>
			<point x="186" y="696"/>
			<point x="192" y="713" type="curve"/>
			<point x="177" y="730" type="line" smooth="yes"/>
			<point x="156" y="754"/>
			<point x="185" y="772"/>
			<point x="227" y="772" type="curve" smooth="yes"/>
			<point x="273" y="772"/>
			<point x="298" y="753"/>
			<point x="298" y="723" type="curve" smooth="yes"/>
			<point x="298" y="674"/>
			<point x="262" y="652"/>
			<point x="171" y="633" type="curve"/>
			<point x="181" y="572" type="line"/>
			<point x="201" y="575"/>
			<point x="225" y="578"/>
			<point x="238" y="578" type="curve" smooth="yes"/>
			<point x="288" y="578"/>
			<point x="320" y="565"/>
			<point x="320" y="522" type="curve" smooth="yes"/>
			<point x="320" y="474"/>
			<point x="279" y="436"/>
			<point x="212" y="436" type="curve" smooth="yes"/>
			<point x="167" y="436"/>
			<point x="152" y="455"/>
			<point x="160" y="472" type="curve" smooth="yes"/>
			<point x="172" y="499" type="line"/>
			<point x="166" y="507"/>
			<point x="141" y="523"/>
			<point x="108" y="523" type="curve" smooth="yes"/>
			<point x="58" y="523"/>
			<point x="38" y="483"/>
			<point x="38" y="455" type="curve" smooth="yes"/>
			<point x="38" y="397"/>
			<point x="93" y="362"/>
			<point x="211" y="362" type="curve" smooth="yes"/>
			<point x="400" y="362"/>
			<point x="493" y="442"/>
			<point x="493" y="525" type="curve" smooth="yes"/>
			<point x="493" y="601"/>
			<point x="441" y="621"/>
			<point x="358" y="627" type="curve"/>
			<point x="358" y="633" type="line"/>
			<point x="421" y="649"/>
			<point x="473" y="687"/>
		</contour>
	</outline>
</glyph>
<glyph name="periodcentered" format="2">
	<unicode hex="00B7"/>
	<advance width="417"/>
	<outline>
		<contour>
			<point x="87" y="292" type="curve" smooth="yes"/>
			<point x="87" y="233"/>
			<point x="136" y="198"/>
			<point x="207" y="198" type="curve" smooth="yes"/>
			<point x="281" y="198"/>
			<point x="336" y="239"/>
			<point x="336" y="305" type="curve" smooth="yes"/>
			<point x="336" y="361"/>
			<point x="289" y="402"/>
			<point x="214" y="402" type="curve" smooth="yes"/>
			<point x="138" y="402"/>
			<point x="87" y="354"/>
		</contour>
	</outline>
</glyph>
<glyph name="AE" format="2">
	<unicode hex="00C6"/>
	<advance width="1085"/>
	<outline>
		<contour>
			<point x="12" y="0" type="line"/>
			<point x="302" y="0" type="line"/>
			<point x="314" y="89" type="line"/>
			<point x="219" y="101" type="line"/>
			<point x="265" y="206" type="line"/>
			<point x="490" y="206" type="line"/>
			<point x="517" y="102" type="line"/>
			<point x="437" y="90" type="line"/>
			<point x="429" y="0" type="line"/>
			<point x="1021" y="0" type="line"/>
			<point x="1046" y="217" type="line"/>
			<point x="937" y="217" type="line"/>
			<point x="923" y="174" type="line" smooth="yes"/>
			<point x="904" y="116"/>
			<point x="875" y="104"/>
			<point x="807" y="104" type="curve" smooth="yes"/>
			<point x="739" y="104" type="line"/>
			<point x="679" y="303" type="line"/>
			<point x="880" y="303" type="line"/>
			<point x="885" y="415" type="line"/>
			<point x="657" y="415" type="line"/>
			<point x="605" y="597" type="line"/>
			<point x="711" y="597" type="line" smooth="yes"/>
			<point x="782" y="597"/>
			<point x="801" y="588"/>
			<point x="818" y="536" type="curve" smooth="yes"/>
			<point x="834" y="486" type="line"/>
			<point x="938" y="495" type="line"/>
			<point x="919" y="700" type="line"/>
			<point x="344" y="700" type="line"/>
			<point x="93" y="101" type="line"/>
			<point x="26" y="92" type="line"/>
		</contour>
		<contour>
			<point x="294" y="303" type="line"/>
			<point x="400" y="584" type="line"/>
			<point x="406" y="584" type="line"/>
			<point x="469" y="303" type="line"/>
		</contour>
	</outline>
	<anchor name="top" x="638" y="730"/>
</glyph>
<glyph name="Ccedilla" format="2">
	<unicode hex="00C7"/>
	<advance width="756"/>
	<outline>
		<contour>
			<point x="379" y="-252" type="curve" smooth="yes"/>
			<point x="500" y="-252"/>
			<point x="548" y="-190"/>
			<point x="548" y="-133" type="curve" smooth="yes"/>
			<point x="548" y="-55"/>
			<point x="458" y="-44"/>
			<point x="425" y="-42" type="curve"/>
			<point x="438" y="-13" type="line"/>
			<point x="577" y="-1"/>
			<point x="664" y="84"/>
			<point x="719" y="162" type="curve"/>
			<point x="636" y="227" type="line"/>
			<point x="583" y="160"/>
			<point x="524" y="115"/>
			<point x="450" y="115" type="curve" smooth="yes"/>
			<point x="343" y="115"/>
			<point x="293" y="179"/>
			<point x="293" y="334" type="curve" smooth="yes"/>
			<point x="293" y="522"/>
			<point x="363" y="612"/>
			<point x="477" y="612" type="curve" smooth="yes"/>
			<point x="554" y="612"/>
			<point x="572" y="569"/>
			<point x="542" y="512" type="curve" smooth="yes"/>
			<point x="523" y="476" type="line"/>
			<point x="550" y="448"/>
			<point x="597" y="431"/>
			<point x="634" y="431" type="curve" smooth="yes"/>
			<point x="685" y="431"/>
			<point x="726" y="470"/>
			<point x="726" y="525" type="curve" smooth="yes"/>
			<point x="726" y="635"/>
			<point x="626" y="715"/>
			<point x="449" y="715" type="curve" smooth="yes"/>
			<point x="214" y="715"/>
			<point x="58" y="573"/>
			<point x="58" y="316" type="curve" smooth="yes"/>
			<point x="58" y="113"/>
			<point x="169" y="5"/>
			<point x="352" y="-12" type="curve"/>
			<point x="322" y="-91" type="line"/>
			<point x="336" y="-112" type="line"/>
			<point x="374" y="-103"/>
			<point x="410" y="-107"/>
			<point x="410" y="-133" type="curve" smooth="yes"/>
			<point x="410" y="-161"/>
			<point x="381" y="-167"/>
			<point x="351" y="-167" type="curve" smooth="yes"/>
			<point x="326" y="-167"/>
			<point x="305" y="-164"/>
			<point x="281" y="-158" type="curve"/>
			<point x="257" y="-225" type="line"/>
			<point x="283" y="-240"/>
			<point x="337" y="-252"/>
		</contour>
	</outline>
</glyph>
<glyph name="Oslash" format="2">
	<unicode hex="00D8"/>
	<advance width="870"/>
	<outline>
		<contour>
			<point x="18" y="-14" type="line"/>
			<point x="166" y="-14" type="line"/>
			<point x="207" y="30" type="line"/>
			<point x="261" y="0"/>
			<point x="330" y="-16"/>
			<point x="414" y="-16" type="curve" smooth="yes"/>
			<point x="679" y="-16"/>
			<point x="826" y="141"/>
			<point x="831" y="382" type="curve" smooth="yes"/>
			<point x="833" y="478"/>
			<point x="808" y="559"/>
			<point x="755" y="616" type="curve"/>
			<point x="847" y="715" type="line"/>
			<point x="700" y="715" type="line"/>
			<point x="667" y="680" type="line"/>
			<point x="615" y="704"/>
			<point x="549" y="717"/>
			<point x="471" y="717" type="curve" smooth="yes"/>
			<point x="207" y="717"/>
			<point x="63" y="567"/>
			<point x="58" y="328" type="curve" smooth="yes"/>
			<point x="56" y="236"/>
			<point x="78" y="158"/>
			<point x="124" y="100" type="curve"/>
		</contour>
		<contour>
			<point x="431" y="100" type="curve" smooth="yes"/>
			<point x="379" y="100"/>
			<point x="345" y="119"/>
			<point x="324" y="155" type="curve"/>
			<point x="591" y="441" type="line"/>
			<point x="593" y="416"/>
			<point x="593" y="390"/>
			<point x="592" y="361" type="curve" smooth="yes"/>
			<point x="586" y="190"/>
			<point x="550" y="100"/>
		</contour>
		<contour>
			<point x="294" y="281" type="line"/>
			<point x="293" y="302"/>
			<point x="292" y="325"/>
			<point x="293" y="350" type="curve" smooth="yes"/>
			<point x="297" y="511"/>
			<point x="349" y="607"/>
			<point x="454" y="607" type="curve" smooth="yes"/>
			<point x="501" y="607"/>
			<point x="534" y="591"/>
			<point x="556" y="561" type="curve"/>
		</contour>
	</outline>
</glyph>
<glyph name="Thorn" format="2">
	<unicode hex="00DE"/>
	<advance width="802"/>
	<outline>
		<contour>
			<point x="28" y="0" type="line"/>
			<point x="471" y="0" type="line"/>
			<point x="475" y="90" type="line"/>
			<point x="357" y="104" type="line"/>
			<point x="361" y="152" type="line"/>
			<point x="451" y="152" type="line" smooth="yes"/>
			<point x="695" y="152"/>
			<point x="771" y="264"/>
			<point x="771" y="370" type="curve" smooth="yes"/>
			<point x="771" y="514"/>
			<point x="625" y="559"/>
			<point x="487" y="559" type="curve" smooth="yes"/>
			<point x="374" y="559" type="line"/>
			<point x="376" y="598" type="line"/>
			<point x="482" y="610" type="line"/>
			<point x="491" y="700" type="line"/>
			<point x="67" y="700" type="line"/>
			<point x="60" y="612" type="line"/>
			<point x="152" y="595" type="line"/>
			<point x="127" y="105" type="line"/>
			<point x="33" y="89" type="line"/>
		</contour>
		<contour>
			<point x="366" y="252" type="line"/>
			<point x="378" y="461" type="line"/>
			<point x="401" y="461" type="line" smooth="yes"/>
			<point x="458" y="461"/>
			<point x="547" y="458"/>
			<point x="547" y="368" type="curve" smooth="yes"/>
			<point x="547" y="286"/>
			<point x="494" y="252"/>
			<point x="411" y="252" type="curve" smooth="yes"/>
		</contour>
	</outline>
</glyph>
<glyph name="germandbls" format="2">
	<unicode hex="00DF"/>
	<advance width="839"/>
	<outline>
		<contour>
			<point x="564" y="69" type="curve" smooth="yes"/>
			<point x="513" y="69"/>
			<point x="495" y="81"/>
			<point x="495" y="116" type="curve" smooth="yes"/>
			<point x="495" y="160" type="line"/>
			<point x="485" y="165"/>
			<point x="452" y="171"/>
			<point x="434" y="171" type="curve" smooth="yes"/>
			<point x="376" y="171"/>
			<point x="342" y="140"/>
			<point x="342" y="87" type="curve" smooth="yes"/>
			<point x="342" y="27"/>
			<point x="427" y="-14"/>
			<point x="550" y="-14" type="curve" smooth="yes"/>
			<point x="696" y="-14"/>
			<point x="800" y="70"/>
			<point x="800" y="188" type="curve" smooth="yes"/>
			<point x="800" y="377"/>
			<point x="532" y="344"/>
			<point x="532" y="425" type="curve" smooth="yes"/>
			<point x="532" y="508"/>
			<point x="715" y="525"/>
			<point x="715" y="649" type="curve" smooth="yes"/>
			<point x="715" y="732"/>
			<point x="619" y="782"/>
			<point x="462" y="782" type="curve" smooth="yes"/>
			<point x="229" y="782"/>
			<point x="118" y="696"/>
			<point x="111" y="508" type="curve" smooth="yes"/>
			<point x="93" y="23" type="line" smooth="yes"/>
			<point x="92" y="8"/>
			<point x="90" y="-62"/>
			<point x="90" y="-71" type="curve" smooth="yes"/>
			<point x="90" y="-112"/>
			<point x="64" y="-120"/>
			<point x="19" y="-93" type="curve" smooth="yes"/>
			<point x="-21" y="-69" type="line"/>
			<point x="-51" y="-93"/>
			<point x="-68" y="-125"/>
			<point x="-68" y="-156" type="curve" smooth="yes"/>
			<point x="-68" y="-199"/>
			<point x="-32" y="-229"/>
			<point x="20" y="-229" type="curve" smooth="yes"/>
			<point x="63" y="-229"/>
			<point x="109" y="-203"/>
			<point x="149" y="-157" type="curve" smooth="yes"/>
			<point x="246" y="-44"/>
			<point x="302" y="67"/>
			<point x="305" y="150" type="curve" smooth="yes"/>
			<point x="323" y="592" type="line" smooth="yes"/>
			<point x="326" y="659"/>
			<point x="368" y="694"/>
			<point x="445" y="694" type="curve" smooth="yes"/>
			<point x="509" y="694"/>
			<point x="545" y="670"/>
			<point x="545" y="628" type="curve" smooth="yes"/>
			<point x="545" y="512"/>
			<point x="370" y="482"/>
			<point x="370" y="337" type="curve" smooth="yes"/>
			<point x="370" y="180"/>
			<point x="649" y="196"/>
			<point x="649" y="118" type="curve" smooth="yes"/>
			<point x="649" y="87"/>
			<point x="617" y="69"/>
		</contour>
	</outline>
</glyph>
<glyph name="eth" format="2">
	<unicode hex="00F0"/>
	<advance width="703"/>
	<outline>
		<contour>
			<point x="326" y="-17" type="curve" smooth="yes"/>
			<point x="565" y="-17"/>
			<point x="654" y="127"/>
			<point x="654" y="332" type="curve" smooth="yes"/>
			<point x="654" y="476"/>
			<point x="617" y="601"/>
			<point x="505" y="708" type="curve"/>
			<point x="587" y="743" type="line"/>
			<point x="554" y="814" type="line"/>
			<point x="428" y="757" type="line"/>
			<point x="373" y="782"/>
			<point x="277" y="814"/>
			<point x="179" y="823" type="curve"/>
			<point x="153" y="742" type="line"/>
			<point x="205" y="730"/>
			<point x="253" y="714"/>
			<point x="297" y="689" type="curve"/>
			<point x="216" y="652" type="line"/>
			<point x="249" y="581" type="line"/>
			<point x="362" y="633" type="line"/>
			<point x="415" y="585"/>
			<point x="459" y="512"/>
			<point x="480" y="448" type="curve"/>
			<point x="472" y="444" type="line"/>
			<point x="447" y="487"/>
			<point x="393" y="535"/>
			<point x="309" y="535" type="curve" smooth="yes"/>
			<point x="132" y="535"/>
			<point x="45" y="406"/>
			<point x="45" y="244" type="curve" smooth="yes"/>
			<point x="45" y="89"/>
			<point x="133" y="-17"/>
		</contour>
		<contour>
			<point x="343" y="80" type="curve" smooth="yes"/>
			<point x="284" y="80"/>
			<point x="269" y="137"/>
			<point x="269" y="240" type="curve" smooth="yes"/>
			<point x="269" y="381"/>
			<point x="294" y="437"/>
			<point x="355" y="437" type="curve" smooth="yes"/>
			<point x="415" y="437"/>
			<point x="426" y="387"/>
			<point x="426" y="285" type="curve" smooth="yes"/>
			<point x="426" y="179"/>
			<point x="421" y="80"/>
		</contour>
	</outline>
</glyph>
<glyph name="divide" format="2">
	<unicode hex="00F7"/>
	<advance width="622"/>
	<outline>
		<contour>
			<point x="67" y="229" type="line"/>
			<point x="555" y="229" type="line"/>
			<point x="560" y="384" type="line"/>
			<point x="72" y="384" type="line"/>
		</contour>
		<contour>
			<point x="294" y="9" type="curve" smooth="yes"/>
			<point x="350" y="9"/>
			<point x="394" y="49"/>
			<point x="397" y="101" type="curve" smooth="yes"/>
			<point x="400" y="153"/>
			<point x="367" y="191"/>
			<point x="307" y="191" type="curve" smooth="yes"/>
			<point x="252" y="191"/>
			<point x="208" y="151"/>
			<point x="204" y="99" type="curve" smooth="yes"/>
			<point x="200" y="48"/>
			<point x="235" y="9"/>
		</contour>
		<contour>
			<point x="326" y="422" type="curve" smooth="yes"/>
			<point x="382" y="422"/>
			<point x="426" y="462"/>
			<point x="429" y="514" type="curve" smooth="yes"/>
			<point x="432" y="566"/>
			<point x="399" y="604"/>
			<point x="339" y="604" type="curve" smooth="yes"/>
			<point x="284" y="604"/>
			<point x="240" y="564"/>
			<point x="236" y="512" type="curve" smooth="yes"/>
			<point x="232" y="461"/>
			<point x="267" y="422"/>
		</contour>
	</outline>
</glyph>
<glyph name="oslash" format="2">
	<unicode hex="00F8"/>
	<advance width="689"/>
	<outline>
		<contour>
			<point x="15" y="-14" type="line"/>
			<point x="158" y="-14" type="line"/>
			<point x="182" y="9" type="line"/>
			<point x="221" y="-8"/>
			<point x="269" y="-17"/>
			<point x="326" y="-17" type="curve" smooth="yes"/>
			<point x="564" y="-17"/>
			<point x="648" y="131"/>
			<point x="648" y="285" type="curve" smooth="yes"/>
			<point x="648" y="345"/>
			<point x="636" y="395"/>
			<point x="611" y="436" type="curve"/>
			<point x="707" y="531" type="line"/>
			<point x="565" y="531" type="line"/>
			<point x="539" y="505" type="line"/>
			<point x="496" y="531"/>
			<point x="439" y="544"/>
			<point x="370" y="544" type="curve" smooth="yes"/>
			<point x="136" y="544"/>
			<point x="45" y="406"/>
			<point x="45" y="244" type="curve" smooth="yes"/>
			<point x="45" y="174"/>
			<point x="63" y="115"/>
			<point x="100" y="70" type="curve"/>
		</contour>
		<contour>
			<point x="342" y="80" type="curve" smooth="yes"/>
			<point x="316" y="80"/>
			<point x="298" y="92"/>
			<point x="287" y="114" type="curve"/>
			<point x="426" y="252" type="line"/>
			<point x="426" y="249"/>
			<point x="426" y="246"/>
			<point x="426" y="242" type="curve" smooth="yes"/>
			<point x="423" y="155"/>
			<point x="411" y="80"/>
		</contour>
		<contour>
			<point x="269" y="238" type="line"/>
			<point x="269" y="239"/>
			<point x="269" y="239"/>
			<point x="269" y="240" type="curve" smooth="yes"/>
			<point x="269" y="403"/>
			<point x="300" y="447"/>
			<point x="355" y="447" type="curve" smooth="yes"/>
			<point x="392" y="447"/>
			<point x="410" y="424"/>
			<point x="419" y="386" type="curve"/>
		</contour>
	</outline>
</glyph>
<glyph name="aogonek" format="2">
	<unicode hex="0105"/>
	<advance width="751"/>
	<outline>
		<contour>
			<point x="236" y="-14" type="curve" smooth="yes"/>
			<point x="378" y="-14"/>
			<point x="410" y="83"/>
			<point x="442" y="193" type="curve" smooth="yes"/>
			<point x="471" y="293" type="line"/>
			<point x="484" y="291" type="line"/>
			<point x="459" y="112" type="line" smooth="yes"/>
			<point x="446" y="20"/>
			<point x="508" y="-14"/>
			<point x="581" y="-14" type="curve"/>
			<point x="477" y="-72"/>
			<point x="441" y="-111"/>
			<point x="441" y="-169" type="curve" smooth="yes"/>
			<point x="441" y="-226"/>
			<point x="501" y="-254"/>
			<point x="560" y="-254" type="curve" smooth="yes"/>
			<point x="632" y="-254"/>
			<point x="687" y="-230"/>
			<point x="733" y="-160" type="curve"/>
			<point x="683" y="-121" type="line"/>
			<point x="664" y="-143"/>
			<point x="645" y="-155"/>
			<point x="624" y="-155" type="curve" smooth="yes"/>
			<point x="606" y="-155"/>
			<point x="594" y="-147"/>
			<point x="594" y="-126" type="curve" smooth="yes"/>
			<point x="594" y="-83"/>
			<point x="632" y="-52"/>
			<point x="748" y="35" type="curve"/>
			<point x="727" y="113" type="line"/>
			<point x="715" y="108"/>
			<point x="693" y="103"/>
			<point x="680" y="103" type="curve" smooth="yes"/>
			<point x="652" y="103"/>
			<point x="650" y="121"/>
			<point x="651" y="147" type="curve" smooth="yes"/>
			<point x="664" y="519" type="line"/>
			<point x="616" y="539" type="line"/>
			<point x="502" y="511" type="line"/>
			<point x="475" y="523"/>
			<point x="421" y="541"/>
			<point x="348" y="541" type="curve" smooth="yes"/>
			<point x="152" y="541"/>
			<point x="43" y="399"/>
			<point x="43" y="196" type="curve" smooth="yes"/>
			<point x="43" y="66"/>
			<point x="111" y="-14"/>
		</contour>
		<contour>
			<point x="299" y="90" type="curve" smooth="yes"/>
			<point x="275" y="90"/>
			<point x="258" y="103"/>
			<point x="258" y="172" type="curve" smooth="yes"/>
			<point x="258" y="312"/>
			<point x="284" y="454"/>
			<point x="384" y="454" type="curve" smooth="yes"/>
			<point x="406" y="454"/>
			<point x="428" y="448"/>
			<point x="436" y="445" type="curve"/>
			<point x="385" y="262" type="line" smooth="yes"/>
			<point x="342" y="108"/>
			<point x="325" y="90"/>
		</contour>
	</outline>
</glyph>
<glyph name="eogonek" format="2">
	<unicode hex="0119"/>
	<advance width="615"/>
	<outline>
		<contour>
			<point x="44" y="230" type="curve" smooth="yes"/>
			<point x="44" y="66"/>
			<point x="157" y="-15"/>
			<point x="314" y="-15" type="curve" smooth="yes"/>
			<point x="330" y="-15"/>
			<point x="348" y="-14"/>
			<point x="362" y="-12" type="curve"/>
			<point x="273" y="-73"/>
			<point x="241" y="-110"/>
			<point x="241" y="-169" type="curve" smooth="yes"/>
			<point x="241" y="-226"/>
			<point x="299" y="-254"/>
			<point x="356" y="-254" type="curve" smooth="yes"/>
			<point x="426" y="-254"/>
			<point x="481" y="-230"/>
			<point x="527" y="-160" type="curve"/>
			<point x="477" y="-121" type="line"/>
			<point x="458" y="-143"/>
			<point x="439" y="-155"/>
			<point x="420" y="-155" type="curve" smooth="yes"/>
			<point x="404" y="-155"/>
			<point x="394" y="-147"/>
			<point x="394" y="-127" type="curve" smooth="yes"/>
			<point x="394" y="-93"/>
			<point x="430" y="-25"/>
			<point x="491" y="20" type="curve" smooth="yes"/>
			<point x="518" y="40"/>
			<point x="544" y="59"/>
			<point x="569" y="87" type="curve"/>
			<point x="514" y="171" type="line"/>
			<point x="470" y="141"/>
			<point x="414" y="118"/>
			<point x="369" y="118" type="curve" smooth="yes"/>
			<point x="317" y="118"/>
			<point x="275" y="139"/>
			<point x="265" y="198" type="curve"/>
			<point x="355" y="223" type="line" smooth="yes"/>
			<point x="536" y="273"/>
			<point x="575" y="327"/>
			<point x="575" y="401" type="curve" smooth="yes"/>
			<point x="575" y="491"/>
			<point x="497" y="540"/>
			<point x="375" y="540" type="curve" smooth="yes"/>
			<point x="173" y="540"/>
			<point x="44" y="434"/>
		</contour>
		<contour>
			<point x="261" y="299" type="line"/>
			<point x="271" y="416"/>
			<point x="306" y="451"/>
			<point x="346" y="451" type="curve" smooth="yes"/>
			<point x="366" y="451"/>
			<point x="383" y="441"/>
			<point x="383" y="401" type="curve" smooth="yes"/>
			<point x="383" y="345"/>
			<point x="356" y="323"/>
			<point x="304" y="310" type="curve" smooth="yes"/>
		</contour>
	</outline>
</glyph>
<glyph name="Hbar" format="2">
	<unicode hex="0126"/>
	<advance width="909"/>
	<outline>
		<contour>
			<point x="28" y="0" type="line"/>
			<point x="421" y="0" type="line"/>
			<point x="427" y="92" type="line"/>
			<point x="348" y="107" type="line"/>
			<point x="358" y="299" type="line"/>
			<point x="573" y="299" type="line"/>
			<point x="561" y="104" type="line"/>
			<point x="487" y="92" type="line"/>
			<point x="481" y="0" type="line"/>
			<point x="882" y="0" type="line"/>
			<point x="888" y="94" type="line"/>
			<point x="790" y="107" type="line"/>
			<point x="808" y="457" type="line"/>
			<point x="908" y="457" type="line"/>
			<point x="913" y="546" type="line"/>
			<point x="812" y="546" type="line"/>
			<point x="815" y="595" type="line"/>
			<point x="902" y="609" type="line"/>
			<point x="907" y="700" type="line"/>
			<point x="516" y="700" type="line"/>
			<point x="511" y="612" type="line"/>
			<point x="586" y="595" type="line"/>
			<point x="584" y="546" type="line"/>
			<point x="370" y="546" type="line"/>
			<point x="372" y="598" type="line"/>
			<point x="449" y="612" type="line"/>
			<point x="453" y="700" type="line"/>
			<point x="60" y="700" type="line"/>
			<point x="54" y="614" type="line"/>
			<point x="143" y="597" type="line"/>
			<point x="141" y="546" type="line"/>
			<point x="42" y="546" type="line"/>
			<point x="36" y="457" type="line"/>
			<point x="136" y="457" type="line"/>
			<point x="119" y="102" type="line"/>
			<point x="34" y="91" type="line"/>
		</contour>
		<contour>
			<point x="363" y="408" type="line"/>
			<point x="365" y="457" type="line"/>
			<point x="579" y="457" type="line"/>
			<point x="577" y="408" type="line"/>
		</contour>
	</outline>
</glyph>
<glyph name="Iogonek" format="2">
	<unicode hex="012E"/>
	<advance width="466"/>
	<outline>
		<contour>
			<point x="28" y="0" type="line"/>
			<point x="229" y="0" type="line"/>
			<point x="128" y="-68"/>
			<point x="91" y="-107"/>
			<point x="91" y="-169" type="curve" smooth="yes"/>
			<point x="91" y="-226"/>
			<point x="149" y="-254"/>
			<point x="206" y="-254" type="curve" smooth="yes"/>
			<point x="276" y="-254"/>
			<point x="331" y="-230"/>
			<point x="377" y="-160" type="curve"/>
			<point x="327" y="-121" type="line"/>
			<point x="308" y="-143"/>
			<point x="289" y="-155"/>
			<point x="270" y="-155" type="curve" smooth="yes"/>
			<point x="254" y="-155"/>
			<point x="244" y="-147"/>
			<point x="244" y="-132" type="curve" smooth="yes"/>
			<point x="244" y="-105"/>
			<point x="266" y="-64"/>
			<point x="322" y="0" type="curve"/>
			<point x="441" y="0" type="line"/>
			<point x="445" y="95" type="line"/>
			<point x="347" y="108" type="line"/>
			<point x="370" y="597" type="line"/>
			<point x="456" y="611" type="line"/>
			<point x="464" y="700" type="line"/>
			<point x="58" y="700" type="line"/>
			<point x="51" y="611" type="line"/>
			<point x="139" y="594" type="line"/>
			<point x="116" y="105" type="line"/>
			<point x="32" y="95" type="line"/>
		</contour>
	</outline>
</glyph>
<glyph name="iogonek" format="2">
	<unicode hex="012F"/>
	<advance width="414"/>
	<outline>
		<contour>
			<point x="95" y="130" type="line" smooth="yes"/>
			<point x="87" y="27"/>
			<point x="128" y="-14"/>
			<point x="235" y="-14" type="curve"/>
			<point x="149" y="-75"/>
			<point x="117" y="-111"/>
			<point x="117" y="-169" type="curve" smooth="yes"/>
			<point x="117" y="-226"/>
			<point x="175" y="-254"/>
			<point x="232" y="-254" type="curve" smooth="yes"/>
			<point x="302" y="-254"/>
			<point x="357" y="-230"/>
			<point x="403" y="-160" type="curve"/>
			<point x="353" y="-121" type="line"/>
			<point x="334" y="-143"/>
			<point x="315" y="-155"/>
			<point x="296" y="-155" type="curve" smooth="yes"/>
			<point x="280" y="-155"/>
			<point x="270" y="-147"/>
			<point x="270" y="-125" type="curve" smooth="yes"/>
			<point x="270" y="-93"/>
			<point x="293" y="-44"/>
			<point x="355" y="0" type="curve" smooth="yes"/>
			<point x="372" y="12"/>
			<point x="391" y="24"/>
			<point x="402" y="31" type="curve"/>
			<point x="382" y="110" type="line"/>
			<point x="364" y="105"/>
			<point x="346" y="100"/>
			<point x="327" y="100" type="curve" smooth="yes"/>
			<point x="303" y="100"/>
			<point x="298" y="119"/>
			<point x="300" y="144" type="curve" smooth="yes"/>
			<point x="320" y="398" type="line" smooth="yes"/>
			<point x="328" y="504"/>
			<point x="265" y="541"/>
			<point x="174" y="541" type="curve" smooth="yes"/>
			<point x="97" y="541"/>
			<point x="32" y="517"/>
			<point x="3" y="502" type="curve"/>
			<point x="31" y="414" type="line"/>
			<point x="56" y="423"/>
			<point x="75" y="428"/>
			<point x="91" y="428" type="curve" smooth="yes"/>
			<point x="109" y="428"/>
			<point x="117" y="413"/>
			<point x="115" y="388" type="curve" smooth="yes"/>
		</contour>
		<contour>
			<point x="108" y="711" type="curve" smooth="yes"/>
			<point x="108" y="653"/>
			<point x="152" y="613"/>
			<point x="221" y="613" type="curve" smooth="yes"/>
			<point x="286" y="613"/>
			<point x="332" y="654"/>
			<point x="332" y="710" type="curve" smooth="yes"/>
			<point x="332" y="767"/>
			<point x="285" y="808"/>
			<point x="219" y="808" type="curve" smooth="yes"/>
			<point x="151" y="808"/>
			<point x="108" y="767"/>
		</contour>
	</outline>
</glyph>
<glyph name="Lslash" format="2">
	<unicode hex="0141"/>
	<advance width="720"/>
	<outline>
		<contour>
			<point x="28" y="0" type="line"/>
			<point x="662" y="0" type="line"/>
			<point x="690" y="238" type="line"/>
			<point x="580" y="238" type="line"/>
			<point x="560" y="177" type="line" smooth="yes"/>
			<point x="537" y="106"/>
			<point x="487" y="105"/>
			<point x="441" y="105" type="curve" smooth="yes"/>
			<point x="349" y="105" type="line"/>
			<point x="359" y="314" type="line"/>
			<point x="486" y="376" type="line"/>
			<point x="493" y="509" type="line"/>
			<point x="366" y="447" type="line"/>
			<point x="373" y="594" type="line"/>
			<point x="486" y="613" type="line"/>
			<point x="492" y="700" type="line"/>
			<point x="61" y="700" type="line"/>
			<point x="54" y="613" type="line"/>
			<point x="144" y="596" type="line"/>
			<point x="133" y="369" type="line"/>
			<point x="41" y="321" type="line"/>
			<point x="34" y="188" type="line"/>
			<point x="127" y="237" type="line"/>
			<point x="120" y="103" type="line"/>
			<point x="34" y="92" type="line"/>
		</contour>
	</outline>
</glyph>
<glyph name="lslash" format="2">
	<unicode hex="0142"/>
	<advance width="383"/>
	<outline>
		<contour>
			<point x="216" y="-14" type="curve" smooth="yes"/>
			<point x="284" y="-14"/>
			<point x="362" y="17"/>
			<point x="385" y="32" type="curve"/>
			<point x="364" y="111" type="line"/>
			<point x="356" y="109"/>
			<point x="333" y="103"/>
			<point x="315" y="103" type="curve" smooth="yes"/>
			<point x="284" y="103"/>
			<point x="275" y="125"/>
			<point x="276" y="147" type="curve" smooth="yes"/>
			<point x="283" y="358" type="line"/>
			<point x="367" y="406" type="line"/>
			<point x="374" y="557" type="line"/>
			<point x="288" y="508" type="line"/>
			<point x="297" y="755" type="line"/>
			<point x="278" y="766" type="line"/>
			<point x="20" y="766" type="line"/>
			<point x="9" y="677" type="line"/>
			<point x="101" y="662" type="line"/>
			<point x="92" y="442" type="line"/>
			<point x="10" y="398" type="line"/>
			<point x="3" y="247" type="line"/>
			<point x="86" y="291" type="line"/>
			<point x="78" y="111" type="line" smooth="yes"/>
			<point x="74" y="18"/>
			<point x="132" y="-14"/>
		</contour>
	</outline>
</glyph>
<glyph name="Eng" format="2">
	<unicode hex="014A"/>
	<advance width="865"/>
	<outline>
		<contour>
			<point x="28" y="0" type="line"/>
			<point x="318" y="0" type="line"/>
			<point x="324" y="91" type="line"/>
			<point x="231" y="104" type="line"/>
			<point x="248" y="570" type="line"/>
			<point x="527" y="11" type="line"/>
			<point x="516" y="-49"/>
			<point x="490" y="-94"/>
			<point x="427" y="-158" type="curve"/>
			<point x="495" y="-244" type="line"/>
			<point x="632" y="-158"/>
			<point x="755" y="-71"/>
			<point x="761" y="90" type="curve" smooth="yes"/>
			<point x="779" y="592" type="line"/>
			<point x="862" y="609" type="line"/>
			<point x="870" y="700" type="line"/>
			<point x="582" y="700" type="line"/>
			<point x="575" y="609" type="line"/>
			<point x="670" y="592" type="line"/>
			<point x="652" y="199" type="line"/>
			<point x="407" y="700" type="line"/>
			<point x="62" y="700" type="line"/>
			<point x="53" y="607" type="line"/>
			<point x="142" y="596" type="line"/>
			<point x="115" y="104" type="line"/>
			<point x="34" y="91" type="line"/>
		</contour>
	</outline>
</glyph>
<glyph name="oe" format="2">
	<unicode hex="0153"/>
	<advance width="991"/>
	<outline>
		<contour>
			<point x="764" y="541" type="curve" smooth="yes"/>
			<point x="658" y="541"/>
			<point x="575" y="495"/>
			<point x="535" y="440" type="curve"/>
			<point x="502" y="503"/>
			<point x="425" y="541"/>
			<point x="328" y="541" type="curve" smooth="yes"/>
			<point x="130" y="541"/>
			<point x="45" y="406"/>
			<point x="45" y="254" type="curve" smooth="yes"/>
			<point x="45" y="87"/>
			<point x="139" y="-14"/>
			<point x="296" y="-14" type="curve" smooth="yes"/>
			<point x="397" y="-14"/>
			<point x="474" y="24"/>
			<point x="513" y="70" type="curve"/>
			<point x="547" y="20"/>
			<point x="611" y="-14"/>
			<point x="703" y="-14" type="curve" smooth="yes"/>
			<point x="792" y="-14"/>
			<point x="897" y="33"/>
			<point x="945" y="88" type="curve"/>
			<point x="891" y="172" type="line"/>
			<point x="848" y="144"/>
			<point x="796" y="119"/>
			<point x="753" y="119" type="curve" smooth="yes"/>
			<point x="673" y="119"/>
			<point x="650" y="154"/>
			<point x="642" y="199" type="curve"/>
			<point x="702" y="215" type="line" smooth="yes"/>
			<point x="877" y="262"/>
			<point x="951" y="302"/>
			<point x="951" y="402" type="curve" smooth="yes"/>
			<point x="951" y="481"/>
			<point x="885" y="541"/>
		</contour>
		<contour>
			<point x="340" y="81" type="curve" smooth="yes"/>
			<point x="279" y="81"/>
			<point x="268" y="138"/>
			<point x="268" y="256" type="curve" smooth="yes"/>
			<point x="268" y="354"/>
			<point x="282" y="442"/>
			<point x="354" y="442" type="curve" smooth="yes"/>
			<point x="409" y="442"/>
			<point x="425" y="399"/>
			<point x="425" y="261" type="curve" smooth="yes"/>
			<point x="425" y="146"/>
			<point x="406" y="81"/>
		</contour>
		<contour>
			<point x="759" y="402" type="curve" smooth="yes"/>
			<point x="759" y="326"/>
			<point x="714" y="317"/>
			<point x="665" y="306" type="curve" smooth="yes"/>
			<point x="637" y="300" type="line"/>
			<point x="647" y="419"/>
			<point x="682" y="452"/>
			<point x="722" y="452" type="curve" smooth="yes"/>
			<point x="744" y="452"/>
			<point x="759" y="441"/>
		</contour>
	</outline>
</glyph>
<glyph name="Tcedilla" format="2">
	<unicode hex="0162"/>
	<advance width="788"/>
	<outline>
		<contour>
			<point x="365" y="-252" type="curve" smooth="yes"/>
			<point x="486" y="-252"/>
			<point x="534" y="-190"/>
			<point x="534" y="-133" type="curve" smooth="yes"/>
			<point x="534" y="-55"/>
			<point x="444" y="-44"/>
			<point x="411" y="-42" type="curve"/>
			<point x="429" y="0" type="line"/>
			<point x="618" y="0" type="line"/>
			<point x="624" y="94" type="line"/>
			<point x="508" y="106" type="line"/>
			<point x="534" y="606" type="line"/>
			<point x="563" y="606" type="line" smooth="yes"/>
			<point x="617" y="606"/>
			<point x="632" y="589"/>
			<point x="647" y="537" type="curve" smooth="yes"/>
			<point x="670" y="458" type="line"/>
			<point x="780" y="468" type="line"/>
			<point x="756" y="700" type="line"/>
			<point x="72" y="700" type="line"/>
			<point x="39" y="469" type="line"/>
			<point x="153" y="458" type="line"/>
			<point x="177" y="537" type="line" smooth="yes"/>
			<point x="193" y="590"/>
			<point x="210" y="606"/>
			<point x="265" y="606" type="curve" smooth="yes"/>
			<point x="306" y="606" type="line"/>
			<point x="280" y="107" type="line"/>
			<point x="169" y="94" type="line"/>
			<point x="162" y="0" type="line"/>
			<point x="343" y="0" type="line"/>
			<point x="308" y="-91" type="line"/>
			<point x="322" y="-112" type="line"/>
			<point x="360" y="-103"/>
			<point x="396" y="-107"/>
			<point x="396" y="-133" type="curve" smooth="yes"/>
			<point x="396" y="-161"/>
			<point x="367" y="-167"/>
			<point x="337" y="-167" type="curve" smooth="yes"/>
			<point x="312" y="-167"/>
			<point x="291" y="-164"/>
			<point x="267" y="-158" type="curve"/>
			<point x="243" y="-225" type="line"/>
			<point x="269" y="-240"/>
			<point x="323" y="-252"/>
		</contour>
	</outline>
</glyph>
<glyph name="tcedilla" format="2">
	<unicode hex="0163"/>
	<advance width="493"/>
	<outline>
		<contour>
			<point x="233" y="-253" type="curve" smooth="yes"/>
			<point x="354" y="-253"/>
			<point x="402" y="-191"/>
			<point x="402" y="-134" type="curve" smooth="yes"/>
			<point x="402" y="-56"/>
			<point x="312" y="-45"/>
			<point x="279" y="-43" type="curve"/>
			<point x="292" y="-13" type="line"/>
			<point x="375" y="-5"/>
			<point x="449" y="32"/>
			<point x="490" y="75" type="curve"/>
			<point x="442" y="150" type="line"/>
			<point x="410" y="129"/>
			<point x="381" y="116"/>
			<point x="348" y="116" type="curve" smooth="yes"/>
			<point x="302" y="116"/>
			<point x="294" y="144"/>
			<point x="297" y="190" type="curve" smooth="yes"/>
			<point x="311" y="435" type="line"/>
			<point x="444" y="435" type="line"/>
			<point x="448" y="527" type="line"/>
			<point x="314" y="527" type="line"/>
			<point x="322" y="687" type="line"/>
			<point x="176" y="687" type="line"/>
			<point x="110" y="529" type="line"/>
			<point x="24" y="521" type="line"/>
			<point x="16" y="435" type="line"/>
			<point x="103" y="435" type="line"/>
			<point x="87" y="143" type="line" smooth="yes"/>
			<point x="82" y="58"/>
			<point x="125" y="5"/>
			<point x="208" y="-10" type="curve"/>
			<point x="176" y="-92" type="line"/>
			<point x="190" y="-113" type="line"/>
			<point x="228" y="-104"/>
			<point x="264" y="-108"/>
			<point x="264" y="-134" type="curve" smooth="yes"/>
			<point x="264" y="-162"/>
			<point x="235" y="-168"/>
			<point x="205" y="-168" type="curve" smooth="yes"/>
			<point x="180" y="-168"/>
			<point x="159" y="-165"/>
			<point x="135" y="-159" type="curve"/>
			<point x="111" y="-226" type="line"/>
			<point x="137" y="-241"/>
			<point x="191" y="-253"/>
		</contour>
	</outline>
</glyph>
<glyph name="Tbar" format="2">
	<unicode hex="0166"/>
	<advance width="788"/>
	<outline>
		<contour>
			<point x="162" y="0" type="line"/>
			<point x="618" y="0" type="line"/>
			<point x="624" y="94" type="line"/>
			<point x="508" y="106" type="line"/>
			<point x="516" y="259" type="line"/>
			<point x="657" y="259" type="line"/>
			<point x="662" y="393" type="line"/>
			<point x="523" y="393" type="line"/>
			<point x="534" y="606" type="line"/>
			<point x="563" y="606" type="line" smooth="yes"/>
			<point x="617" y="606"/>
			<point x="632" y="589"/>
			<point x="647" y="537" type="curve" smooth="yes"/>
			<point x="670" y="458" type="line"/>
			<point x="780" y="468" type="line"/>
			<point x="756" y="700" type="line"/>
			<point x="72" y="700" type="line"/>
			<point x="39" y="469" type="line"/>
			<point x="153" y="458" type="line"/>
			<point x="177" y="537" type="line" smooth="yes"/>
			<point x="193" y="590"/>
			<point x="210" y="606"/>
			<point x="265" y="606" type="curve" smooth="yes"/>
			<point x="306" y="606" type="line"/>
			<point x="295" y="393" type="line"/>
			<point x="144" y="393" type="line"/>
			<point x="136" y="259" type="line"/>
			<point x="288" y="259" type="line"/>
			<point x="280" y="107" type="line"/>
			<point x="169" y="94" type="line"/>
		</contour>
	</outline>
</glyph>
<glyph name="uogonek" format="2">
	<unicode hex="0173"/>
	<advance width="734"/>
	<outline>
		<contour>
			<point x="8" y="497" type="curve"/>
			<point x="31" y="420" type="line"/>
			<point x="47" y="426"/>
			<point x="60" y="429"/>
			<point x="73" y="429" type="curve" smooth="yes"/>
			<point x="92" y="429"/>
			<point x="102" y="422"/>
			<point x="100" y="393" type="curve" smooth="yes"/>
			<point x="80" y="131" type="line" smooth="yes"/>
			<point x="74" y="46"/>
			<point x="130" y="-12"/>
			<point x="223" y="-12" type="curve" smooth="yes"/>
			<point x="313" y="-12"/>
			<point x="370" y="27"/>
			<point x="404" y="135" type="curve" smooth="yes"/>
			<point x="485" y="391" type="line"/>
			<point x="497" y="388" type="line"/>
			<point x="455" y="118" type="line" smooth="yes"/>
			<point x="441" y="31"/>
			<point x="491" y="-10"/>
			<point x="565" y="-12" type="curve"/>
			<point x="471" y="-73"/>
			<point x="432" y="-110"/>
			<point x="432" y="-169" type="curve" smooth="yes"/>
			<point x="432" y="-226"/>
			<point x="491" y="-254"/>
			<point x="548" y="-254" type="curve" smooth="yes"/>
			<point x="618" y="-254"/>
			<point x="672" y="-230"/>
			<point x="718" y="-160" type="curve"/>
			<point x="668" y="-121" type="line"/>
			<point x="649" y="-143"/>
			<point x="630" y="-155"/>
			<point x="611" y="-155" type="curve" smooth="yes"/>
			<point x="595" y="-155"/>
			<point x="585" y="-147"/>
			<point x="585" y="-125" type="curve" smooth="yes"/>
			<point x="585" y="-76"/>
			<point x="646" y="-24"/>
			<point x="735" y="31" type="curve"/>
			<point x="713" y="112" type="line"/>
			<point x="699" y="106"/>
			<point x="680" y="101"/>
			<point x="664" y="101" type="curve" smooth="yes"/>
			<point x="648" y="101"/>
			<point x="642" y="115"/>
			<point x="643" y="132" type="curve" smooth="yes"/>
			<point x="667" y="529" type="line"/>
			<point x="444" y="529" type="line"/>
			<point x="339" y="206" type="line" smooth="yes"/>
			<point x="322" y="154"/>
			<point x="315" y="135"/>
			<point x="299" y="135" type="curve" smooth="yes"/>
			<point x="282" y="135"/>
			<point x="280" y="144"/>
			<point x="282" y="166" type="curve" smooth="yes"/>
			<point x="310" y="427" type="line" smooth="yes"/>
			<point x="318" y="503"/>
			<point x="276" y="543"/>
			<point x="195" y="543" type="curve" smooth="yes"/>
			<point x="140" y="543"/>
			<point x="48" y="517"/>
		</contour>
	</outline>
</glyph>
<glyph name="florin" format="2">
	<unicode hex="0192"/>
	<advance width="789"/>
	<outline>
		<contour>
			<point x="154" y="-115" type="curve" smooth="yes"/>
			<point x="124" y="-115"/>
			<point x="116" y="-99"/>
			<point x="130" y="-57" type="curve" smooth="yes"/>
			<point x="144" y="-14" type="line"/>
			<point x="128" y="5"/>
			<point x="92" y="17"/>
			<point x="63" y="17" type="curve" smooth="yes"/>
			<point x="-3" y="17"/>
			<point x="-34" y="-20"/>
			<point x="-34" y="-76" type="curve" smooth="yes"/>
			<point x="-34" y="-158"/>
			<point x="62" y="-193"/>
			<point x="166" y="-193" type="curve" smooth="yes"/>
			<point x="316" y="-193"/>
			<point x="413" y="-92"/>
			<point x="430" y="45" type="curve" smooth="yes"/>
			<point x="469" y="354" type="line"/>
			<point x="630" y="354" type="line"/>
			<point x="638" y="445" type="line"/>
			<point x="480" y="445" type="line"/>
			<point x="490" y="534" type="line" smooth="yes"/>
			<point x="498" y="608"/>
			<point x="518" y="636"/>
			<point x="555" y="636" type="curve" smooth="yes"/>
			<point x="586" y="636"/>
			<point x="593" y="621"/>
			<point x="579" y="578" type="curve" smooth="yes"/>
			<point x="565" y="535" type="line"/>
			<point x="581" y="516"/>
			<point x="619" y="504"/>
			<point x="646" y="504" type="curve" smooth="yes"/>
			<point x="712" y="504"/>
			<point x="743" y="541"/>
			<point x="743" y="598" type="curve" smooth="yes"/>
			<point x="743" y="679"/>
			<point x="647" y="714"/>
			<point x="543" y="714" type="curve" smooth="yes"/>
			<point x="399" y="714"/>
			<point x="298" y="624"/>
			<point x="276" y="478" type="curve" smooth="yes"/>
			<point x="271" y="445" type="line"/>
			<point x="184" y="445" type="line"/>
			<point x="175" y="354" type="line"/>
			<point x="262" y="354" type="line"/>
			<point x="218" y="-10" type="line" smooth="yes"/>
			<point x="207" y="-98"/>
			<point x="191" y="-115"/>
		</contour>
	</outline>
</glyph>
<glyph name="uhorn" format="2">
	<unicode hex="01B0"/>
	<advance width="866"/>
	<outline>
		<contour>
			<point x="223" y="-14" type="curve" smooth="yes"/>
			<point x="313" y="-14"/>
			<point x="370" y="25"/>
			<point x="404" y="133" type="curve" smooth="yes"/>
			<point x="485" y="389" type="line"/>
			<point x="497" y="386" type="line"/>
			<point x="455" y="116" type="line" smooth="yes"/>
			<point x="442" y="29"/>
			<point x="490" y="-14"/>
			<point x="574" y="-14" type="curve" smooth="yes"/>
			<point x="627" y="-14"/>
			<point x="697" y="8"/>
			<point x="736" y="31" type="curve"/>
			<point x="713" y="110" type="line"/>
			<point x="699" y="104"/>
			<point x="680" y="99"/>
			<point x="664" y="99" type="curve" smooth="yes"/>
			<point x="648" y="99"/>
			<point x="642" y="113"/>
			<point x="643" y="130" type="curve" smooth="yes"/>
			<point x="657" y="356" type="line"/>
			<point x="829" y="385"/>
			<point x="862" y="509"/>
			<point x="862" y="574" type="curve" smooth="yes"/>
			<point x="862" y="652"/>
			<point x="816" y="684"/>
			<point x="761" y="684" type="curve" smooth="yes"/>
			<point x="700" y="684"/>
			<point x="659" y="645"/>
			<point x="659" y="597" type="curve" smooth="yes"/>
			<point x="659" y="580"/>
			<point x="664" y="559"/>
			<point x="672" y="545" type="curve"/>
			<point x="713" y="535" type="line" smooth="yes"/>
			<point x="734" y="530"/>
			<point x="740" y="527"/>
			<point x="740" y="512" type="curve" smooth="yes"/>
			<point x="740" y="477"/>
			<point x="709" y="449"/>
			<point x="661" y="436" type="curve"/>
			<point x="667" y="527" type="line"/>
			<point x="444" y="527" type="line"/>
			<point x="339" y="204" type="line" smooth="yes"/>
			<point x="322" y="152"/>
			<point x="315" y="133"/>
			<point x="299" y="133" type="curve" smooth="yes"/>
			<point x="282" y="133"/>
			<point x="280" y="142"/>
			<point x="282" y="164" type="curve" smooth="yes"/>
			<point x="310" y="425" type="line" smooth="yes"/>
			<point x="318" y="501"/>
			<point x="276" y="541"/>
			<point x="195" y="541" type="curve" smooth="yes"/>
			<point x="140" y="541"/>
			<point x="48" y="515"/>
			<point x="8" y="495" type="curve"/>
			<point x="31" y="418" type="line"/>
			<point x="47" y="424"/>
			<point x="60" y="427"/>
			<point x="73" y="427" type="curve" smooth="yes"/>
			<point x="92" y="427"/>
			<point x="102" y="420"/>
			<point x="100" y="391" type="curve" smooth="yes"/>
			<point x="80" y="129" type="line" smooth="yes"/>
			<point x="73" y="44"/>
			<point x="130" y="-14"/>
		</contour>
	</outline>
</glyph>
<glyph name="Oogonek" format="2">
	<unicode hex="01EA"/>
	<advance width="870"/>
	<outline>
		<contour>
			<point x="440" y="-254" type="curve" smooth="yes"/>
			<point x="510" y="-254"/>
			<point x="565" y="-230"/>
			<point x="611" y="-160" type="curve"/>
			<point x="561" y="-121" type="line"/>
			<point x="542" y="-143"/>
			<point x="523" y="-155"/>
			<point x="504" y="-155" type="curve" smooth="yes"/>
			<point x="488" y="-155"/>
			<point x="478" y="-147"/>
			<point x="478" y="-132" type="curve" smooth="yes"/>
			<point x="478" y="-105"/>
			<point x="500" y="-63"/>
			<point x="558" y="2" type="curve"/>
			<point x="732" y="50"/>
			<point x="827" y="189"/>
			<point x="831" y="382" type="curve" smooth="yes"/>
			<point x="835" y="586"/>
			<point x="719" y="717"/>
			<point x="471" y="717" type="curve" smooth="yes"/>
			<point x="207" y="717"/>
			<point x="63" y="567"/>
			<point x="58" y="328" type="curve" smooth="yes"/>
			<point x="54" y="120"/>
			<point x="172" y="-16"/>
			<point x="414" y="-16" type="curve" smooth="yes"/>
			<point x="423" y="-16"/>
			<point x="432" y="-16"/>
			<point x="441" y="-15" type="curve"/>
			<point x="356" y="-74"/>
			<point x="325" y="-112"/>
			<point x="325" y="-169" type="curve" smooth="yes"/>
			<point x="325" y="-226"/>
			<point x="383" y="-254"/>
		</contour>
		<contour>
			<point x="431" y="100" type="curve" smooth="yes"/>
			<point x="318" y="100"/>
			<point x="289" y="192"/>
			<point x="293" y="350" type="curve" smooth="yes"/>
			<point x="297" y="511"/>
			<point x="349" y="607"/>
			<point x="454" y="607" type="curve" smooth="yes"/>
			<point x="568" y="607"/>
			<point x="597" y="514"/>
			<point x="592" y="361" type="curve" smooth="yes"/>
			<point x="586" y="190"/>
			<point x="550" y="100"/>
		</contour>
	</outline>
</glyph>
<glyph name="jdotless" format="2">
	<unicode hex="0237"/>
	<advance width="397"/>
	<outline>
		<contour>
			<point x="319" y="134" type="curve" smooth="yes"/>
			<point x="333" y="412" type="line" smooth="yes"/>
			<point x="337" y="492"/>
			<point x="289" y="546"/>
			<point x="194" y="546" type="curve" smooth="yes"/>
			<point x="123" y="546"/>
			<point x="47" y="524"/>
			<point x="20" y="509" type="curve"/>
			<point x="39" y="414" type="line"/>
			<point x="70" y="425"/>
			<point x="85" y="427"/>
			<point x="100" y="427" type="curve" smooth="yes"/>
			<point x="117" y="427"/>
			<point x="129" y="416"/>
			<point x="127" y="385" type="curve" smooth="yes"/>
			<point x="108" y="23" type="line" smooth="yes"/>
			<point x="106" y="-12"/>
			<point x="105" y="-53"/>
			<point x="101" y="-84" type="curve" smooth="yes"/>
			<point x="98" y="-110"/>
			<point x="81" y="-120"/>
			<point x="40" y="-103" type="curve" smooth="yes"/>
			<point x="-23" y="-77" type="line"/>
			<point x="-41" y="-97"/>
			<point x="-58" y="-130"/>
			<point x="-58" y="-158" type="curve" smooth="yes"/>
			<point x="-58" y="-203"/>
			<point x="-24" y="-234"/>
			<point x="29" y="-234" type="curve" smooth="yes"/>
			<point x="91" y="-234"/>
			<point x="142" y="-188"/>
			<point x="168" y="-159" type="curve" smooth="yes"/>
			<point x="254" y="-64"/>
			<point x="313" y="20"/>
		</contour>
	</outline>
	<anchor name="top" x="184" y="550"/>
</glyph>
<glyph name="ringhalfleft" format="2">
	<unicode hex="02BF"/>
	<advance width="500"/>
	<outline>
		<contour>
			<point x="310" y="578" type="curve" smooth="yes"/>
			<point x="336" y="578" type="line"/>
			<point x="338" y="649" type="line"/>
			<point x="325" y="649" type="line" smooth="yes"/>
			<point x="301" y="649"/>
			<point x="278" y="658"/>
			<point x="278" y="699" type="curve" smooth="yes"/>
			<point x="278" y="739"/>
			<point x="303" y="753"/>
			<point x="330" y="753" type="curve" smooth="yes"/>
			<point x="342" y="753" type="line"/>
			<point x="344" y="822" type="line"/>
			<point x="315" y="822" type="line" smooth="yes"/>
			<point x="215" y="822"/>
			<point x="141" y="779"/>
			<point x="141" y="697" type="curve" smooth="yes"/>
			<point x="141" y="630"/>
			<point x="191" y="578"/>
		</contour>
	</outline>
	<anchor name="_top" x="269" y="550"/>
</glyph>
<glyph name="ring" format="2">
	<unicode hex="02DA"/>
	<advance width="500"/>
	<outline>
		<contour>
			<point x="271" y="578" type="curve" smooth="yes"/>
			<point x="384" y="578"/>
			<point x="443" y="631"/>
			<point x="443" y="701" type="curve" smooth="yes"/>
			<point x="443" y="768"/>
			<point x="391" y="822"/>
			<point x="283" y="822" type="curve" smooth="yes"/>
			<point x="157" y="822"/>
			<point x="108" y="763"/>
			<point x="108" y="693" type="curve" smooth="yes"/>
			<point x="108" y="625"/>
			<point x="162" y="578"/>
		</contour>
		<contour>
			<point x="271" y="642" type="curve" smooth="yes"/>
			<point x="246" y="642"/>
			<point x="232" y="659"/>
			<point x="232" y="702" type="curve" smooth="yes"/>
			<point x="232" y="740"/>
			<point x="249" y="758"/>
			<point x="276" y="758" type="curve" smooth="yes"/>
			<point x="300" y="758"/>
			<point x="318" y="744"/>
			<point x="318" y="703" type="curve" smooth="yes"/>
			<point x="318" y="659"/>
			<point x="299" y="642"/>
		</contour>
	</outline>
	<anchor name="_top" x="268" y="550"/>
</glyph>
<glyph name="commaaccentcomb" format="2">
	<unicode hex="0326"/>
	<outline>
		<contour>
			<point x="-65" y="-342" type="line"/>
			<point x="29" y="-292"/>
			<point x="91" y="-212"/>
			<point x="91" y="-148" type="curve" smooth="yes"/>
			<point x="91" y="-90"/>
			<point x="57" y="-56"/>
			<point x="-10" y="-56" type="curve" smooth="yes"/>
			<point x="-86" y="-56"/>
			<point x="-124" y="-112"/>
			<point x="-102" y="-170" type="curve"/>
			<point x="-67" y="-181" type="line" smooth="yes"/>
			<point x="-51" y="-186"/>
			<point x="-46" y="-193"/>
			<point x="-46" y="-203" type="curve" smooth="yes"/>
			<point x="-46" y="-225"/>
			<point x="-62" y="-246"/>
			<point x="-114" y="-285" type="curve"/>
		</contour>
	</outline>
	<anchor name="_bottom" x="-10" y="-30"/>
</glyph>
<glyph name="numeral-greek" format="2">
	<unicode hex="0374"/>
	<advance width="303"/>
	<outline>
		<contour>
			<point x="96" y="484" type="line"/>
			<point x="261" y="685" type="line"/>
			<point x="261" y="704" type="line"/>
			<point x="243" y="741"/>
			<point x="216" y="761"/>
			<point x="186" y="761" type="curve" smooth="yes"/>
			<point x="151" y="761"/>
			<point x="131" y="744"/>
			<point x="114" y="699" type="curve" smooth="yes"/>
			<point x="45" y="515" type="line"/>
		</contour>
	</outline>
</glyph>
<glyph name="ypogegrammeni" format="2">
	<unicode hex="037A"/>
	<advance width="283"/>
	<outline>
		<contour>
			<point x="134" y="-229" type="curve" smooth="yes"/>
			<point x="169" y="-229"/>
			<point x="222" y="-216"/>
			<point x="240" y="-203" type="curve"/>
			<point x="232" y="-140" type="line"/>
			<point x="221" y="-145"/>
			<point x="212" y="-147"/>
			<point x="204" y="-147" type="curve" smooth="yes"/>
			<point x="191" y="-147"/>
			<point x="189" y="-142"/>
			<point x="191" y="-118" type="curve" smooth="yes"/>
			<point x="193" y="-89"/>
			<point x="196" y="-71"/>
			<point x="201" y="-38" type="curve"/>
			<point x="192" y="-34" type="line"/>
			<point x="22" y="-41" type="line"/>
			<point x="18" y="-118" type="line" smooth="yes"/>
			<point x="14" y="-196"/>
			<point x="49" y="-229"/>
		</contour>
	</outline>
	<anchor name="_bottom" x="107" y="-30"/>
</glyph>
<glyph name="Gamma" format="2">
	<unicode hex="0393"/>
	<advance width="685"/>
	<outline>
		<contour>
			<point x="28" y="0" type="line"/>
			<point x="487" y="0" type="line"/>
			<point x="494" y="94" type="line"/>
			<point x="357" y="107" type="line"/>
			<point x="379" y="596" type="line"/>
			<point x="445" y="596" type="line" smooth="yes"/>
			<point x="512" y="596"/>
			<point x="533" y="583"/>
			<point x="548" y="532" type="curve" smooth="yes"/>
			<point x="562" y="484" type="line"/>
			<point x="669" y="494" type="line"/>
			<point x="652" y="700" type="line"/>
			<point x="60" y="700" type="line"/>
			<point x="53" y="613" type="line"/>
			<point x="150" y="596" type="line"/>
			<point x="126" y="105" type="line"/>
			<point x="33" y="92" type="line"/>
		</contour>
	</outline>
</glyph>
<glyph name="Delta" format="2">
	<unicode hex="0394"/>
	<advance width="725"/>
	<outline>
		<contour>
			<point x="35" y="0" type="line"/>
			<point x="705" y="0" type="line"/>
			<point x="711" y="94" type="line"/>
			<point x="506" y="714" type="line"/>
			<point x="279" y="693" type="line"/>
			<point x="25" y="93" type="line"/>
		</contour>
		<contour>
			<point x="168" y="129" type="line"/>
			<point x="340" y="579" type="line"/>
			<point x="344" y="579" type="line"/>
			<point x="464" y="129" type="line"/>
		</contour>
	</outline>
</glyph>
<glyph name="Theta" format="2">
	<unicode hex="0398"/>
	<advance width="868"/>
	<outline>
		<contour>
			<point x="412" y="-16" type="curve" smooth="yes"/>
			<point x="678" y="-16"/>
			<point x="829" y="133"/>
			<point x="829" y="396" type="curve" smooth="yes"/>
			<point x="829" y="607"/>
			<point x="706" y="717"/>
			<point x="470" y="717" type="curve" smooth="yes"/>
			<point x="205" y="717"/>
			<point x="58" y="573"/>
			<point x="58" y="314" type="curve" smooth="yes"/>
			<point x="58" y="100"/>
			<point x="182" y="-16"/>
		</contour>
		<contour>
			<point x="429" y="97" type="curve" smooth="yes"/>
			<point x="332" y="97"/>
			<point x="284" y="173"/>
			<point x="284" y="324" type="curve" smooth="yes"/>
			<point x="284" y="509"/>
			<point x="344" y="610"/>
			<point x="454" y="610" type="curve" smooth="yes"/>
			<point x="555" y="610"/>
			<point x="600" y="545"/>
			<point x="600" y="397" type="curve" smooth="yes"/>
			<point x="600" y="185"/>
			<point x="550" y="97"/>
		</contour>
		<contour>
			<point x="332" y="298" type="line"/>
			<point x="544" y="298" type="line"/>
			<point x="550" y="412" type="line"/>
			<point x="339" y="412" type="line"/>
		</contour>
	</outline>
</glyph>
<glyph name="Lambda" format="2">
	<unicode hex="039B"/>
	<advance width="813"/>
	<outline>
		<contour>
			<point x="12" y="0" type="line"/>
			<point x="304" y="0" type="line"/>
			<point x="311" y="90" type="line"/>
			<point x="220" y="102" type="line"/>
			<point x="385" y="579" type="line"/>
			<point x="389" y="579" type="line"/>
			<point x="496" y="102" type="line"/>
			<point x="416" y="90" type="line"/>
			<point x="407" y="0" type="line"/>
			<point x="803" y="0" type="line"/>
			<point x="809" y="94" type="line"/>
			<point x="734" y="103" type="line"/>
			<point x="551" y="714" type="line"/>
			<point x="324" y="693" type="line"/>
			<point x="93" y="102" type="line"/>
			<point x="22" y="93" type="line"/>
		</contour>
	</outline>
</glyph>
<glyph name="Sigma" format="2">
	<unicode hex="03A3"/>
	<advance width="737"/>
	<outline>
		<contour>
			<point x="54" y="0" type="line"/>
			<point x="662" y="0" type="line"/>
			<point x="692" y="248" type="line"/>
			<point x="580" y="248" type="line"/>
			<point x="560" y="192" type="line" smooth="yes"/>
			<point x="538" y="131"/>
			<point x="515" y="115"/>
			<point x="445" y="115" type="curve" smooth="yes"/>
			<point x="251" y="115" type="line"/>
			<point x="273" y="80" type="line"/>
			<point x="473" y="357" type="line"/>
			<point x="474" y="369" type="line"/>
			<point x="337" y="593" type="line"/>
			<point x="459" y="593" type="line" smooth="yes"/>
			<point x="524" y="593"/>
			<point x="550" y="572"/>
			<point x="568" y="503" type="curve" smooth="yes"/>
			<point x="573" y="484" type="line"/>
			<point x="679" y="494" type="line"/>
			<point x="664" y="700" type="line"/>
			<point x="91" y="700" type="line"/>
			<point x="72" y="591" type="line"/>
			<point x="232" y="335" type="line"/>
			<point x="54" y="90" type="line"/>
		</contour>
	</outline>
</glyph>
<glyph name="gamma" format="2">
	<unicode hex="03B3"/>
	<advance width="641"/>
	<outline>
		<contour>
			<point x="235" y="-196" type="curve" smooth="yes"/>
			<point x="262" y="-196"/>
			<point x="309" y="-186"/>
			<point x="333" y="-175" type="curve"/>
			<point x="338" y="-159"/>
			<point x="341" y="-124"/>
			<point x="341" y="-71" type="curve" smooth="yes"/>
			<point x="341" y="-54"/>
			<point x="341" y="-4"/>
			<point x="341" y="15" type="curve"/>
			<point x="505" y="150"/>
			<point x="595" y="294"/>
			<point x="595" y="420" type="curve" smooth="yes"/>
			<point x="595" y="498"/>
			<point x="557" y="542"/>
			<point x="488" y="542" type="curve" smooth="yes"/>
			<point x="422" y="542"/>
			<point x="391" y="500"/>
			<point x="401" y="425" type="curve"/>
			<point x="442" y="410" type="line" smooth="yes"/>
			<point x="470" y="400"/>
			<point x="476" y="393"/>
			<point x="476" y="369" type="curve" smooth="yes"/>
			<point x="476" y="309"/>
			<point x="416" y="198"/>
			<point x="339" y="116" type="curve"/>
			<point x="340" y="235"/>
			<point x="337" y="351"/>
			<point x="331" y="415" type="curve" smooth="yes"/>
			<point x="322" y="498"/>
			<point x="272" y="542"/>
			<point x="185" y="542" type="curve" smooth="yes"/>
			<point x="135" y="542"/>
			<point x="64" y="524"/>
			<point x="8" y="496" type="curve"/>
			<point x="29" y="416" type="line"/>
			<point x="43" y="421"/>
			<point x="57" y="424"/>
			<point x="67" y="424" type="curve" smooth="yes"/>
			<point x="117" y="424"/>
			<point x="133" y="403"/>
			<point x="142" y="326" type="curve" smooth="yes"/>
			<point x="154" y="219"/>
			<point x="157" y="169"/>
			<point x="168" y="14" type="curve"/>
			<point x="157" y="-32"/>
			<point x="148" y="-88"/>
			<point x="148" y="-113" type="curve" smooth="yes"/>
			<point x="148" y="-170"/>
			<point x="175" y="-196"/>
		</contour>
	</outline>
</glyph>
<glyph name="delta" format="2">
	<unicode hex="03B4"/>
	<advance width="671"/>
	<outline>
		<contour>
			<point x="308" y="-17" type="curve" smooth="yes"/>
			<point x="481" y="-17"/>
			<point x="620" y="109"/>
			<point x="620" y="264" type="curve" smooth="yes"/>
			<point x="620" y="373"/>
			<point x="568" y="460"/>
			<point x="447" y="553" type="curve" smooth="yes"/>
			<point x="368" y="614"/>
			<point x="353" y="630"/>
			<point x="353" y="656" type="curve" smooth="yes"/>
			<point x="353" y="686"/>
			<point x="381" y="703"/>
			<point x="430" y="703" type="curve" smooth="yes"/>
			<point x="472" y="703"/>
			<point x="491" y="692"/>
			<point x="491" y="669" type="curve" smooth="yes"/>
			<point x="491" y="656"/>
			<point x="486" y="641"/>
			<point x="469" y="602" type="curve" smooth="yes"/>
			<point x="487" y="582"/>
			<point x="520" y="569"/>
			<point x="555" y="569" type="curve" smooth="yes"/>
			<point x="611" y="569"/>
			<point x="649" y="606"/>
			<point x="649" y="660" type="curve" smooth="yes"/>
			<point x="649" y="731"/>
			<point x="562" y="778"/>
			<point x="426" y="781" type="curve" smooth="yes"/>
			<point x="241" y="782"/>
			<point x="135" y="723"/>
			<point x="135" y="620" type="curve" smooth="yes"/>
			<point x="135" y="567"/>
			<point x="165" y="528"/>
			<point x="247" y="476" type="curve" smooth="yes"/>
			<point x="109" y="432"/>
			<point x="38" y="346"/>
			<point x="33" y="220" type="curve" smooth="yes"/>
			<point x="27" y="76"/>
			<point x="135" y="-17"/>
		</contour>
		<contour>
			<point x="311" y="75" type="curve" smooth="yes"/>
			<point x="276" y="75"/>
			<point x="256" y="117"/>
			<point x="256" y="191" type="curve" smooth="yes"/>
			<point x="255" y="283"/>
			<point x="283" y="361"/>
			<point x="329" y="392" type="curve" smooth="yes"/>
			<point x="368" y="348"/>
			<point x="384" y="301"/>
			<point x="384" y="227" type="curve" smooth="yes"/>
			<point x="384" y="136"/>
			<point x="355" y="75"/>
		</contour>
	</outline>
</glyph>
<glyph name="epsilon" format="2">
	<unicode hex="03B5"/>
	<advance width="644"/>
	<outline>
		<contour>
			<point x="293" y="-14" type="curve" smooth="yes"/>
			<point x="420" y="-14"/>
			<point x="536" y="30"/>
			<point x="586" y="97" type="curve"/>
			<point x="525" y="174" type="line"/>
			<point x="490" y="133"/>
			<point x="422" y="106"/>
			<point x="353" y="106" type="curve" smooth="yes"/>
			<point x="279" y="106"/>
			<point x="243" y="127"/>
			<point x="243" y="169" type="curve" smooth="yes"/>
			<point x="243" y="188"/>
			<point x="270" y="213"/>
			<point x="300" y="222" type="curve"/>
			<point x="321" y="210"/>
			<point x="344" y="192"/>
			<point x="378" y="192" type="curve" smooth="yes"/>
			<point x="420" y="192"/>
			<point x="449" y="222"/>
			<point x="449" y="264" type="curve" smooth="yes"/>
			<point x="449" y="300"/>
			<point x="421" y="324"/>
			<point x="380" y="324" type="curve" smooth="yes"/>
			<point x="354" y="324"/>
			<point x="326" y="309"/>
			<point x="305" y="298" type="curve"/>
			<point x="281" y="307"/>
			<point x="266" y="328"/>
			<point x="266" y="354" type="curve" smooth="yes"/>
			<point x="266" y="403"/>
			<point x="304" y="433"/>
			<point x="366" y="433" type="curve" smooth="yes"/>
			<point x="411" y="433"/>
			<point x="452" y="414"/>
			<point x="452" y="394" type="curve" smooth="yes"/>
			<point x="452" y="384"/>
			<point x="448" y="377"/>
			<point x="427" y="351" type="curve"/>
			<point x="442" y="321"/>
			<point x="480" y="297"/>
			<point x="512" y="297" type="curve" smooth="yes"/>
			<point x="568" y="297"/>
			<point x="603" y="332"/>
			<point x="603" y="390" type="curve" smooth="yes"/>
			<point x="603" y="482"/>
			<point x="501" y="543"/>
			<point x="346" y="543" type="curve" smooth="yes"/>
			<point x="182" y="543"/>
			<point x="81" y="481"/>
			<point x="81" y="379" type="curve" smooth="yes"/>
			<point x="81" y="330"/>
			<point x="113" y="289"/>
			<point x="170" y="264" type="curve"/>
			<point x="170" y="262" type="line"/>
			<point x="99" y="249"/>
			<point x="46" y="194"/>
			<point x="46" y="134" type="curve" smooth="yes"/>
			<point x="46" y="37"/>
			<point x="131" y="-14"/>
		</contour>
	</outline>
	<anchor name="top" x="356" y="550"/>
</glyph>
<glyph name="iota" format="2">
	<unicode hex="03B9"/>
	<advance width="417"/>
	<outline>
		<contour>
			<point x="175" y="-14" type="curve" smooth="yes"/>
			<point x="252" y="-14"/>
			<point x="328" y="10"/>
			<point x="383" y="51" type="curve"/>
			<point x="363" y="133" type="line"/>
			<point x="333" y="121"/>
			<point x="293" y="111"/>
			<point x="271" y="111" type="curve" smooth="yes"/>
			<point x="239" y="111"/>
			<point x="223" y="128"/>
			<point x="223" y="160" type="curve" smooth="yes"/>
			<point x="223" y="203"/>
			<point x="245" y="355"/>
			<point x="274" y="517" type="curve"/>
			<point x="249" y="538" type="line"/>
			<point x="46" y="521" type="line"/>
			<point x="28" y="202"/>
			<point x="27" y="177"/>
			<point x="27" y="153" type="curve" smooth="yes"/>
			<point x="27" y="35"/>
			<point x="70" y="-14"/>
		</contour>
	</outline>
	<anchor name="top" x="173" y="550"/>
</glyph>
<glyph name="nu" format="2">
	<unicode hex="03BD"/>
	<advance width="642"/>
	<outline>
		<contour>
			<point x="267" y="-41" type="line"/>
			<point x="492" y="136"/>
			<point x="596" y="282"/>
			<point x="596" y="419" type="curve" smooth="yes"/>
			<point x="596" y="498"/>
			<point x="559" y="541"/>
			<point x="490" y="541" type="curve" smooth="yes"/>
			<point x="423" y="541"/>
			<point x="392" y="500"/>
			<point x="402" y="424" type="curve"/>
			<point x="444" y="409" type="line" smooth="yes"/>
			<point x="471" y="399"/>
			<point x="477" y="392"/>
			<point x="477" y="368" type="curve" smooth="yes"/>
			<point x="477" y="309"/>
			<point x="417" y="197"/>
			<point x="340" y="114" type="curve"/>
			<point x="341" y="234"/>
			<point x="338" y="350"/>
			<point x="332" y="414" type="curve" smooth="yes"/>
			<point x="323" y="497"/>
			<point x="272" y="541"/>
			<point x="185" y="541" type="curve" smooth="yes"/>
			<point x="136" y="541"/>
			<point x="71" y="524"/>
			<point x="8" y="496" type="curve"/>
			<point x="29" y="415" type="line"/>
			<point x="43" y="420"/>
			<point x="57" y="423"/>
			<point x="67" y="423" type="curve" smooth="yes"/>
			<point x="117" y="423"/>
			<point x="133" y="402"/>
			<point x="142" y="324" type="curve" smooth="yes"/>
			<point x="156" y="218"/>
			<point x="158" y="167"/>
			<point x="169" y="12" type="curve"/>
		</contour>
	</outline>
</glyph>
<glyph name="xi" format="2">
	<unicode hex="03BE"/>
	<advance width="587"/>
	<outline>
		<contour>
			<point x="343" y="-238" type="line"/>
			<point x="460" y="-146"/>
			<point x="499" y="-90"/>
			<point x="499" y="-14" type="curve" smooth="yes"/>
			<point x="499" y="60"/>
			<point x="458" y="106"/>
			<point x="343" y="160" type="curve" smooth="yes"/>
			<point x="253" y="202"/>
			<point x="230" y="222"/>
			<point x="230" y="257" type="curve" smooth="yes"/>
			<point x="230" y="297"/>
			<point x="264" y="325"/>
			<point x="320" y="331" type="curve"/>
			<point x="345" y="301"/>
			<point x="387" y="283"/>
			<point x="431" y="283" type="curve" smooth="yes"/>
			<point x="479" y="283"/>
			<point x="509" y="313"/>
			<point x="509" y="360" type="curve" smooth="yes"/>
			<point x="509" y="409"/>
			<point x="480" y="437"/>
			<point x="431" y="437" type="curve" smooth="yes"/>
			<point x="389" y="437"/>
			<point x="354" y="421"/>
			<point x="322" y="388" type="curve"/>
			<point x="277" y="403"/>
			<point x="253" y="428"/>
			<point x="253" y="458" type="curve" smooth="yes"/>
			<point x="253" y="514"/>
			<point x="329" y="553"/>
			<point x="478" y="576" type="curve" smooth="yes"/>
			<point x="537" y="582"/>
			<point x="570" y="609"/>
			<point x="570" y="651" type="curve" smooth="yes"/>
			<point x="570" y="697"/>
			<point x="536" y="728"/>
			<point x="485" y="728" type="curve" smooth="yes"/>
			<point x="420" y="728"/>
			<point x="312" y="693"/>
			<point x="241" y="648" type="curve"/>
			<point x="211" y="673"/>
			<point x="200" y="695"/>
			<point x="200" y="729" type="curve" smooth="yes"/>
			<point x="200" y="744"/>
			<point x="208" y="777"/>
			<point x="213" y="782" type="curve"/>
			<point x="190" y="794"/>
			<point x="161" y="801"/>
			<point x="133" y="801" type="curve" smooth="yes"/>
			<point x="71" y="801"/>
			<point x="30" y="761"/>
			<point x="30" y="702" type="curve" smooth="yes"/>
			<point x="30" y="641"/>
			<point x="79" y="599"/>
			<point x="167" y="585" type="curve"/>
			<point x="126" y="560"/>
			<point x="98" y="510"/>
			<point x="98" y="458" type="curve" smooth="yes"/>
			<point x="98" y="410"/>
			<point x="124" y="374"/>
			<point x="178" y="350" type="curve"/>
			<point x="178" y="348" type="line"/>
			<point x="98" y="320"/>
			<point x="42" y="247"/>
			<point x="42" y="170" type="curve" smooth="yes"/>
			<point x="42" y="93"/>
			<point x="81" y="56"/>
			<point x="247" y="-26" type="curve" smooth="yes"/>
			<point x="330" y="-67"/>
			<point x="342" y="-77"/>
			<point x="342" y="-109" type="curve" smooth="yes"/>
			<point x="342" y="-128"/>
			<point x="338" y="-135"/>
			<point x="294" y="-191" type="curve"/>
		</contour>
	</outline>
</glyph>
<glyph name="omicron" format="2">
	<unicode hex="03BF"/>
	<advance width="654"/>
	<outline>
		<contour>
			<point x="309" y="-17" type="curve" smooth="yes"/>
			<point x="500" y="-17"/>
			<point x="614" y="97"/>
			<point x="614" y="289" type="curve" smooth="yes"/>
			<point x="614" y="452"/>
			<point x="520" y="544"/>
			<point x="353" y="544" type="curve" smooth="yes"/>
			<point x="158" y="544"/>
			<point x="44" y="432"/>
			<point x="44" y="240" type="curve" smooth="yes"/>
			<point x="44" y="77"/>
			<point x="141" y="-17"/>
		</contour>
		<contour>
			<point x="322" y="81" type="curve" smooth="yes"/>
			<point x="285" y="81"/>
			<point x="270" y="120"/>
			<point x="270" y="215" type="curve" smooth="yes"/>
			<point x="270" y="376"/>
			<point x="290" y="443"/>
			<point x="338" y="443" type="curve" smooth="yes"/>
			<point x="375" y="443"/>
			<point x="390" y="406"/>
			<point x="390" y="316" type="curve" smooth="yes"/>
			<point x="390" y="137"/>
			<point x="374" y="81"/>
		</contour>
	</outline>
	<anchor name="top" x="346" y="550"/>
</glyph>
<glyph name="pi" format="2">
	<unicode hex="03C0"/>
	<advance width="826"/>
	<outline>
		<contour>
			<point x="518" y="-14" type="curve" smooth="yes"/>
			<point x="574" y="-14"/>
			<point x="635" y="4"/>
			<point x="677" y="34" type="curve"/>
			<point x="658" y="115" type="line"/>
			<point x="641" y="110"/>
			<point x="626" y="107"/>
			<point x="620" y="107" type="curve" smooth="yes"/>
			<point x="605" y="107"/>
			<point x="600" y="116"/>
			<point x="600" y="141" type="curve" smooth="yes"/>
			<point x="600" y="172"/>
			<point x="598" y="230"/>
			<point x="608" y="376" type="curve"/>
			<point x="639" y="374"/>
			<point x="673" y="372"/>
			<point x="706" y="370" type="curve" smooth="yes"/>
			<point x="764" y="370"/>
			<point x="807" y="407"/>
			<point x="807" y="456" type="curve" smooth="yes"/>
			<point x="807" y="496"/>
			<point x="795" y="519"/>
			<point x="761" y="542" type="curve"/>
			<point x="587" y="504" type="line"/>
			<point x="141" y="538" type="line" smooth="yes"/>
			<point x="50" y="545"/>
			<point x="-6" y="504"/>
			<point x="-6" y="432" type="curve" smooth="yes"/>
			<point x="-6" y="367"/>
			<point x="43" y="333"/>
			<point x="136" y="333" type="curve"/>
			<point x="147" y="366" type="line" smooth="yes"/>
			<point x="158" y="395"/>
			<point x="164" y="401"/>
			<point x="185" y="401" type="curve" smooth="yes"/>
			<point x="196" y="401"/>
			<point x="208" y="400"/>
			<point x="221" y="399" type="curve"/>
			<point x="99" y="21" type="line"/>
			<point x="130" y="-1" type="line"/>
			<point x="325" y="-1" type="line"/>
			<point x="368" y="390" type="line"/>
			<point x="396" y="388"/>
			<point x="426" y="386"/>
			<point x="453" y="384" type="curve"/>
			<point x="421" y="199"/>
			<point x="409" y="113"/>
			<point x="409" y="71" type="curve" smooth="yes"/>
			<point x="409" y="19"/>
			<point x="451" y="-14"/>
		</contour>
	</outline>
</glyph>
<glyph name="sigma" format="2">
	<unicode hex="03C3"/>
	<advance width="785"/>
	<outline>
		<contour>
			<point x="330" y="-14" type="curve" smooth="yes"/>
			<point x="494" y="-14"/>
			<point x="623" y="92"/>
			<point x="627" y="231" type="curve" smooth="yes"/>
			<point x="629" y="295"/>
			<point x="610" y="346"/>
			<point x="565" y="395" type="curve"/>
			<point x="566" y="397" type="line"/>
			<point x="604" y="372"/>
			<point x="640" y="357"/>
			<point x="663" y="357" type="curve" smooth="yes"/>
			<point x="719" y="357"/>
			<point x="760" y="397"/>
			<point x="760" y="451" type="curve" smooth="yes"/>
			<point x="760" y="487"/>
			<point x="740" y="530"/>
			<point x="717" y="545" type="curve"/>
			<point x="557" y="502" type="line"/>
			<point x="517" y="514"/>
			<point x="404" y="529"/>
			<point x="354" y="529" type="curve" smooth="yes"/>
			<point x="172" y="529"/>
			<point x="51" y="421"/>
			<point x="45" y="253" type="curve" smooth="yes"/>
			<point x="39" y="84"/>
			<point x="144" y="-14"/>
		</contour>
		<contour>
			<point x="332" y="81" type="curve" smooth="yes"/>
			<point x="285" y="81"/>
			<point x="262" y="140"/>
			<point x="267" y="249" type="curve" smooth="yes"/>
			<point x="271" y="353"/>
			<point x="304" y="409"/>
			<point x="361" y="409" type="curve" smooth="yes"/>
			<point x="370" y="409"/>
			<point x="378" y="408"/>
			<point x="392" y="405" type="curve"/>
			<point x="408" y="376"/>
			<point x="415" y="324"/>
			<point x="413" y="251" type="curve" smooth="yes"/>
			<point x="410" y="141"/>
			<point x="381" y="81"/>
		</contour>
	</outline>
</glyph>
<glyph name="tau" format="2">
	<unicode hex="03C4"/>
	<advance width="640"/>
	<outline>
		<contour>
			<point x="331" y="-14" type="curve" smooth="yes"/>
			<point x="408" y="-14"/>
			<point x="508" y="27"/>
			<point x="547" y="75" type="curve"/>
			<point x="499" y="154" type="line"/>
			<point x="463" y="129"/>
			<point x="442" y="121"/>
			<point x="414" y="121" type="curve" smooth="yes"/>
			<point x="382" y="121"/>
			<point x="364" y="141"/>
			<point x="364" y="175" type="curve" smooth="yes"/>
			<point x="364" y="196"/>
			<point x="304" y="-472"/>
			<point x="383" y="387" type="curve"/>
			<point x="444" y="379"/>
			<point x="500" y="371"/>
			<point x="524" y="371" type="curve" smooth="yes"/>
			<point x="585" y="371"/>
			<point x="626" y="407"/>
			<point x="626" y="460" type="curve" smooth="yes"/>
			<point x="626" y="493"/>
			<point x="612" y="520"/>
			<point x="581" y="542" type="curve"/>
			<point x="443" y="511" type="line"/>
			<point x="141" y="538" type="line" smooth="yes"/>
			<point x="51" y="546"/>
			<point x="-6" y="504"/>
			<point x="-6" y="430" type="curve" smooth="yes"/>
			<point x="-6" y="366"/>
			<point x="54" y="323"/>
			<point x="130" y="333" type="curve"/>
			<point x="144" y="372" type="line" smooth="yes"/>
			<point x="154" y="400"/>
			<point x="166" y="411"/>
			<point x="187" y="411" type="curve" smooth="yes"/>
			<point x="198" y="411"/>
			<point x="216" y="409"/>
			<point x="239" y="407" type="curve"/>
			<point x="181" y="236"/>
			<point x="163" y="167"/>
			<point x="163" y="115" type="curve" smooth="yes"/>
			<point x="163" y="27"/>
			<point x="217" y="-14"/>
		</contour>
	</outline>
</glyph>
<glyph name="chi" format="2">
	<unicode hex="03C7"/>
	<advance width="634"/>
	<outline>
		<contour>
			<point x="128" y="-230" type="curve" smooth="yes"/>
			<point x="203" y="-230"/>
			<point x="250" y="-173"/>
			<point x="240" y="-96" type="curve"/>
			<point x="200" y="-81" type="line" smooth="yes"/>
			<point x="176" y="-73"/>
			<point x="165" y="-60"/>
			<point x="165" y="-41" type="curve" smooth="yes"/>
			<point x="165" y="-14"/>
			<point x="190" y="14"/>
			<point x="268" y="73" type="curve"/>
			<point x="341" y="-144" type="line" smooth="yes"/>
			<point x="360" y="-206"/>
			<point x="397" y="-230"/>
			<point x="471" y="-230" type="curve" smooth="yes"/>
			<point x="531" y="-230"/>
			<point x="604" y="-208"/>
			<point x="637" y="-180" type="curve"/>
			<point x="615" y="-99" type="line"/>
			<point x="588" y="-109"/>
			<point x="581" y="-111"/>
			<point x="566" y="-111" type="curve" smooth="yes"/>
			<point x="543" y="-111"/>
			<point x="535" y="-104"/>
			<point x="522" y="-70" type="curve" smooth="yes"/>
			<point x="443" y="148" type="line"/>
			<point x="591" y="262"/>
			<point x="655" y="348"/>
			<point x="655" y="434" type="curve" smooth="yes"/>
			<point x="655" y="508"/>
			<point x="615" y="550"/>
			<point x="545" y="550" type="curve" smooth="yes"/>
			<point x="481" y="550"/>
			<point x="447" y="503"/>
			<point x="459" y="432" type="curve"/>
			<point x="507" y="415" type="line" smooth="yes"/>
			<point x="529" y="406"/>
			<point x="534" y="400"/>
			<point x="534" y="382" type="curve" smooth="yes"/>
			<point x="534" y="344"/>
			<point x="494" y="294"/>
			<point x="414" y="232" type="curve"/>
			<point x="357" y="422" type="line" smooth="yes"/>
			<point x="330" y="517"/>
			<point x="289" y="550"/>
			<point x="199" y="550" type="curve" smooth="yes"/>
			<point x="148" y="550"/>
			<point x="76" y="532"/>
			<point x="41" y="511" type="curve"/>
			<point x="66" y="423" type="line"/>
			<point x="87" y="430"/>
			<point x="96" y="432"/>
			<point x="106" y="432" type="curve" smooth="yes"/>
			<point x="132" y="432"/>
			<point x="145" y="421"/>
			<point x="156" y="390" type="curve" smooth="yes"/>
			<point x="239" y="158" type="line"/>
			<point x="67" y="32"/>
			<point x="10" y="-38"/>
			<point x="10" y="-122" type="curve" smooth="yes"/>
			<point x="10" y="-189"/>
			<point x="55" y="-230"/>
		</contour>
	</outline>
</glyph>
<glyph name="koppaArchaic" format="2">
	<unicode hex="03D9"/>
	<advance width="689"/>
	<outline>
		<contour>
			<point x="291" y="-140" type="line"/>
			<point x="395" y="-114" type="line"/>
			<point x="392" y="-80"/>
			<point x="390" y="-47"/>
			<point x="387" y="-13" type="curve"/>
			<point x="579" y="10"/>
			<point x="648" y="145"/>
			<point x="648" y="285" type="curve" smooth="yes"/>
			<point x="648" y="448"/>
			<point x="556" y="544"/>
			<point x="370" y="544" type="curve" smooth="yes"/>
			<point x="136" y="544"/>
			<point x="45" y="406"/>
			<point x="45" y="244" type="curve" smooth="yes"/>
			<point x="45" y="100"/>
			<point x="121" y="-2"/>
			<point x="288" y="-16" type="curve"/>
			<point x="281" y="-54"/>
			<point x="274" y="-92"/>
			<point x="267" y="-130" type="curve"/>
		</contour>
		<contour>
			<point x="379" y="90" type="curve"/>
			<point x="377" y="119"/>
			<point x="376" y="146"/>
			<point x="374" y="180" type="curve"/>
			<point x="359" y="192" type="line"/>
			<point x="327" y="188" type="line"/>
			<point x="321" y="154"/>
			<point x="315" y="125"/>
			<point x="308" y="89" type="curve"/>
			<point x="277" y="110"/>
			<point x="269" y="163"/>
			<point x="269" y="240" type="curve" smooth="yes"/>
			<point x="269" y="403"/>
			<point x="300" y="447"/>
			<point x="355" y="447" type="curve" smooth="yes"/>
			<point x="419" y="447"/>
			<point x="426" y="378"/>
			<point x="426" y="283" type="curve" smooth="yes"/>
			<point x="426" y="199"/>
			<point x="423" y="118"/>
		</contour>
	</outline>
</glyph>
<glyph name="Stigma" format="2">
	<unicode hex="03DA"/>
	<advance width="750"/>
	<outline>
		<contour>
			<point x="440" y="-230" type="line"/>
			<point x="521" y="-164"/>
			<point x="578" y="-67"/>
			<point x="578" y="3" type="curve" smooth="yes"/>
			<point x="578" y="94"/>
			<point x="542" y="133"/>
			<point x="417" y="179" type="curve" smooth="yes"/>
			<point x="328" y="211"/>
			<point x="294" y="258"/>
			<point x="293" y="354" type="curve" smooth="yes"/>
			<point x="293" y="515"/>
			<point x="361" y="612"/>
			<point x="474" y="612" type="curve" smooth="yes"/>
			<point x="527" y="612"/>
			<point x="556" y="594"/>
			<point x="556" y="560" type="curve" smooth="yes"/>
			<point x="556" y="547"/>
			<point x="552" y="532"/>
			<point x="541" y="511" type="curve" smooth="yes"/>
			<point x="523" y="476" type="line"/>
			<point x="546" y="451"/>
			<point x="594" y="431"/>
			<point x="630" y="431" type="curve" smooth="yes"/>
			<point x="686" y="431"/>
			<point x="726" y="471"/>
			<point x="726" y="525" type="curve" smooth="yes"/>
			<point x="726" y="639"/>
			<point x="619" y="715"/>
			<point x="459" y="715" type="curve" smooth="yes"/>
			<point x="207" y="715"/>
			<point x="58" y="567"/>
			<point x="58" y="314" type="curve" smooth="yes"/>
			<point x="58" y="147"/>
			<point x="140" y="46"/>
			<point x="325" y="-16" type="curve" smooth="yes"/>
			<point x="401" y="-41"/>
			<point x="418" y="-55"/>
			<point x="418" y="-94" type="curve" smooth="yes"/>
			<point x="418" y="-120"/>
			<point x="405" y="-146"/>
			<point x="375" y="-180" type="curve"/>
		</contour>
	</outline>
</glyph>
<glyph name="E-cy" format="2">
	<unicode hex="0404"/>
	<advance width="756"/>
	<outline>
		<contour>
			<point x="542" y="512" type="curve" smooth="yes"/>
			<point x="523" y="476" type="line"/>
			<point x="550" y="448"/>
			<point x="597" y="431"/>
			<point x="634" y="431" type="curve" smooth="yes"/>
			<point x="685" y="431"/>
			<point x="726" y="470"/>
			<point x="726" y="525" type="curve" smooth="yes"/>
			<point x="726" y="635"/>
			<point x="626" y="715"/>
			<point x="449" y="715" type="curve" smooth="yes"/>
			<point x="214" y="715"/>
			<point x="58" y="573"/>
			<point x="58" y="316" type="curve" smooth="yes"/>
			<point x="58" y="95"/>
			<point x="190" y="-14"/>
			<point x="404" y="-14" type="curve" smooth="yes"/>
			<point x="563" y="-14"/>
			<point x="660" y="78"/>
			<point x="719" y="162" type="curve"/>
			<point x="636" y="227" type="line"/>
			<point x="583" y="160"/>
			<point x="524" y="115"/>
			<point x="450" y="115" type="curve" smooth="yes"/>
			<point x="353" y="115"/>
			<point x="303" y="167"/>
			<point x="294" y="292" type="curve"/>
			<point x="582" y="292" type="line"/>
			<point x="587" y="401" type="line"/>
			<point x="296" y="401" type="line"/>
			<point x="312" y="543"/>
			<point x="378" y="612"/>
			<point x="477" y="612" type="curve" smooth="yes"/>
			<point x="554" y="612"/>
			<point x="572" y="569"/>
		</contour>
	</outline>
	<anchor name="top" x="412" y="730"/>
</glyph>
<glyph name="Nje-cy" format="2">
	<unicode hex="040A"/>
	<advance width="1154"/>
	<outline>
		<contour>
			<point x="572" y="299" type="line"/>
			<point x="563" y="107" type="line"/>
			<point x="470" y="93" type="line"/>
			<point x="463" y="0" type="line"/>
			<point x="830" y="0" type="line" smooth="yes"/>
			<point x="1049" y="0"/>
			<point x="1169" y="86"/>
			<point x="1169" y="243" type="curve" smooth="yes"/>
			<point x="1169" y="359"/>
			<point x="1076" y="429"/>
			<point x="940" y="429" type="curve" smooth="yes"/>
			<point x="890" y="429"/>
			<point x="867" y="426"/>
			<point x="830" y="419" type="curve"/>
			<point x="828" y="328" type="line"/>
			<point x="838" y="329"/>
			<point x="848" y="329"/>
			<point x="867" y="329" type="curve" smooth="yes"/>
			<point x="914" y="329"/>
			<point x="947" y="296"/>
			<point x="947" y="232" type="curve" smooth="yes"/>
			<point x="947" y="141"/>
			<point x="891" y="106"/>
			<point x="809" y="106" type="curve" smooth="yes"/>
			<point x="792" y="106" type="line"/>
			<point x="816" y="598" type="line"/>
			<point x="893" y="612" type="line"/>
			<point x="897" y="700" type="line"/>
			<point x="504" y="700" type="line"/>
			<point x="498" y="614" type="line"/>
			<point x="587" y="597" type="line"/>
			<point x="578" y="408" type="line"/>
			<point x="363" y="408" type="line"/>
			<point x="372" y="598" type="line"/>
			<point x="449" y="612" type="line"/>
			<point x="453" y="700" type="line"/>
			<point x="60" y="700" type="line"/>
			<point x="54" y="614" type="line"/>
			<point x="143" y="597" type="line"/>
			<point x="119" y="102" type="line"/>
			<point x="34" y="91" type="line"/>
			<point x="28" y="0" type="line"/>
			<point x="421" y="0" type="line"/>
			<point x="427" y="92" type="line"/>
			<point x="348" y="107" type="line"/>
			<point x="358" y="299" type="line"/>
		</contour>
	</outline>
</glyph>
<glyph name="Tshe-cy" format="2">
	<unicode hex="040B"/>
	<advance width="1031"/>
	<outline>
		<contour>
			<point x="516" y="434" type="curve"/>
			<point x="525" y="606" type="line"/>
			<point x="583" y="606" type="line" smooth="yes"/>
			<point x="629" y="606"/>
			<point x="651" y="599"/>
			<point x="666" y="537" type="curve" smooth="yes"/>
			<point x="675" y="499" type="line"/>
			<point x="785" y="512" type="line"/>
			<point x="767" y="700" type="line"/>
			<point x="69" y="700" type="line"/>
			<point x="37" y="469" type="line"/>
			<point x="150" y="458" type="line"/>
			<point x="173" y="537" type="line" smooth="yes"/>
			<point x="188" y="590"/>
			<point x="203" y="606"/>
			<point x="253" y="606" type="curve" smooth="yes"/>
			<point x="296" y="606" type="line"/>
			<point x="270" y="105" type="line"/>
			<point x="183" y="91" type="line"/>
			<point x="178" y="0" type="line"/>
			<point x="569" y="0" type="line"/>
			<point x="574" y="88" type="line"/>
			<point x="499" y="105" type="line"/>
			<point x="510" y="328" type="line"/>
			<point x="533" y="338"/>
			<point x="567" y="345"/>
			<point x="610" y="345" type="curve" smooth="yes"/>
			<point x="681" y="345"/>
			<point x="711" y="308"/>
			<point x="711" y="239" type="curve" smooth="yes"/>
			<point x="711" y="194"/>
			<point x="708" y="153"/>
			<point x="702" y="102" type="curve"/>
			<point x="625" y="88" type="line"/>
			<point x="621" y="0" type="line"/>
			<point x="1014" y="0" type="line"/>
			<point x="1020" y="86" type="line"/>
			<point x="931" y="103" type="line"/>
			<point x="936" y="140"/>
			<point x="940" y="177"/>
			<point x="940" y="254" type="curve" smooth="yes"/>
			<point x="940" y="390"/>
			<point x="847" y="464"/>
			<point x="688" y="464" type="curve" smooth="yes"/>
			<point x="623" y="464"/>
			<point x="565" y="456"/>
		</contour>
	</outline>
</glyph>
<glyph name="Dzhe-cy" format="2">
	<unicode hex="040F"/>
	<advance width="909"/>
	<outline>
		<contour>
			<point x="401" y="-144" type="line"/>
			<point x="479" y="-144" type="line"/>
			<point x="526" y="0" type="line"/>
			<point x="882" y="0" type="line"/>
			<point x="888" y="94" type="line"/>
			<point x="790" y="107" type="line"/>
			<point x="815" y="595" type="line"/>
			<point x="902" y="609" type="line"/>
			<point x="907" y="700" type="line"/>
			<point x="516" y="700" type="line"/>
			<point x="511" y="612" type="line"/>
			<point x="586" y="595" type="line"/>
			<point x="561" y="109" type="line"/>
			<point x="347" y="109" type="line"/>
			<point x="372" y="598" type="line"/>
			<point x="449" y="612" type="line"/>
			<point x="453" y="700" type="line"/>
			<point x="60" y="700" type="line"/>
			<point x="54" y="614" type="line"/>
			<point x="143" y="597" type="line"/>
			<point x="119" y="102" type="line"/>
			<point x="34" y="91" type="line"/>
			<point x="28" y="0" type="line"/>
			<point x="371" y="0" type="line"/>
		</contour>
	</outline>
</glyph>
<glyph name="Ge-cy" format="2">
	<unicode hex="0413"/>
	<advance width="659"/>
	<outline>
		<contour>
			<point x="33" y="92" type="line"/>
			<point x="28" y="0" type="line"/>
			<point x="487" y="0" type="line"/>
			<point x="494" y="94" type="line"/>
			<point x="357" y="107" type="line"/>
			<point x="379" y="596" type="line"/>
			<point x="455" y="596" type="line" smooth="yes"/>
			<point x="517" y="596"/>
			<point x="536" y="587"/>
			<point x="549" y="532" type="curve" smooth="yes"/>
			<point x="567" y="458" type="line"/>
			<point x="676" y="468" type="line"/>
			<point x="657" y="700" type="line"/>
			<point x="60" y="700" type="line"/>
			<point x="53" y="613" type="line"/>
			<point x="150" y="596" type="line"/>
			<point x="126" y="105" type="line"/>
		</contour>
	</outline>
	<anchor name="top" x="367" y="730"/>
</glyph>
<glyph name="De-cy" format="2">
	<unicode hex="0414"/>
	<advance width="776"/>
	<outline>
		<contour>
			<point x="-43" y="-156" type="line"/>
			<point x="73" y="-156" type="line"/>
			<point x="88" y="-50"/>
			<point x="103" y="0"/>
			<point x="169" y="0" type="curve" smooth="yes"/>
			<point x="549" y="0" type="line" smooth="yes"/>
			<point x="596" y="0"/>
			<point x="620" y="-38"/>
			<point x="631" y="-148" type="curve"/>
			<point x="741" y="-152" type="line"/>
			<point x="768" y="109" type="line"/>
			<point x="643" y="109" type="line"/>
			<point x="667" y="595" type="line"/>
			<point x="747" y="609" type="line"/>
			<point x="752" y="700" type="line"/>
			<point x="85" y="700" type="line"/>
			<point x="80" y="614" type="line"/>
			<point x="161" y="597" type="line"/>
			<point x="151" y="362"/>
			<point x="114" y="180"/>
			<point x="70" y="109" type="curve"/>
			<point x="-29" y="109" type="line"/>
		</contour>
		<contour>
			<point x="183" y="109" type="line"/>
			<point x="229" y="213"/>
			<point x="254" y="388"/>
			<point x="266" y="591" type="curve"/>
			<point x="436" y="591" type="line"/>
			<point x="412" y="109" type="line"/>
		</contour>
	</outline>
</glyph>
<glyph name="Ka-cy" format="2">
	<unicode hex="041A"/>
	<advance width="844"/>
	<outline>
		<contour>
			<point x="383" y="390" type="curve"/>
			<point x="380" y="310" type="line"/>
			<point x="455" y="310"/>
			<point x="475" y="283"/>
			<point x="494" y="227" type="curve" smooth="yes"/>
			<point x="511" y="177"/>
			<point x="519" y="154"/>
			<point x="539" y="102" type="curve" smooth="yes"/>
			<point x="564" y="37"/>
			<point x="603" y="-14"/>
			<point x="705" y="-14" type="curve" smooth="yes"/>
			<point x="770" y="-14"/>
			<point x="831" y="13"/>
			<point x="873" y="40" type="curve"/>
			<point x="851" y="130" type="line"/>
			<point x="839" y="125"/>
			<point x="823" y="120"/>
			<point x="805" y="120" type="curve" smooth="yes"/>
			<point x="780" y="120"/>
			<point x="770" y="134"/>
			<point x="751" y="171" type="curve" smooth="yes"/>
			<point x="733" y="206"/>
			<point x="723" y="227"/>
			<point x="713" y="249" type="curve" smooth="yes"/>
			<point x="687" y="307"/>
			<point x="648" y="349"/>
			<point x="534" y="358" type="curve"/>
			<point x="534" y="362" type="line"/>
			<point x="577" y="372"/>
			<point x="600" y="415"/>
			<point x="632" y="478" type="curve" smooth="yes"/>
			<point x="673" y="558"/>
			<point x="679" y="569"/>
			<point x="690" y="569" type="curve" smooth="yes"/>
			<point x="697" y="569"/>
			<point x="703" y="563"/>
			<point x="710" y="554" type="curve" smooth="yes"/>
			<point x="758" y="495" type="line"/>
			<point x="807" y="517"/>
			<point x="844" y="558"/>
			<point x="844" y="610" type="curve" smooth="yes"/>
			<point x="844" y="673"/>
			<point x="800" y="711"/>
			<point x="733" y="711" type="curve" smooth="yes"/>
			<point x="638" y="711"/>
			<point x="600" y="638"/>
			<point x="563" y="562" type="curve" smooth="yes"/>
			<point x="501" y="435"/>
			<point x="469" y="390"/>
		</contour>
		<contour>
			<point x="139" y="594" type="line"/>
			<point x="116" y="105" type="line"/>
			<point x="32" y="95" type="line"/>
			<point x="28" y="0" type="line"/>
			<point x="441" y="0" type="line"/>
			<point x="445" y="95" type="line"/>
			<point x="347" y="108" type="line"/>
			<point x="370" y="597" type="line"/>
			<point x="456" y="611" type="line"/>
			<point x="464" y="700" type="line"/>
			<point x="58" y="700" type="line"/>
			<point x="51" y="611" type="line"/>
		</contour>
	</outline>
	<anchor name="top" x="453" y="730"/>
</glyph>
<glyph name="El-cy" format="2">
	<unicode hex="041B"/>
	<advance width="849"/>
	<outline>
		<contour>
			<point x="526" y="591" type="line"/>
			<point x="501" y="104" type="line"/>
			<point x="427" y="92" type="line"/>
			<point x="421" y="0" type="line"/>
			<point x="822" y="0" type="line"/>
			<point x="828" y="94" type="line"/>
			<point x="730" y="107" type="line"/>
			<point x="755" y="595" type="line"/>
			<point x="837" y="609" type="line"/>
			<point x="842" y="700" type="line"/>
			<point x="174" y="700" type="line"/>
			<point x="168" y="614" type="line"/>
			<point x="257" y="597" type="line"/>
			<point x="242" y="360"/>
			<point x="220" y="232"/>
			<point x="162" y="127" type="curve"/>
			<point x="102" y="212" type="line"/>
			<point x="43" y="212"/>
			<point x="-13" y="171"/>
			<point x="-13" y="101" type="curve" smooth="yes"/>
			<point x="-13" y="29"/>
			<point x="42" y="-15"/>
			<point x="115" y="-15" type="curve" smooth="yes"/>
			<point x="296" y="-15"/>
			<point x="339" y="310"/>
			<point x="363" y="591" type="curve"/>
		</contour>
	</outline>
</glyph>
<glyph name="Ef-cy" format="2">
	<unicode hex="0424"/>
	<advance width="949"/>
	<outline>
		<contour>
			<point x="264" y="-43" type="line"/>
			<point x="677" y="-43" type="line"/>
			<point x="681" y="52" type="line"/>
			<point x="583" y="65" type="line"/>
			<point x="585" y="109" type="line"/>
			<point x="616" y="99"/>
			<point x="669" y="93"/>
			<point x="711" y="93" type="curve" smooth="yes"/>
			<point x="867" y="93"/>
			<point x="949" y="229"/>
			<point x="949" y="355" type="curve" smooth="yes"/>
			<point x="949" y="513"/>
			<point x="853" y="598"/>
			<point x="720" y="598" type="curve" smooth="yes"/>
			<point x="688" y="598"/>
			<point x="638" y="591"/>
			<point x="606" y="579" type="curve"/>
			<point x="608" y="630" type="line"/>
			<point x="694" y="644" type="line"/>
			<point x="702" y="733" type="line"/>
			<point x="296" y="733" type="line"/>
			<point x="289" y="644" type="line"/>
			<point x="377" y="627" type="line"/>
			<point x="375" y="579" type="line"/>
			<point x="342" y="592"/>
			<point x="299" y="598"/>
			<point x="246" y="598" type="curve" smooth="yes"/>
			<point x="91" y="598"/>
			<point x="9" y="462"/>
			<point x="9" y="336" type="curve" smooth="yes"/>
			<point x="9" y="178"/>
			<point x="105" y="93"/>
			<point x="238" y="93" type="curve" smooth="yes"/>
			<point x="276" y="93"/>
			<point x="328" y="99"/>
			<point x="354" y="109" type="curve"/>
			<point x="352" y="62" type="line"/>
			<point x="268" y="52" type="line"/>
		</contour>
		<contour>
			<point x="307" y="192" type="curve" smooth="yes"/>
			<point x="254" y="192"/>
			<point x="227" y="241"/>
			<point x="227" y="330" type="curve" smooth="yes"/>
			<point x="227" y="434"/>
			<point x="266" y="500"/>
			<point x="317" y="500" type="curve" smooth="yes"/>
			<point x="331" y="500"/>
			<point x="361" y="497"/>
			<point x="371" y="490" type="curve"/>
			<point x="358" y="198" type="line"/>
			<point x="351" y="195"/>
			<point x="322" y="192"/>
		</contour>
		<contour>
			<point x="589" y="199" type="curve"/>
			<point x="602" y="489" type="line"/>
			<point x="608" y="493"/>
			<point x="639" y="499"/>
			<point x="656" y="499" type="curve" smooth="yes"/>
			<point x="703" y="499"/>
			<point x="731" y="453"/>
			<point x="731" y="371" type="curve" smooth="yes"/>
			<point x="731" y="258"/>
			<point x="698" y="191"/>
			<point x="641" y="191" type="curve" smooth="yes"/>
			<point x="629" y="191"/>
			<point x="599" y="193"/>
		</contour>
	</outline>
	<guideline x="437" y="330" angle="0"/>
</glyph>
<glyph name="Tse-cy" format="2">
	<unicode hex="0426"/>
	<advance width="906"/>
	<outline>
		<contour>
			<point x="349" y="109" type="line"/>
			<point x="372" y="598" type="line"/>
			<point x="449" y="612" type="line"/>
			<point x="453" y="700" type="line"/>
			<point x="60" y="700" type="line"/>
			<point x="54" y="614" type="line"/>
			<point x="143" y="597" type="line"/>
			<point x="119" y="102" type="line"/>
			<point x="34" y="91" type="line"/>
			<point x="28" y="0" type="line"/>
			<point x="680" y="0" type="line" smooth="yes"/>
			<point x="751" y="0"/>
			<point x="756" y="-23"/>
			<point x="772" y="-148" type="curve"/>
			<point x="881" y="-152" type="line"/>
			<point x="908" y="109" type="line"/>
			<point x="790" y="109" type="line"/>
			<point x="815" y="595" type="line"/>
			<point x="902" y="609" type="line"/>
			<point x="907" y="700" type="line"/>
			<point x="516" y="700" type="line"/>
			<point x="511" y="612" type="line"/>
			<point x="586" y="595" type="line"/>
			<point x="563" y="109" type="line"/>
		</contour>
	</outline>
	<guideline x="563" y="109" angle="0"/>
</glyph>
<glyph name="Sha-cy" format="2">
	<unicode hex="0428"/>
	<advance width="1290"/>
	<outline>
		<contour>
			<point x="28" y="0" type="line"/>
			<point x="1263" y="0" type="line"/>
			<point x="1269" y="94" type="line"/>
			<point x="1171" y="107" type="line"/>
			<point x="1196" y="595" type="line"/>
			<point x="1283" y="609" type="line"/>
			<point x="1288" y="700" type="line"/>
			<point x="897" y="700" type="line"/>
			<point x="892" y="612" type="line"/>
			<point x="967" y="595" type="line"/>
			<point x="944" y="109" type="line"/>
			<point x="760" y="109" type="line"/>
			<point x="785" y="595" type="line"/>
			<point x="861" y="609" type="line"/>
			<point x="866" y="700" type="line"/>
			<point x="486" y="700" type="line"/>
			<point x="481" y="612" type="line"/>
			<point x="556" y="595" type="line"/>
			<point x="533" y="109" type="line"/>
			<point x="349" y="109" type="line"/>
			<point x="372" y="598" type="line"/>
			<point x="449" y="612" type="line"/>
			<point x="453" y="700" type="line"/>
			<point x="60" y="700" type="line"/>
			<point x="54" y="614" type="line"/>
			<point x="143" y="597" type="line"/>
			<point x="119" y="102" type="line"/>
			<point x="34" y="91" type="line"/>
		</contour>
	</outline>
	<guideline x="457" y="547" angle="0"/>
	<guideline x="461" y="629" angle="0"/>
</glyph>
<glyph name="Hardsign-cy" format="2">
	<unicode hex="042A"/>
	<advance width="828"/>
	<outline>
		<contour>
			<point x="262" y="606" type="line"/>
			<point x="238" y="107" type="line"/>
			<point x="145" y="93" type="line"/>
			<point x="138" y="0" type="line"/>
			<point x="505" y="0" type="line" smooth="yes"/>
			<point x="724" y="0"/>
			<point x="854" y="86"/>
			<point x="854" y="243" type="curve" smooth="yes"/>
			<point x="854" y="359"/>
			<point x="761" y="429"/>
			<point x="615" y="429" type="curve" smooth="yes"/>
			<point x="565" y="429"/>
			<point x="542" y="426"/>
			<point x="505" y="419" type="curve"/>
			<point x="503" y="328" type="line"/>
			<point x="513" y="329"/>
			<point x="523" y="329"/>
			<point x="542" y="329" type="curve" smooth="yes"/>
			<point x="599" y="329"/>
			<point x="632" y="296"/>
			<point x="632" y="232" type="curve" smooth="yes"/>
			<point x="632" y="141"/>
			<point x="566" y="106"/>
			<point x="484" y="106" type="curve" smooth="yes"/>
			<point x="467" y="106" type="line"/>
			<point x="491" y="598" type="line"/>
			<point x="568" y="612" type="line"/>
			<point x="572" y="700" type="line"/>
			<point x="28" y="700" type="line"/>
			<point x="-5" y="469" type="line"/>
			<point x="109" y="458" type="line"/>
			<point x="133" y="537" type="line" smooth="yes"/>
			<point x="149" y="590"/>
			<point x="166" y="606"/>
			<point x="221" y="606" type="curve" smooth="yes"/>
		</contour>
	</outline>
	<anchor name="top" x="329" y="730"/>
</glyph>
<glyph name="Ereversed-cy" format="2">
	<unicode hex="042D"/>
	<advance width="690"/>
	<outline>
		<contour>
			<point x="455" y="408" type="curve"/>
			<point x="175" y="408" type="line"/>
			<point x="168" y="299" type="line"/>
			<point x="453" y="308" type="line"/>
			<point x="440" y="167"/>
			<point x="378" y="89"/>
			<point x="277" y="89" type="curve" smooth="yes"/>
			<point x="200" y="89"/>
			<point x="182" y="132"/>
			<point x="212" y="189" type="curve" smooth="yes"/>
			<point x="231" y="225" type="line"/>
			<point x="204" y="253"/>
			<point x="157" y="270"/>
			<point x="120" y="270" type="curve" smooth="yes"/>
			<point x="69" y="270"/>
			<point x="28" y="231"/>
			<point x="28" y="176" type="curve" smooth="yes"/>
			<point x="28" y="66"/>
			<point x="128" y="-14"/>
			<point x="305" y="-14" type="curve" smooth="yes"/>
			<point x="540" y="-14"/>
			<point x="691" y="138"/>
			<point x="691" y="385" type="curve" smooth="yes"/>
			<point x="691" y="596"/>
			<point x="564" y="715"/>
			<point x="350" y="715" type="curve" smooth="yes"/>
			<point x="191" y="715"/>
			<point x="105" y="640"/>
			<point x="46" y="553" type="curve"/>
			<point x="129" y="488" type="line"/>
			<point x="178" y="553"/>
			<point x="230" y="586"/>
			<point x="304" y="586" type="curve" smooth="yes"/>
			<point x="400" y="586"/>
			<point x="446" y="526"/>
		</contour>
	</outline>
	<anchor name="top" x="350" y="730"/>
</glyph>
<glyph name="ve-cy" format="2">
	<unicode hex="0432"/>
	<advance width="625"/>
	<outline>
		<contour>
			<point x="304" y="-16" type="curve" smooth="yes"/>
			<point x="485" y="-16"/>
			<point x="597" y="75"/>
			<point x="597" y="175" type="curve" smooth="yes"/>
			<point x="597" y="256"/>
			<point x="510" y="303"/>
			<point x="387" y="291" type="curve"/>
			<point x="387" y="297" type="line"/>
			<point x="476" y="303"/>
			<point x="579" y="337"/>
			<point x="579" y="430" type="curve" smooth="yes"/>
			<point x="579" y="497"/>
			<point x="514" y="541"/>
			<point x="384" y="541" type="curve" smooth="yes"/>
			<point x="155" y="541"/>
			<point x="38" y="400"/>
			<point x="38" y="213" type="curve" smooth="yes"/>
			<point x="38" y="75"/>
			<point x="123" y="-16"/>
		</contour>
		<contour>
			<point x="304" y="70" type="curve" smooth="yes"/>
			<point x="273" y="70"/>
			<point x="253" y="92"/>
			<point x="253" y="141" type="curve" smooth="yes"/>
			<point x="253" y="159"/>
			<point x="253" y="183"/>
			<point x="256" y="213" type="curve"/>
			<point x="267" y="217"/>
			<point x="301" y="220"/>
			<point x="310" y="220" type="curve" smooth="yes"/>
			<point x="340" y="220"/>
			<point x="364" y="198"/>
			<point x="364" y="154" type="curve" smooth="yes"/>
			<point x="364" y="108"/>
			<point x="336" y="70"/>
		</contour>
		<contour>
			<point x="260" y="295" type="line"/>
			<point x="274" y="424"/>
			<point x="315" y="457"/>
			<point x="355" y="457" type="curve" smooth="yes"/>
			<point x="376" y="457"/>
			<point x="390" y="444"/>
			<point x="390" y="423" type="curve" smooth="yes"/>
			<point x="390" y="370"/>
			<point x="334" y="322"/>
			<point x="287" y="305" type="curve" smooth="yes"/>
		</contour>
	</outline>
</glyph>
<glyph name="ge-cy" format="2">
	<unicode hex="0433"/>
	<advance width="574"/>
	<outline>
		<contour>
			<point x="51" y="463" type="curve"/>
			<point x="92" y="377" type="line"/>
			<point x="151" y="403"/>
			<point x="200" y="414"/>
			<point x="225" y="414" type="curve" smooth="yes"/>
			<point x="258" y="414"/>
			<point x="280" y="403"/>
			<point x="280" y="372" type="curve" smooth="yes"/>
			<point x="280" y="342"/>
			<point x="266" y="320"/>
			<point x="201" y="287" type="curve" smooth="yes"/>
			<point x="104" y="238"/>
			<point x="35" y="203"/>
			<point x="35" y="122" type="curve" smooth="yes"/>
			<point x="35" y="33"/>
			<point x="123" y="-17"/>
			<point x="253" y="-17" type="curve" smooth="yes"/>
			<point x="345" y="-17"/>
			<point x="435" y="3"/>
			<point x="537" y="73" type="curve"/>
			<point x="496" y="164" type="line"/>
			<point x="451" y="140"/>
			<point x="395" y="126"/>
			<point x="356" y="126" type="curve" smooth="yes"/>
			<point x="309" y="126"/>
			<point x="284" y="148"/>
			<point x="284" y="177" type="curve" smooth="yes"/>
			<point x="284" y="208"/>
			<point x="312" y="224"/>
			<point x="387" y="266" type="curve" smooth="yes"/>
			<point x="489" y="323"/>
			<point x="546" y="356"/>
			<point x="546" y="428" type="curve" smooth="yes"/>
			<point x="546" y="504"/>
			<point x="460" y="541"/>
			<point x="354" y="541" type="curve" smooth="yes"/>
			<point x="221" y="541"/>
			<point x="131" y="506"/>
		</contour>
	</outline>
	<anchor name="top" x="265" y="550"/>
</glyph>
<glyph name="zhe-cy" format="2">
	<unicode hex="0436"/>
	<advance width="920"/>
	<outline>
		<contour>
			<point x="503" y="226" type="line"/>
			<point x="560" y="529" type="line"/>
			<point x="371" y="529" type="line"/>
			<point x="358" y="307" type="line"/>
			<point x="326" y="294" type="line"/>
			<point x="308" y="362"/>
			<point x="294" y="409"/>
			<point x="278" y="450" type="curve" smooth="yes"/>
			<point x="255" y="508"/>
			<point x="225" y="541"/>
			<point x="176" y="541" type="curve" smooth="yes"/>
			<point x="142" y="541"/>
			<point x="79" y="507"/>
			<point x="16" y="442" type="curve"/>
			<point x="60" y="372" type="line"/>
			<point x="73" y="382"/>
			<point x="89" y="393"/>
			<point x="104" y="393" type="curve" smooth="yes"/>
			<point x="124" y="393"/>
			<point x="138" y="358"/>
			<point x="158" y="304" type="curve" smooth="yes"/>
			<point x="170" y="272"/>
			<point x="177" y="251"/>
			<point x="184" y="226" type="curve"/>
			<point x="91" y="181"/>
			<point x="39" y="128"/>
			<point x="39" y="70" type="curve" smooth="yes"/>
			<point x="39" y="24"/>
			<point x="69" y="-15"/>
			<point x="131" y="-15" type="curve" smooth="yes"/>
			<point x="173" y="-15"/>
			<point x="219" y="8"/>
			<point x="239" y="58" type="curve"/>
			<point x="214" y="86" type="line" smooth="yes"/>
			<point x="199" y="103"/>
			<point x="195" y="109"/>
			<point x="195" y="118" type="curve" smooth="yes"/>
			<point x="195" y="135"/>
			<point x="263" y="173"/>
			<point x="345" y="214" type="curve"/>
			<point x="328" y="0" type="line"/>
			<point x="511" y="0" type="line"/>
			<point x="517" y="64" type="line"/>
			<point x="550" y="128"/>
			<point x="567" y="158"/>
			<point x="591" y="198" type="curve"/>
			<point x="608" y="165"/>
			<point x="629" y="120"/>
			<point x="645" y="90" type="curve" smooth="yes"/>
			<point x="693" y="0"/>
			<point x="711" y="-14"/>
			<point x="753" y="-14" type="curve" smooth="yes"/>
			<point x="788" y="-14"/>
			<point x="846" y="11"/>
			<point x="924" y="101" type="curve"/>
			<point x="877" y="168" type="line"/>
			<point x="862" y="153"/>
			<point x="849" y="143"/>
			<point x="834" y="143" type="curve" smooth="yes"/>
			<point x="808" y="143"/>
			<point x="797" y="167"/>
			<point x="750" y="251" type="curve" smooth="yes"/>
			<point x="727" y="292"/>
			<point x="700" y="333"/>
			<point x="680" y="363" type="curve"/>
			<point x="691" y="383"/>
			<point x="695" y="391"/>
			<point x="703" y="400" type="curve" smooth="yes"/>
			<point x="726" y="427"/>
			<point x="748" y="423"/>
			<point x="775" y="378" type="curve" smooth="yes"/>
			<point x="792" y="350" type="line"/>
			<point x="851" y="375"/>
			<point x="876" y="411"/>
			<point x="876" y="451" type="curve" smooth="yes"/>
			<point x="876" y="495"/>
			<point x="845" y="541"/>
			<point x="771" y="541" type="curve" smooth="yes"/>
			<point x="678" y="541"/>
			<point x="627" y="466"/>
			<point x="577" y="369" type="curve" smooth="yes"/>
			<point x="565" y="345"/>
			<point x="539" y="287"/>
			<point x="512" y="225" type="curve"/>
		</contour>
	</outline>
</glyph>
<glyph name="ka-cy" format="2">
	<unicode hex="043A"/>
	<advance width="690"/>
	<outline>
		<contour>
			<point x="238" y="175" type="line"/>
			<point x="292" y="423" type="line" smooth="yes"/>
			<point x="307" y="494"/>
			<point x="258" y="541"/>
			<point x="195" y="541" type="curve" smooth="yes"/>
			<point x="155" y="541"/>
			<point x="83" y="535"/>
			<point x="13" y="502" type="curve"/>
			<point x="36" y="417" type="line"/>
			<point x="50" y="423"/>
			<point x="66" y="428"/>
			<point x="79" y="428" type="curve" smooth="yes"/>
			<point x="94" y="428"/>
			<point x="101" y="415"/>
			<point x="99" y="395" type="curve" smooth="yes"/>
			<point x="65" y="0" type="line"/>
			<point x="261" y="0" type="line"/>
			<point x="291" y="76"/>
			<point x="334" y="169"/>
			<point x="349" y="199" type="curve"/>
			<point x="364" y="169"/>
			<point x="389" y="120"/>
			<point x="405" y="90" type="curve" smooth="yes"/>
			<point x="453" y="0"/>
			<point x="471" y="-14"/>
			<point x="513" y="-14" type="curve" smooth="yes"/>
			<point x="548" y="-14"/>
			<point x="606" y="11"/>
			<point x="684" y="101" type="curve"/>
			<point x="637" y="168" type="line"/>
			<point x="622" y="153"/>
			<point x="609" y="143"/>
			<point x="594" y="143" type="curve" smooth="yes"/>
			<point x="568" y="143"/>
			<point x="557" y="167"/>
			<point x="510" y="251" type="curve" smooth="yes"/>
			<point x="487" y="292"/>
			<point x="460" y="333"/>
			<point x="440" y="363" type="curve"/>
			<point x="451" y="383"/>
			<point x="456" y="391"/>
			<point x="463" y="400" type="curve" smooth="yes"/>
			<point x="471" y="410"/>
			<point x="480" y="420"/>
			<point x="491" y="420" type="curve" smooth="yes"/>
			<point x="508" y="420"/>
			<point x="520" y="403"/>
			<point x="535" y="378" type="curve" smooth="yes"/>
			<point x="552" y="350" type="line"/>
			<point x="611" y="375"/>
			<point x="636" y="411"/>
			<point x="636" y="451" type="curve" smooth="yes"/>
			<point x="636" y="495"/>
			<point x="605" y="541"/>
			<point x="531" y="541" type="curve" smooth="yes"/>
			<point x="438" y="541"/>
			<point x="383" y="466"/>
			<point x="330" y="362" type="curve" smooth="yes"/>
			<point x="309" y="321"/>
			<point x="273" y="237"/>
			<point x="247" y="174" type="curve"/>
		</contour>
	</outline>
	<anchor name="top" x="346" y="550"/>
</glyph>
<glyph name="em-cy" format="2">
	<unicode hex="043C"/>
	<advance width="859"/>
	<outline>
		<contour>
			<point x="395" y="-14" type="line"/>
			<point x="550" y="307" type="line"/>
			<point x="554" y="307" type="line"/>
			<point x="540" y="114" type="line" smooth="yes"/>
			<point x="534" y="31"/>
			<point x="587" y="-14"/>
			<point x="668" y="-14" type="curve" smooth="yes"/>
			<point x="744" y="-14"/>
			<point x="819" y="13"/>
			<point x="841" y="25" type="curve"/>
			<point x="816" y="110" type="line"/>
			<point x="796" y="103"/>
			<point x="784" y="99"/>
			<point x="773" y="99" type="curve" smooth="yes"/>
			<point x="759" y="99"/>
			<point x="753" y="109"/>
			<point x="754" y="129" type="curve" smooth="yes"/>
			<point x="769" y="529" type="line"/>
			<point x="559" y="529" type="line"/>
			<point x="433" y="275" type="line"/>
			<point x="429" y="275" type="line"/>
			<point x="390" y="447" type="line" smooth="yes"/>
			<point x="373" y="520"/>
			<point x="318" y="541"/>
			<point x="252" y="541" type="curve" smooth="yes"/>
			<point x="183" y="541"/>
			<point x="118" y="514"/>
			<point x="86" y="494" type="curve"/>
			<point x="125" y="414" type="line"/>
			<point x="145" y="425"/>
			<point x="160" y="429"/>
			<point x="173" y="429" type="curve" smooth="yes"/>
			<point x="179" y="429"/>
			<point x="184" y="429"/>
			<point x="189" y="428" type="curve"/>
			<point x="158" y="379"/>
			<point x="125" y="328"/>
			<point x="94" y="281" type="curve" smooth="yes"/>
			<point x="40" y="198"/>
			<point x="14" y="147"/>
			<point x="14" y="89" type="curve" smooth="yes"/>
			<point x="14" y="19"/>
			<point x="61" y="-16"/>
			<point x="113" y="-16" type="curve" smooth="yes"/>
			<point x="181" y="-16"/>
			<point x="217" y="34"/>
			<point x="214" y="111" type="curve"/>
			<point x="183" y="119" type="line" smooth="yes"/>
			<point x="147" y="128"/>
			<point x="129" y="154"/>
			<point x="151" y="191" type="curve" smooth="yes"/>
			<point x="175" y="232"/>
			<point x="197" y="274"/>
			<point x="221" y="315" type="curve"/>
			<point x="226" y="315" type="line"/>
			<point x="319" y="-14" type="line"/>
		</contour>
	</outline>
</glyph>
<glyph name="en-cy" format="2">
	<unicode hex="043D"/>
	<advance width="734"/>
	<outline>
		<contour>
			<point x="424" y="206" type="line"/>
			<point x="414" y="104" type="line" smooth="yes"/>
			<point x="407" y="31"/>
			<point x="462" y="-14"/>
			<point x="543" y="-14" type="curve" smooth="yes"/>
			<point x="612" y="-14"/>
			<point x="694" y="13"/>
			<point x="716" y="25" type="curve"/>
			<point x="691" y="110" type="line"/>
			<point x="671" y="103"/>
			<point x="659" y="99"/>
			<point x="648" y="99" type="curve" smooth="yes"/>
			<point x="634" y="99"/>
			<point x="628" y="109"/>
			<point x="629" y="129" type="curve" smooth="yes"/>
			<point x="654" y="527" type="line"/>
			<point x="454" y="527" type="line"/>
			<point x="434" y="307" type="line"/>
			<point x="299" y="307" type="line"/>
			<point x="303" y="344"/>
			<point x="308" y="394"/>
			<point x="311" y="433" type="curve" smooth="yes"/>
			<point x="317" y="506"/>
			<point x="257" y="541"/>
			<point x="186" y="541" type="curve" smooth="yes"/>
			<point x="117" y="541"/>
			<point x="35" y="514"/>
			<point x="13" y="502" type="curve"/>
			<point x="38" y="417" type="line"/>
			<point x="58" y="424"/>
			<point x="70" y="428"/>
			<point x="81" y="428" type="curve" smooth="yes"/>
			<point x="95" y="428"/>
			<point x="102" y="418"/>
			<point x="100" y="398" type="curve" smooth="yes"/>
			<point x="67" y="0" type="line"/>
			<point x="264" y="0" type="line"/>
			<point x="285" y="187" type="line"/>
		</contour>
	</outline>
</glyph>
<glyph name="sha-cy" format="2">
	<unicode hex="0448"/>
	<advance width="1098"/>
	<outline>
		<contour>
			<point x="13" y="502" type="curve"/>
			<point x="39" y="416" type="line"/>
			<point x="60" y="423"/>
			<point x="75" y="428"/>
			<point x="88" y="428" type="curve" smooth="yes"/>
			<point x="103" y="428"/>
			<point x="113" y="419"/>
			<point x="111" y="388" type="curve" smooth="yes"/>
			<point x="90" y="121" type="line" smooth="yes"/>
			<point x="84" y="48"/>
			<point x="124" y="-14"/>
			<point x="229" y="-14" type="curve" smooth="yes"/>
			<point x="355" y="-14"/>
			<point x="391" y="58"/>
			<point x="423" y="169" type="curve" smooth="yes"/>
			<point x="486" y="387" type="line"/>
			<point x="495" y="385" type="line"/>
			<point x="483" y="299"/>
			<point x="471" y="212"/>
			<point x="459" y="126" type="curve" smooth="yes"/>
			<point x="444" y="20"/>
			<point x="491" y="-14"/>
			<point x="581" y="-14" type="curve" smooth="yes"/>
			<point x="688" y="-14"/>
			<point x="725" y="45"/>
			<point x="757" y="159" type="curve" smooth="yes"/>
			<point x="820" y="387" type="line"/>
			<point x="832" y="385" type="line"/>
			<point x="796" y="99" type="line" smooth="yes"/>
			<point x="788" y="36"/>
			<point x="832" y="-14"/>
			<point x="917" y="-14" type="curve" smooth="yes"/>
			<point x="975" y="-14"/>
			<point x="1049" y="10"/>
			<point x="1080" y="32" type="curve"/>
			<point x="1057" y="109" type="line"/>
			<point x="1047" y="105"/>
			<point x="1028" y="100"/>
			<point x="1015" y="100" type="curve" smooth="yes"/>
			<point x="997" y="100"/>
			<point x="986" y="107"/>
			<point x="987" y="144" type="curve" smooth="yes"/>
			<point x="1002" y="526" type="line"/>
			<point x="782" y="526" type="line"/>
			<point x="690" y="230" type="line" smooth="yes"/>
			<point x="667" y="156"/>
			<point x="660" y="132"/>
			<point x="642" y="132" type="curve" smooth="yes"/>
			<point x="621" y="132"/>
			<point x="623" y="151"/>
			<point x="627" y="186" type="curve" smooth="yes"/>
			<point x="663" y="526" type="line"/>
			<point x="446" y="526" type="line"/>
			<point x="364" y="252" type="line" smooth="yes"/>
			<point x="332" y="145"/>
			<point x="327" y="132"/>
			<point x="309" y="132" type="curve" smooth="yes"/>
			<point x="293" y="132"/>
			<point x="290" y="143"/>
			<point x="293" y="171" type="curve" smooth="yes"/>
			<point x="320" y="431" type="line" smooth="yes"/>
			<point x="327" y="502"/>
			<point x="270" y="541"/>
			<point x="191" y="541" type="curve" smooth="yes"/>
			<point x="121" y="541"/>
			<point x="37" y="514"/>
		</contour>
	</outline>
</glyph>
<glyph name="yeru-cy" format="2">
	<unicode hex="044B"/>
	<advance width="911"/>
	<outline>
		<contour>
			<point x="284" y="-16" type="curve" smooth="yes"/>
			<point x="455" y="-16"/>
			<point x="578" y="90"/>
			<point x="578" y="221" type="curve" smooth="yes"/>
			<point x="578" y="312"/>
			<point x="518" y="350"/>
			<point x="433" y="350" type="curve" smooth="yes"/>
			<point x="374" y="350"/>
			<point x="331" y="337"/>
			<point x="289" y="322" type="curve"/>
			<point x="295" y="356"/>
			<point x="302" y="399"/>
			<point x="305" y="433" type="curve" smooth="yes"/>
			<point x="311" y="506"/>
			<point x="270" y="541"/>
			<point x="199" y="541" type="curve" smooth="yes"/>
			<point x="130" y="541"/>
			<point x="35" y="514"/>
			<point x="13" y="502" type="curve"/>
			<point x="38" y="417" type="line"/>
			<point x="58" y="424"/>
			<point x="70" y="428"/>
			<point x="81" y="428" type="curve" smooth="yes"/>
			<point x="95" y="428"/>
			<point x="102" y="418"/>
			<point x="100" y="398" type="curve" smooth="yes"/>
			<point x="91" y="311"/>
			<point x="74" y="169"/>
			<point x="74" y="133" type="curve" smooth="yes"/>
			<point x="74" y="43"/>
			<point x="148" y="-16"/>
		</contour>
		<contour>
			<point x="298" y="77" type="curve" smooth="yes"/>
			<point x="263" y="77"/>
			<point x="257" y="98"/>
			<point x="257" y="125" type="curve" smooth="yes"/>
			<point x="257" y="150"/>
			<point x="265" y="198"/>
			<point x="273" y="231" type="curve"/>
			<point x="294" y="241"/>
			<point x="313" y="244"/>
			<point x="329" y="244" type="curve" smooth="yes"/>
			<point x="365" y="244"/>
			<point x="376" y="225"/>
			<point x="376" y="194" type="curve" smooth="yes"/>
			<point x="376" y="135"/>
			<point x="340" y="77"/>
		</contour>
		<contour>
			<point x="720" y="-16" type="curve" smooth="yes"/>
			<point x="792" y="-16"/>
			<point x="871" y="13"/>
			<point x="893" y="25" type="curve"/>
			<point x="868" y="110" type="line"/>
			<point x="848" y="103"/>
			<point x="836" y="99"/>
			<point x="825" y="99" type="curve" smooth="yes"/>
			<point x="811" y="99"/>
			<point x="804" y="109"/>
			<point x="806" y="129" type="curve" smooth="yes"/>
			<point x="841" y="527" type="line"/>
			<point x="637" y="527" type="line"/>
			<point x="596" y="106" type="line" smooth="yes"/>
			<point x="589" y="31"/>
			<point x="639" y="-16"/>
		</contour>
	</outline>
	<anchor name="top" x="480" y="550"/>
</glyph>
<glyph name="iu-cy" format="2">
	<unicode hex="044E"/>
	<advance width="964"/>
	<outline>
		<contour>
			<point x="618" y="-17" type="curve" smooth="yes"/>
			<point x="821" y="-17"/>
			<point x="922" y="127"/>
			<point x="924" y="279" type="curve" smooth="yes"/>
			<point x="926" y="428"/>
			<point x="820" y="541"/>
			<point x="659" y="541" type="curve" smooth="yes"/>
			<point x="483" y="541"/>
			<point x="381" y="436"/>
			<point x="358" y="307" type="curve"/>
			<point x="300" y="307" type="line"/>
			<point x="303" y="332"/>
			<point x="310" y="394"/>
			<point x="313" y="433" type="curve" smooth="yes"/>
			<point x="319" y="506"/>
			<point x="257" y="541"/>
			<point x="186" y="541" type="curve" smooth="yes"/>
			<point x="117" y="541"/>
			<point x="35" y="514"/>
			<point x="13" y="502" type="curve"/>
			<point x="38" y="417" type="line"/>
			<point x="58" y="424"/>
			<point x="70" y="428"/>
			<point x="81" y="428" type="curve" smooth="yes"/>
			<point x="95" y="428"/>
			<point x="102" y="418"/>
			<point x="100" y="398" type="curve" smooth="yes"/>
			<point x="68" y="0" type="line"/>
			<point x="265" y="0" type="line"/>
			<point x="286" y="187" type="line"/>
			<point x="354" y="198" type="line"/>
			<point x="367" y="70"/>
			<point x="469" y="-17"/>
		</contour>
		<contour>
			<point x="633" y="77" type="curve" smooth="yes"/>
			<point x="593" y="77"/>
			<point x="575" y="145"/>
			<point x="577" y="241" type="curve" smooth="yes"/>
			<point x="580" y="405"/>
			<point x="611" y="444"/>
			<point x="647" y="444" type="curve" smooth="yes"/>
			<point x="690" y="444"/>
			<point x="703" y="373"/>
			<point x="701" y="285" type="curve" smooth="yes"/>
			<point x="699" y="182"/>
			<point x="683" y="77"/>
		</contour>
	</outline>
	<anchor name="top" x="643" y="550"/>
</glyph>
<glyph name="dje-cy" format="2">
	<unicode hex="0452"/>
	<advance width="715"/>
	<outline>
		<contour>
			<point x="87" y="546" type="line"/>
			<point x="66" y="0" type="line"/>
			<point x="290" y="0" type="line"/>
			<point x="386" y="317" type="line" smooth="yes"/>
			<point x="408" y="390"/>
			<point x="417" y="395"/>
			<point x="433" y="395" type="curve" smooth="yes"/>
			<point x="448" y="395"/>
			<point x="451" y="385"/>
			<point x="449" y="363" type="curve" smooth="yes"/>
			<point x="424" y="28" type="line" smooth="yes"/>
			<point x="421" y="-7"/>
			<point x="418" y="-53"/>
			<point x="414" y="-84" type="curve" smooth="yes"/>
			<point x="411" y="-110"/>
			<point x="394" y="-120"/>
			<point x="353" y="-103" type="curve" smooth="yes"/>
			<point x="290" y="-77" type="line"/>
			<point x="272" y="-97"/>
			<point x="255" y="-130"/>
			<point x="255" y="-158" type="curve" smooth="yes"/>
			<point x="255" y="-203"/>
			<point x="290" y="-234"/>
			<point x="343" y="-234" type="curve" smooth="yes"/>
			<point x="405" y="-234"/>
			<point x="456" y="-188"/>
			<point x="482" y="-159" type="curve" smooth="yes"/>
			<point x="568" y="-64"/>
			<point x="622" y="20"/>
			<point x="633" y="134" type="curve" smooth="yes"/>
			<point x="641" y="215"/>
			<point x="648" y="297"/>
			<point x="654" y="378" type="curve" smooth="yes"/>
			<point x="662" y="481"/>
			<point x="618" y="541"/>
			<point x="503" y="541" type="curve" smooth="yes"/>
			<point x="375" y="541"/>
			<point x="339" y="462"/>
			<point x="314" y="372" type="curve" smooth="yes"/>
			<point x="249" y="138" type="line"/>
			<point x="238" y="140" type="line"/>
			<point x="271" y="417" type="line"/>
			<point x="277" y="546" type="line"/>
			<point x="412" y="546" type="line"/>
			<point x="417" y="638" type="line"/>
			<point x="282" y="638" type="line"/>
			<point x="287" y="743" type="line"/>
			<point x="264" y="767" type="line"/>
			<point x="15" y="767" type="line"/>
			<point x="4" y="679" type="line"/>
			<point x="92" y="665" type="line"/>
			<point x="91" y="638" type="line"/>
			<point x="16" y="638" type="line"/>
			<point x="11" y="546" type="line"/>
		</contour>
	</outline>
</glyph>
<glyph name="e-cy" format="2">
	<unicode hex="0454"/>
	<advance width="616"/>
	<outline>
		<contour>
			<point x="370" y="541" type="curve" smooth="yes"/>
			<point x="145" y="541"/>
			<point x="44" y="403"/>
			<point x="44" y="231" type="curve" smooth="yes"/>
			<point x="44" y="69"/>
			<point x="164" y="-14"/>
			<point x="310" y="-14" type="curve" smooth="yes"/>
			<point x="456" y="-14"/>
			<point x="538" y="65"/>
			<point x="566" y="98" type="curve"/>
			<point x="502" y="178" type="line"/>
			<point x="465" y="146"/>
			<point x="420" y="112"/>
			<point x="366" y="112" type="curve" smooth="yes"/>
			<point x="301" y="112"/>
			<point x="274" y="147"/>
			<point x="269" y="211" type="curve"/>
			<point x="423" y="211" type="line"/>
			<point x="428" y="303" type="line"/>
			<point x="272" y="299" type="line"/>
			<point x="283" y="377"/>
			<point x="315" y="452"/>
			<point x="383" y="452" type="curve" smooth="yes"/>
			<point x="420" y="452"/>
			<point x="443" y="435"/>
			<point x="415" y="396" type="curve" smooth="yes"/>
			<point x="390" y="362" type="line"/>
			<point x="406" y="324"/>
			<point x="450" y="307"/>
			<point x="485" y="307" type="curve" smooth="yes"/>
			<point x="541" y="307"/>
			<point x="581" y="346"/>
			<point x="581" y="399" type="curve" smooth="yes"/>
			<point x="581" y="478"/>
			<point x="489" y="541"/>
		</contour>
	</outline>
	<guideline x="345" y="534" angle="0"/>
</glyph>
<glyph name="yat-cy" format="2">
	<unicode hex="0463"/>
	<advance width="954"/>
	<outline>
		<contour>
			<point x="658" y="324" type="curve"/>
			<point x="664" y="358"/>
			<point x="667" y="372"/>
			<point x="671" y="398" type="curve" smooth="yes"/>
			<point x="685" y="483"/>
			<point x="624" y="541"/>
			<point x="524" y="541" type="curve" smooth="yes"/>
			<point x="408" y="541"/>
			<point x="364" y="484"/>
			<point x="337" y="389" type="curve" smooth="yes"/>
			<point x="266" y="138" type="line"/>
			<point x="254" y="141" type="line"/>
			<point x="291" y="431" type="line" smooth="yes"/>
			<point x="300" y="502"/>
			<point x="260" y="541"/>
			<point x="181" y="541" type="curve" smooth="yes"/>
			<point x="111" y="541"/>
			<point x="27" y="514"/>
			<point x="3" y="502" type="curve"/>
			<point x="29" y="416" type="line"/>
			<point x="50" y="423"/>
			<point x="65" y="428"/>
			<point x="78" y="428" type="curve" smooth="yes"/>
			<point x="93" y="428"/>
			<point x="101" y="418"/>
			<point x="100" y="397" type="curve" smooth="yes"/>
			<point x="83" y="0" type="line"/>
			<point x="307" y="0" type="line"/>
			<point x="402" y="315" type="line" smooth="yes"/>
			<point x="421" y="379"/>
			<point x="427" y="395"/>
			<point x="449" y="395" type="curve" smooth="yes"/>
			<point x="461" y="395"/>
			<point x="467" y="389"/>
			<point x="466" y="373" type="curve" smooth="yes"/>
			<point x="457" y="286"/>
			<point x="443" y="166"/>
			<point x="443" y="133" type="curve" smooth="yes"/>
			<point x="443" y="43"/>
			<point x="517" y="-16"/>
			<point x="653" y="-16" type="curve" smooth="yes"/>
			<point x="814" y="-16"/>
			<point x="962" y="90"/>
			<point x="962" y="221" type="curve" smooth="yes"/>
			<point x="962" y="302"/>
			<point x="895" y="350"/>
			<point x="811" y="350" type="curve" smooth="yes"/>
			<point x="752" y="350"/>
			<point x="700" y="339"/>
		</contour>
		<contour>
			<point x="642" y="231" type="curve"/>
			<point x="663" y="241"/>
			<point x="687" y="244"/>
			<point x="703" y="244" type="curve" smooth="yes"/>
			<point x="739" y="244"/>
			<point x="760" y="225"/>
			<point x="760" y="194" type="curve" smooth="yes"/>
			<point x="760" y="135"/>
			<point x="719" y="77"/>
			<point x="671" y="77" type="curve" smooth="yes"/>
			<point x="636" y="77"/>
			<point x="626" y="98"/>
			<point x="626" y="125" type="curve" smooth="yes"/>
			<point x="626" y="150"/>
			<point x="634" y="198"/>
		</contour>
	</outline>
</glyph>
<glyph name="Yusbig-cy" format="2">
	<unicode hex="046A"/>
	<advance width="1155"/>
	<outline>
		<contour>
			<point x="472" y="310" type="line"/>
			<point x="463" y="106" type="line"/>
			<point x="378" y="93" type="line"/>
			<point x="371" y="0" type="line"/>
			<point x="779" y="0" type="line"/>
			<point x="785" y="93" type="line"/>
			<point x="694" y="106" type="line"/>
			<point x="701" y="310" type="line"/>
			<point x="718" y="310" type="line" smooth="yes"/>
			<point x="763" y="310"/>
			<point x="778" y="267"/>
			<point x="790" y="227" type="curve" smooth="yes"/>
			<point x="807" y="172"/>
			<point x="811" y="154"/>
			<point x="816" y="138" type="curve" smooth="yes"/>
			<point x="852" y="24"/>
			<point x="894" y="-14"/>
			<point x="996" y="-14" type="curve" smooth="yes"/>
			<point x="1061" y="-14"/>
			<point x="1122" y="13"/>
			<point x="1164" y="40" type="curve"/>
			<point x="1142" y="130" type="line"/>
			<point x="1130" y="125"/>
			<point x="1114" y="120"/>
			<point x="1096" y="120" type="curve" smooth="yes"/>
			<point x="1071" y="120"/>
			<point x="1057" y="133"/>
			<point x="1042" y="171" type="curve" smooth="yes"/>
			<point x="1028" y="206"/>
			<point x="1019" y="226"/>
			<point x="1009" y="249" type="curve" smooth="yes"/>
			<point x="977" y="322"/>
			<point x="893" y="390"/>
			<point x="735" y="397" type="curve"/>
			<point x="907" y="592" type="line"/>
			<point x="985" y="609" type="line"/>
			<point x="992" y="700" type="line"/>
			<point x="205" y="700" type="line"/>
			<point x="198" y="609" type="line"/>
			<point x="266" y="595" type="line"/>
			<point x="447" y="398" type="line"/>
			<point x="259" y="393"/>
			<point x="191" y="305"/>
			<point x="160" y="249" type="curve" smooth="yes"/>
			<point x="112" y="162"/>
			<point x="88" y="120"/>
			<point x="59" y="120" type="curve" smooth="yes"/>
			<point x="41" y="120"/>
			<point x="25" y="125"/>
			<point x="14" y="130" type="curve"/>
			<point x="-16" y="40" type="line"/>
			<point x="24" y="13"/>
			<point x="82" y="-14"/>
			<point x="147" y="-14" type="curve" smooth="yes"/>
			<point x="254" y="-14"/>
			<point x="295" y="41"/>
			<point x="338" y="143" type="curve" smooth="yes"/>
			<point x="349" y="169"/>
			<point x="361" y="196"/>
			<point x="374" y="227" type="curve" smooth="yes"/>
			<point x="391" y="267"/>
			<point x="416" y="310"/>
			<point x="452" y="310" type="curve" smooth="yes"/>
		</contour>
		<contour>
			<point x="503" y="591" type="line"/>
			<point x="779" y="591" type="line"/>
			<point x="644" y="437" type="line"/>
			<point x="639" y="437" type="line"/>
		</contour>
	</outline>
	<guideline x="619" y="591" angle="0"/>
</glyph>
<glyph name="Gheupturn-cy" format="2">
	<unicode hex="0490"/>
	<advance width="618"/>
	<outline>
		<contour>
			<point x="33" y="92" type="line"/>
			<point x="28" y="0" type="line"/>
			<point x="487" y="0" type="line"/>
			<point x="494" y="94" type="line"/>
			<point x="357" y="107" type="line"/>
			<point x="379" y="596" type="line"/>
			<point x="636" y="596" type="line"/>
			<point x="667" y="828" type="line"/>
			<point x="558" y="838" type="line"/>
			<point x="538" y="764" type="line" smooth="yes"/>
			<point x="523" y="709"/>
			<point x="506" y="700"/>
			<point x="444" y="700" type="curve" smooth="yes"/>
			<point x="60" y="700" type="line"/>
			<point x="53" y="613" type="line"/>
			<point x="150" y="596" type="line"/>
			<point x="126" y="105" type="line"/>
		</contour>
	</outline>
</glyph>
<glyph name="Zhedescender-cy" format="2">
	<unicode hex="0496"/>
	<advance width="1228"/>
	<outline>
		<contour>
			<point x="496" y="310" type="curve"/>
			<point x="486" y="105" type="line"/>
			<point x="402" y="95" type="line"/>
			<point x="398" y="0" type="line"/>
			<point x="811" y="0" type="line"/>
			<point x="815" y="95" type="line"/>
			<point x="717" y="108" type="line"/>
			<point x="727" y="310" type="line"/>
			<point x="762" y="310"/>
			<point x="786" y="309"/>
			<point x="800" y="299" type="curve" smooth="yes"/>
			<point x="815" y="288"/>
			<point x="825" y="267"/>
			<point x="836" y="227" type="curve" smooth="yes"/>
			<point x="850" y="178"/>
			<point x="857" y="154"/>
			<point x="862" y="138" type="curve" smooth="yes"/>
			<point x="898" y="24"/>
			<point x="935" y="-14"/>
			<point x="997" y="-14" type="curve" smooth="yes"/>
			<point x="1019" y="-14"/>
			<point x="1051" y="-5"/>
			<point x="1068" y="13" type="curve"/>
			<point x="1077" y="-28"/>
			<point x="1081" y="-89"/>
			<point x="1083" y="-148" type="curve"/>
			<point x="1192" y="-152" type="line"/>
			<point x="1220" y="110" type="line"/>
			<point x="1179" y="138" type="line"/>
			<point x="1167" y="125"/>
			<point x="1157" y="117"/>
			<point x="1142" y="117" type="curve" smooth="yes"/>
			<point x="1117" y="117"/>
			<point x="1103" y="133"/>
			<point x="1088" y="171" type="curve" smooth="yes"/>
			<point x="1074" y="206"/>
			<point x="1065" y="227"/>
			<point x="1055" y="249" type="curve" smooth="yes"/>
			<point x="1029" y="307"/>
			<point x="985" y="349"/>
			<point x="871" y="358" type="curve"/>
			<point x="871" y="362" type="line"/>
			<point x="912" y="372"/>
			<point x="936" y="416"/>
			<point x="968" y="478" type="curve" smooth="yes"/>
			<point x="1010" y="559"/>
			<point x="1016" y="569"/>
			<point x="1027" y="569" type="curve" smooth="yes"/>
			<point x="1034" y="569"/>
			<point x="1039" y="563"/>
			<point x="1046" y="554" type="curve" smooth="yes"/>
			<point x="1095" y="495" type="line"/>
			<point x="1144" y="517"/>
			<point x="1181" y="558"/>
			<point x="1181" y="610" type="curve" smooth="yes"/>
			<point x="1181" y="673"/>
			<point x="1137" y="711"/>
			<point x="1070" y="711" type="curve" smooth="yes"/>
			<point x="975" y="711"/>
			<point x="934" y="639"/>
			<point x="900" y="562" type="curve" smooth="yes"/>
			<point x="860" y="472"/>
			<point x="836" y="425"/>
			<point x="812" y="406" type="curve" smooth="yes"/>
			<point x="793" y="391"/>
			<point x="767" y="390"/>
			<point x="730" y="390" type="curve"/>
			<point x="740" y="597" type="line"/>
			<point x="826" y="611" type="line"/>
			<point x="854" y="700" type="line"/>
			<point x="428" y="700" type="line"/>
			<point x="421" y="611" type="line"/>
			<point x="509" y="594" type="line"/>
			<point x="499" y="390" type="line"/>
			<point x="462" y="390"/>
			<point x="437" y="390"/>
			<point x="419" y="403" type="curve" smooth="yes"/>
			<point x="398" y="418"/>
			<point x="374" y="467"/>
			<point x="338" y="562" type="curve" smooth="yes"/>
			<point x="309" y="638"/>
			<point x="276" y="711"/>
			<point x="181" y="711" type="curve" smooth="yes"/>
			<point x="114" y="711"/>
			<point x="61" y="673"/>
			<point x="61" y="604" type="curve" smooth="yes"/>
			<point x="61" y="551"/>
			<point x="90" y="517"/>
			<point x="137" y="495" type="curve"/>
			<point x="188" y="553" type="line" smooth="yes"/>
			<point x="196" y="562"/>
			<point x="203" y="569"/>
			<point x="210" y="569" type="curve" smooth="yes"/>
			<point x="221" y="569"/>
			<point x="225" y="561"/>
			<point x="261" y="478" type="curve" smooth="yes"/>
			<point x="288" y="415"/>
			<point x="306" y="377"/>
			<point x="346" y="362" type="curve"/>
			<point x="346" y="358" type="line"/>
			<point x="231" y="349"/>
			<point x="189" y="307"/>
			<point x="157" y="249" type="curve" smooth="yes"/>
			<point x="145" y="227"/>
			<point x="134" y="206"/>
			<point x="118" y="171" type="curve" smooth="yes"/>
			<point x="100" y="132"/>
			<point x="84" y="120"/>
			<point x="59" y="120" type="curve" smooth="yes"/>
			<point x="41" y="120"/>
			<point x="25" y="125"/>
			<point x="14" y="130" type="curve"/>
			<point x="-16" y="40" type="line"/>
			<point x="24" y="13"/>
			<point x="82" y="-14"/>
			<point x="147" y="-14" type="curve" smooth="yes"/>
			<point x="278" y="-14"/>
			<point x="311" y="71"/>
			<point x="372" y="227" type="curve" smooth="yes"/>
			<point x="388" y="268"/>
			<point x="401" y="289"/>
			<point x="419" y="300" type="curve" smooth="yes"/>
			<point x="436" y="310"/>
			<point x="465" y="310"/>
		</contour>
	</outline>
</glyph>
<glyph name="Schwa-cy" format="2">
	<unicode hex="04D8"/>
	<advance width="799"/>
	<outline>
		<contour>
			<point x="382" y="-14" type="curve" smooth="yes"/>
			<point x="592" y="-14"/>
			<point x="760" y="128"/>
			<point x="760" y="387" type="curve" smooth="yes"/>
			<point x="760" y="606"/>
			<point x="615" y="715"/>
			<point x="416" y="715" type="curve" smooth="yes"/>
			<point x="258" y="715"/>
			<point x="161" y="640"/>
			<point x="109" y="556" type="curve"/>
			<point x="191" y="491" type="line"/>
			<point x="234" y="554"/>
			<point x="296" y="585"/>
			<point x="358" y="585" type="curve" smooth="yes"/>
			<point x="449" y="585"/>
			<point x="515" y="534"/>
			<point x="524" y="408" type="curve"/>
			<point x="74" y="408" type="line"/>
			<point x="64" y="350"/>
			<point x="60" y="303"/>
			<point x="60" y="266" type="curve" smooth="yes"/>
			<point x="60" y="91"/>
			<point x="177" y="-14"/>
		</contour>
		<contour>
			<point x="384" y="89" type="curve" smooth="yes"/>
			<point x="305" y="89"/>
			<point x="270" y="144"/>
			<point x="270" y="224" type="curve" smooth="yes"/>
			<point x="270" y="253"/>
			<point x="273" y="281"/>
			<point x="277" y="309" type="curve"/>
			<point x="523" y="309" type="line"/>
			<point x="517" y="167"/>
			<point x="462" y="89"/>
		</contour>
	</outline>
</glyph>
<glyph name="schwa-cy" format="2">
	<unicode hex="04D9"/>
	<advance width="615"/>
	<outline>
		<contour>
			<point x="245" y="-14" type="curve" smooth="yes"/>
			<point x="447" y="-14"/>
			<point x="576" y="92"/>
			<point x="576" y="296" type="curve" smooth="yes"/>
			<point x="576" y="460"/>
			<point x="463" y="541"/>
			<point x="306" y="541" type="curve" smooth="yes"/>
			<point x="234" y="541"/>
			<point x="123" y="521"/>
			<point x="51" y="439" type="curve"/>
			<point x="106" y="355" type="line"/>
			<point x="150" y="385"/>
			<point x="206" y="408"/>
			<point x="251" y="408" type="curve" smooth="yes"/>
			<point x="303" y="408"/>
			<point x="345" y="387"/>
			<point x="355" y="328" type="curve"/>
			<point x="265" y="303" type="line" smooth="yes"/>
			<point x="84" y="253"/>
			<point x="45" y="199"/>
			<point x="45" y="125" type="curve" smooth="yes"/>
			<point x="45" y="35"/>
			<point x="123" y="-14"/>
		</contour>
		<contour>
			<point x="274" y="75" type="curve" smooth="yes"/>
			<point x="254" y="75"/>
			<point x="237" y="85"/>
			<point x="237" y="125" type="curve" smooth="yes"/>
			<point x="237" y="181"/>
			<point x="264" y="203"/>
			<point x="316" y="216" type="curve" smooth="yes"/>
			<point x="359" y="227" type="line"/>
			<point x="349" y="110"/>
			<point x="314" y="75"/>
		</contour>
	</outline>
</glyph>
<glyph name="Obarred-cy" format="2">
	<unicode hex="04E8"/>
	<advance width="870"/>
	<outline>
		<contour>
			<point x="58" y="322" type="curve" smooth="yes"/>
			<point x="58" y="124"/>
			<point x="172" y="-16"/>
			<point x="414" y="-16" type="curve" smooth="yes"/>
			<point x="679" y="-16"/>
			<point x="831" y="144"/>
			<point x="831" y="383" type="curve" smooth="yes"/>
			<point x="831" y="586"/>
			<point x="719" y="717"/>
			<point x="471" y="717" type="curve" smooth="yes"/>
			<point x="207" y="717"/>
			<point x="58" y="561"/>
		</contour>
		<contour>
			<point x="431" y="100" type="curve" smooth="yes"/>
			<point x="331" y="100"/>
			<point x="296" y="172"/>
			<point x="293" y="299" type="curve"/>
			<point x="588" y="299" type="line"/>
			<point x="575" y="168"/>
			<point x="535" y="100"/>
		</contour>
		<contour>
			<point x="454" y="607" type="curve" smooth="yes"/>
			<point x="556" y="607"/>
			<point x="588" y="533"/>
			<point x="592" y="408" type="curve"/>
			<point x="297" y="408" type="line"/>
			<point x="311" y="534"/>
			<point x="362" y="607"/>
		</contour>
	</outline>
</glyph>
<glyph name="obarred-cy" format="2">
	<unicode hex="04E9"/>
	<advance width="688"/>
	<outline>
		<contour>
			<point x="45" y="244" type="curve" smooth="yes"/>
			<point x="45" y="89"/>
			<point x="133" y="-17"/>
			<point x="326" y="-17" type="curve" smooth="yes"/>
			<point x="564" y="-17"/>
			<point x="648" y="131"/>
			<point x="648" y="285" type="curve" smooth="yes"/>
			<point x="648" y="448"/>
			<point x="556" y="544"/>
			<point x="370" y="544" type="curve" smooth="yes"/>
			<point x="136" y="544"/>
			<point x="45" y="406"/>
		</contour>
		<contour>
			<point x="342" y="80" type="curve" smooth="yes"/>
			<point x="289" y="80"/>
			<point x="272" y="129"/>
			<point x="269" y="213" type="curve"/>
			<point x="424" y="213" type="line"/>
			<point x="420" y="139"/>
			<point x="403" y="80"/>
		</contour>
		<contour>
			<point x="355" y="447" type="curve" smooth="yes"/>
			<point x="414" y="447"/>
			<point x="425" y="388"/>
			<point x="426" y="305" type="curve"/>
			<point x="271" y="305" type="line"/>
			<point x="279" y="415"/>
			<point x="308" y="447"/>
		</contour>
	</outline>
</glyph>
